<svg width="23" height="20" fill="none" xmlns="http://www.w3.org/2000/svg"><path d="M1.5 5.334a2 2 0 012-2h16a2 2 0 012 2v10.167a2 2 0 01-2 2h-16a2 2 0 01-2-2V5.334z" stroke="url(#paint0_linear_130_995)" stroke-width="2" stroke-linejoin="round"/><path d="M2.921 4.637c-.504-.462-.177-1.303.507-1.303h16.144c.684 0 1.01.84.507 1.303l-6.552 6.005a3 3 0 01-4.054 0L2.92 4.637z" stroke="url(#paint1_linear_130_995)" stroke-width="2" stroke-linejoin="round"/><defs><linearGradient id="paint0_linear_130_995" x1="1.342" y1="17.501" x2="23.608" y2="12.216" gradientUnits="userSpaceOnUse"><stop stop-color="#ADE6E0"/><stop offset="1" stop-color="#26C7BC"/></linearGradient><linearGradient id="paint1_linear_130_995" x1="1.342" y1="12.501" x2="22.073" y2="4.897" gradientUnits="userSpaceOnUse"><stop stop-color="#ADE6E0"/><stop offset="1" stop-color="#26C7BC"/></linearGradient></defs></svg>