<svg width="66" height="66" fill="none" xmlns="http://www.w3.org/2000/svg"><path d="M40.12 19.184c.278.338.536.099.774-.06.895-.616 1.79-1.252 2.684-1.868 1.033-.716 1.888-.636 2.802.238a108.65 108.65 0 012.147 2.147c.875.894.934 1.749.239 2.802-.597.875-1.193 1.77-1.81 2.624-.238.318-.278.557-.099.934.338.696.617 1.392.875 2.127.14.378.318.537.715.596 1.034.16 2.048.358 3.061.557 1.352.258 1.909.914 1.929 2.286 0 1.212-.02 2.425-.02 3.637a3.2 3.2 0 01-.776 1.133c-.934.457-1.987.418-2.941.736-.358.06-.736.159-1.094.159-.655 0-.854.377-.894.934-.258.556-.457 1.133-.775 1.65-.318.516-.258.894.179 1.272.517.755 1.014 1.51 1.53 2.266.895 1.312.815 2.087-.278 3.2a12.21 12.21 0 00-.497.536c-.517.497-1.014.994-1.55 1.491-.835.795-1.71.875-2.684.239-.636-.418-1.312-.815-1.888-1.312-.835-.716-1.63-.994-2.584-.259-.218.18-.536.239-.815.358-.358.18-.934.02-1.053.616-.16.815-.278 1.65-.418 2.485-.218.676-.218 1.431-.636 2.047-.556.517-1.212.716-1.968.676-.854-.04-1.729-.04-2.583 0-.756.02-1.412-.159-1.968-.676-.418-.616-.398-1.371-.636-2.067-.12-.755-.279-1.51-.378-2.266-.04-.397-.219-.596-.596-.715-.736-.219-1.451-.497-2.107-.875-.358-.199-.616-.159-.934.08-.895.636-1.829 1.252-2.743 1.868-1.014.676-1.829.596-2.704-.258l-1.49-1.432c-.279-.278-.537-.576-.795-.854-.696-.775-.776-1.63-.2-2.505.577-.894 1.174-1.769 1.77-2.643.437-.358.477-.716.199-1.213-.338-.616-.577-1.312-.815-1.987-.12-.358-.299-.537-.696-.617-1.391-.318-2.862-.337-4.194-.894-.616-.517-.835-1.173-.815-1.968.04-.954 0-1.928.02-2.882.02-1.272.576-1.948 1.849-2.186.993-.18 1.987-.358 2.981-.517.477-.08.795-.259.894-.775.08-.438.279-.835.438-1.253.596-.755.695-1.49-.06-2.226-.278-.258-.477-.616-.696-.934-.278-.437-.576-.855-.854-1.292-.577-.894-.517-1.789.238-2.564.756-.795 1.57-1.57 2.346-2.365.338-.338.755-.537 1.232-.636.358.06.735.139 1.093.198 1.034.716 2.067 1.431 3.101 2.167.278.199.497.238.815.06.716-.398 1.47-.696 2.266-.935.338-.1.457-.278.517-.616.159-1.053.377-2.087.556-3.14.239-1.312.915-1.889 2.226-1.909h2.823c1.47 0 2.147.597 2.385 2.048.179 1.033.398 2.067.557 3.1.04.299.178.418.417.517.775.299 1.57.617 2.385.915zM33.002 51.9c.477 0 .935-.02 1.412 0 .516.02.755-.16.834-.696.2-1.292.477-2.584.716-3.856.08-.438.318-.716.735-.815a14.228 14.228 0 003.22-1.312c.458-.258.855-.239 1.312.08 1.034.755 2.127 1.45 3.18 2.206.398.278.696.258 1.034-.1a59.828 59.828 0 011.948-1.947c.418-.398.457-.756.12-1.233-.716-.974-1.372-2.007-2.088-2.981-.377-.497-.437-.934-.1-1.491.538-.895.955-1.849 1.194-2.862.178-.696.576-.974 1.232-1.074 1.173-.178 2.325-.417 3.498-.616.497-.08.736-.298.696-.835-.04-.967-.02-1.915 0-2.882v-.02c0-.437-.14-.675-.616-.755-1.292-.218-2.584-.477-3.856-.696-.517-.08-.776-.357-.915-.834a11.596 11.596 0 00-1.272-3.081c-.298-.497-.258-.915.06-1.372.735-.994 1.411-2.027 2.127-3.04.338-.458.338-.816-.1-1.233a28.218 28.218 0 01-1.888-1.889c-.378-.397-.716-.437-1.173-.119-1.033.736-2.087 1.431-3.1 2.167-.438.318-.816.338-1.293.06a12.164 12.164 0 00-3.16-1.293c-.477-.119-.735-.417-.815-.934-.218-1.272-.497-2.524-.696-3.796-.08-.577-.357-.755-.894-.736-.894.02-1.789.02-2.683 0-.577-.02-.835.219-.934.795-.2 1.272-.478 2.525-.696 3.797-.08.497-.358.735-.795.855-1.093.357-2.147.775-3.12 1.371-.478.278-.856.239-1.293-.08-1.034-.735-2.087-1.43-3.12-2.166-.438-.318-.776-.318-1.173.1a45.008 45.008 0 01-1.948 1.947c-.418.398-.398.716-.08 1.153.736 1.034 1.431 2.087 2.167 3.12.278.398.358.796.1 1.233a13.425 13.425 0 00-1.332 3.22c-.14.477-.418.716-.935.815-1.272.199-2.524.497-3.796.696-.517.08-.656.318-.656.795.02.914.04 1.828 0 2.743-.02.636.219.874.835.974 1.172.179 2.345.417 3.498.616.537.1.934.298 1.093.934a10.518 10.518 0 001.193 2.942c.338.576.298 1.033-.1 1.57-.715.974-1.39 1.988-2.086 2.982-.319.437-.299.775.099 1.152.616.577 1.232 1.153 1.789 1.79.477.536.874.576 1.45.138.955-.735 1.988-1.39 2.982-2.087.438-.298.855-.337 1.312-.06a10.57 10.57 0 002.942 1.213c.636.16.974.537 1.053 1.173.12.755.239 1.51.378 2.266.413 1.988.417 1.988 2.444 1.988h.06z" fill="#26C7BC"/><path d="M33.003 51.9c.477 0 .935-.02 1.412 0 .516.02.755-.158.834-.695.2-1.292.477-2.584.716-3.856.08-.438.318-.716.735-.815a14.228 14.228 0 003.22-1.312c.458-.258.855-.239 1.312.08 1.034.755 2.127 1.45 3.18 2.206.398.278.696.258 1.034-.1a59.828 59.828 0 011.948-1.947c.418-.398.457-.756.12-1.233-.716-.974-1.372-2.007-2.088-2.981-.377-.497-.437-.934-.1-1.491.538-.895.955-1.849 1.194-2.862.178-.696.576-.974 1.232-1.074 1.173-.178 2.325-.417 3.498-.616.497-.08.736-.298.696-.835-.04-.967-.02-1.915 0-2.882v-.02c0-.437-.14-.675-.616-.755-1.292-.218-2.584-.477-3.856-.696-.517-.08-.776-.357-.915-.834a11.596 11.596 0 00-1.272-3.081c-.298-.497-.258-.915.06-1.372.735-.994 1.411-2.027 2.127-3.04.338-.458.338-.816-.1-1.233a28.218 28.218 0 01-1.888-1.889c-.378-.397-.716-.437-1.173-.119-1.033.736-2.087 1.431-3.1 2.167-.438.318-.816.338-1.293.06a12.164 12.164 0 00-3.16-1.293c-.477-.119-.735-.417-.815-.934-.218-1.272-.497-2.524-.696-3.796-.08-.577-.357-.755-.894-.736-.894.02-1.789.02-2.683 0-.577-.02-.835.219-.934.795-.2 1.272-.478 2.525-.696 3.797-.08.497-.358.735-.795.855-1.093.357-2.147.775-3.12 1.371-.478.278-.856.239-1.293-.08-1.034-.735-2.087-1.43-3.12-2.166-.438-.318-.776-.318-1.173.1a45.008 45.008 0 01-1.948 1.947c-.418.398-.398.716-.08 1.153.736 1.034 1.431 2.087 2.167 3.12.278.398.358.796.1 1.233a13.425 13.425 0 00-1.332 3.22c-.14.477-.418.716-.935.815-1.272.199-2.524.497-3.796.696-.517.08-.656.318-.656.795.02.914.04 1.828 0 2.743-.02.636.219.874.835.974 1.172.179 2.345.417 3.498.616.537.1.934.298 1.093.934a10.518 10.518 0 001.193 2.942c.338.576.298 1.033-.1 1.57-.715.974-1.39 1.988-2.086 2.982-.319.437-.299.775.099 1.152.616.577 1.232 1.153 1.789 1.79.477.536.874.576 1.45.138.955-.735 1.988-1.39 2.982-2.087.438-.298.855-.337 1.312-.06a10.57 10.57 0 002.942 1.213c.636.16.974.537 1.053 1.173.12.755.239 1.51.378 2.266.413 1.988.417 1.988 2.444 1.988h.06z" fill="#26C7BC"/><path d="M40.12 19.184c.278.338.536.099.774-.06.895-.616 1.79-1.252 2.684-1.868 1.033-.716 1.888-.636 2.802.238a108.65 108.65 0 012.147 2.147c.875.894.934 1.749.239 2.802-.597.875-1.193 1.77-1.81 2.624-.238.318-.278.557-.099.934.338.696.617 1.392.875 2.127.14.378.318.537.715.596 1.034.16 2.048.358 3.061.557 1.352.258 1.909.914 1.929 2.286 0 1.212-.02 2.425-.02 3.637a3.2 3.2 0 01-.776 1.133c-.934.457-1.987.418-2.941.736-.358.06-.736.159-1.094.159-.655 0-.854.377-.894.934-.258.556-.457 1.133-.775 1.65-.318.516-.258.894.179 1.272.517.755 1.014 1.51 1.53 2.266.895 1.312.815 2.087-.278 3.2-.179.179-.338.358-.497.536-.517.497-1.014.994-1.55 1.491-.835.795-1.71.875-2.684.239-.636-.418-1.312-.815-1.888-1.312-.835-.716-1.63-.994-2.584-.259-.218.18-.536.239-.815.358-.358.18-.934.02-1.053.616-.16.815-.278 1.65-.418 2.485-.218.676-.218 1.431-.636 2.047-.556.517-1.212.716-1.968.676-.854-.04-1.729-.04-2.583 0-.756.02-1.412-.159-1.968-.676-.418-.616-.398-1.371-.636-2.067-.12-.755-.279-1.51-.378-2.266-.04-.397-.219-.596-.596-.715-.736-.219-1.451-.497-2.107-.875-.358-.199-.616-.159-.934.08-.895.636-1.829 1.252-2.743 1.868-1.014.676-1.829.596-2.704-.258l-1.49-1.432c-.279-.278-.537-.576-.795-.854-.696-.775-.776-1.63-.2-2.505.577-.894 1.174-1.769 1.77-2.643.437-.358.477-.716.199-1.213-.338-.616-.577-1.312-.815-1.987-.12-.358-.299-.537-.696-.617-1.391-.318-2.862-.337-4.194-.894-.616-.517-.835-1.173-.815-1.968.04-.954 0-1.928.02-2.882.02-1.272.576-1.948 1.849-2.186.993-.18 1.987-.358 2.981-.517.477-.08.795-.259.894-.775.08-.438.279-.835.438-1.253.596-.755.695-1.49-.06-2.226-.278-.258-.477-.616-.696-.934-.278-.437-.576-.855-.854-1.292-.577-.894-.517-1.789.238-2.564.756-.795 1.57-1.57 2.346-2.365.338-.338.755-.537 1.232-.636.358.06.735.139 1.093.198 1.034.716 2.067 1.431 3.101 2.167.278.199.497.238.815.06.716-.398 1.47-.696 2.266-.935.338-.1.457-.278.517-.616.159-1.053.377-2.087.556-3.14.239-1.312.915-1.889 2.226-1.909h2.823c1.47 0 2.147.597 2.385 2.048.179 1.033.398 2.067.557 3.1.04.299.178.418.417.517.775.299 1.57.617 2.385.915zM33.002 51.9c.477 0 .935-.02 1.412 0 .516.02.755-.16.834-.696.2-1.292.477-2.584.716-3.856.08-.437.318-.716.735-.815a14.228 14.228 0 003.22-1.312c.458-.258.855-.239 1.312.08 1.034.755 2.127 1.45 3.18 2.206.398.278.696.258 1.034-.1a59.828 59.828 0 011.948-1.947c.418-.398.457-.756.12-1.233-.716-.974-1.372-2.007-2.088-2.981-.377-.497-.437-.934-.1-1.491.538-.895.955-1.849 1.194-2.862.178-.696.576-.974 1.232-1.074 1.173-.178 2.325-.417 3.498-.616.497-.08.736-.298.696-.835-.04-.974-.02-1.928 0-2.902 0-.437-.14-.675-.616-.755-1.292-.218-2.584-.477-3.856-.696-.517-.08-.776-.357-.915-.834a11.596 11.596 0 00-1.272-3.081c-.298-.497-.258-.915.06-1.372.735-.994 1.411-2.027 2.127-3.04.338-.458.338-.816-.1-1.233a28.218 28.218 0 01-1.888-1.889c-.378-.397-.716-.437-1.173-.119-1.033.736-2.087 1.431-3.1 2.167-.438.318-.816.338-1.293.06a12.164 12.164 0 00-3.16-1.293c-.477-.119-.735-.417-.815-.934-.218-1.272-.497-2.524-.696-3.796-.08-.577-.357-.755-.894-.736-.894.02-1.789.02-2.683 0-.577-.02-.835.219-.934.795-.2 1.272-.478 2.525-.696 3.797-.08.497-.358.735-.795.855-1.093.357-2.147.775-3.12 1.371-.478.278-.856.239-1.293-.08-1.034-.735-2.087-1.43-3.12-2.166-.438-.318-.776-.318-1.173.1a45.008 45.008 0 01-1.948 1.947c-.418.398-.398.716-.08 1.153.736 1.034 1.431 2.087 2.167 3.12.278.398.358.796.1 1.233a13.425 13.425 0 00-1.332 3.22c-.14.477-.418.716-.935.815-1.272.199-2.524.497-3.796.696-.517.08-.656.318-.656.795.02.914.04 1.828 0 2.743-.02.636.219.874.835.974 1.172.179 2.345.417 3.498.616.537.1.934.298 1.093.934a10.518 10.518 0 001.193 2.942c.338.576.298 1.033-.1 1.57-.715.974-1.39 1.988-2.086 2.982-.319.437-.299.775.099 1.152.616.577 1.232 1.153 1.789 1.79.477.536.874.576 1.45.138.955-.735 1.988-1.39 2.982-2.087.438-.298.855-.337 1.312-.06a10.57 10.57 0 002.942 1.213c.636.16.974.537 1.053 1.173.12.755.239 1.51.378 2.266.417 2.008.417 1.988 2.504 1.988zm28.545-22.48c-1.491.477-3.002.775-4.572.338-2.703-.736-4.75-3.002-5.068-5.685-.358-2.882 1.053-5.625 3.558-6.957a6.808 6.808 0 017.692.875c.119.1.238.179.358.258 1.47 1.65 2.206 3.538 1.927 5.784-.119.974-.516 1.849-.914 2.723-.795 1.113-1.828 1.968-2.981 2.664zm-8.19-6.281c0 2.942 2.386 5.347 5.328 5.347 2.921 0 5.326-2.405 5.326-5.347a5.302 5.302 0 00-5.326-5.327 5.29 5.29 0 00-5.328 5.327z" fill="#141C29"/><path d="M8.137 36.059c4.97.715 7.335 5.863 5.267 9.898-.04.06-.04.14-.06.219-.118.159-.238.318-.337.477-1.431 1.988-3.34 3.041-5.804 3.021-2.445-.04-4.274-1.232-5.665-3.16-1.431-2.684-1.451-5.327.417-7.812 1.511-2.027 3.658-2.822 6.182-2.643zm4.512 6.778c-.02-2.942-2.425-5.327-5.347-5.308-2.942.02-5.327 2.425-5.307 5.367a5.327 5.327 0 005.347 5.307 5.319 5.319 0 005.307-5.366zm23.932 18.644c-.695-1.928-.795-3.856.12-5.744.178-.358.377-.696.576-1.034 1.67-2.147 3.876-3.06 6.58-2.822.476.139.953.258 1.43.397 3.36 1.312 5.665 5.347 3.598 9.68-1.014 1.59-2.346 2.783-4.214 3.3a6.865 6.865 0 01-7.652-3.041c-.1-.16-.2-.338-.319-.497-.04-.1-.079-.16-.119-.239zm6.301-8.13a5.34 5.34 0 00-5.366 5.288c-.02 2.922 2.365 5.346 5.306 5.346a5.302 5.302 0 005.347-5.306 5.268 5.268 0 00-5.287-5.328zm9.978-6.837c-.158-.338-.357-.656-.477-1.014-.139-.398 0-.735.398-.914.378-.18.676-.06.914.278.12.179.2.398.318.596a5.336 5.336 0 006.023 2.564c2.306-.596 3.956-2.723 3.956-5.148.02-2.444-1.63-4.551-3.996-5.188-2.325-.616-4.77.438-5.983 2.545-.119.199-.198.397-.337.576-.259.318-.597.338-.935.16-.298-.18-.437-.478-.318-.836.18-.516.477-.974.795-1.41 2.127-2.784 5.963-3.519 8.925-1.75 3.021 1.829 4.174 5.526 2.703 8.726-.12.278-.258.537-.377.795-1.312 1.848-3.042 3.001-5.367 3.14-2.664.18-4.71-.974-6.241-3.12zM9.529 17.315c.397-.12.715.1 1.053.258 3.101 1.65 4.433 5.506 3.002 8.726-.12.299-.279.577-.398.875-.1.12-.179.219-.278.338-1.63 2.146-3.777 3.14-6.46 2.822-2.385-.278-4.055-1.63-5.247-3.657-1.054-2.485-.974-4.85.616-7.096.636-.914 1.47-1.59 2.464-2.107.497-.258.974-.378 1.273.199.298.596-.12.894-.597 1.133-1.868.974-2.882 2.544-2.922 4.651-.04 2.008.835 3.598 2.525 4.651a5.29 5.29 0 007.354-1.809c1.53-2.584.656-5.883-1.988-7.394-.238-.139-.516-.238-.675-.437-.398-.457-.18-.855.278-1.153z" fill="#141C29"/><path d="M9.787 22.582c.02.656-.497 1.173-.576 1.71-.06.477.556.993.576 1.61 0 .457-.16.795-.636.854-.477.06-.775-.179-.835-.636-.08-.596-.318-1.014-.954-1.014-.676-.02-.934.398-1.034 1.034-.06.457-.357.716-.834.636-.477-.06-.656-.397-.617-.855v-.08c-.02-.595.617-1.053.557-1.55-.06-.496-.557-.954-.557-1.57-.04-1.411.994-2.564 2.386-2.604 1.351-.06 2.524 1.094 2.524 2.465zm-2.445.994c.517 0 .974-.497.974-1.014-.02-.536-.497-.994-1.014-.934-.556.06-.894.378-.914.954-.04.537.417.994.954.994zm53.787 18.346c.02.397-.06.855-.338 1.192-.299.378-.259.656.02 1.014.238.318.318.716.318 1.113 0 .477-.22.775-.676.815-.438.04-.696-.218-.795-.636-.06-.239-.04-.497-.219-.696-.258-.298-.577-.457-.994-.357-.417.119-.696.397-.735.834-.04.458-.219.776-.676.855-.517.1-1.054-.477-.775-1.014.517-1.013.258-1.888 0-2.902-.338-1.351.854-2.643 2.266-2.723 1.391-.1 2.584 1.014 2.604 2.505zm-2.505.914a.94.94 0 00.994-.954c0-.537-.437-1.014-.974-.994-.557.04-.914.358-.974.915a.998.998 0 00.954 1.033zM27.616 2.149c2.524 2.485 2.981 5.347 1.51 8.547-.139.179-.258.358-.397.537a6.823 6.823 0 01-7.315 2.703c-1.888-.497-3.26-1.69-4.293-3.3-.874-1.868-1.093-3.776-.338-5.744C18.373.738 23.462-.813 27.1 1.752c.16.139.338.258.517.397zm-4.512 10.495a5.345 5.345 0 005.387-5.287c.04-2.922-2.346-5.327-5.308-5.367-2.961-.02-5.366 2.365-5.366 5.307-.02 2.962 2.325 5.347 5.287 5.347zM21.852 52.04c2.425-.477 4.611-.04 6.46 1.709a6.785 6.785 0 011.63 7.414c-.08.199-.16.417-.239.616-.08.12-.178.239-.238.358-1.272 2.007-3.061 3.18-5.466 3.32-2.683.158-4.71-1.034-6.222-3.181-2.305-3.956-.477-8.766 3.857-10.177.06-.02.139-.04.218-.06zm1.73 1.311c-2.962 0-5.328 2.346-5.328 5.307a5.302 5.302 0 005.327 5.327c2.942 0 5.347-2.385 5.347-5.327 0-2.921-2.385-5.307-5.347-5.307zM41.768.559c.894-.02 1.769-.08 2.663.139 2.902.715 5.089 3.26 5.228 6.102.159 3.22-1.63 5.983-4.572 6.997-2.842.993-6.002-.02-7.791-2.485-.16-.219-.219-.576-.577-.616-.179-.855-.536-1.65-.636-2.525-.377-3.518 1.75-6.599 5.188-7.473.16-.04.338-.1.497-.14zm1.093 12.085a5.298 5.298 0 005.327-5.307 5.302 5.302 0 00-5.327-5.327c-2.941 0-5.347 2.385-5.347 5.327 0 2.921 2.386 5.307 5.347 5.307z" fill="#141C29"/><path d="M38.35 47.606c-.298.974-.596 1.948-.736 2.962 0 .04-.02.1-.02.14h-.715c.139-.836.258-1.65.417-2.485.12-.597.696-.438 1.054-.617z" fill="#CAD5FE"/><path d="M36.581 61.48c.04.08.08.16.14.22-.06-.08-.1-.14-.14-.22z" fill="#FDFDFE"/><path d="M58.624 42.837c-.556-.02-.994-.478-.934-1.014.06-.577.398-.895.974-.915.537-.04.974.458.974.994a.953.953 0 01-1.014.934z" fill="#F3F6FE"/><path d="M27.001 40.252c-2.942-2.345-4.154-6.32-3.041-10.017 1.073-3.618 4.432-6.281 8.229-6.62 5.009-.456 9.143 3.121 10.057 7.395 1.153 5.406-2.544 10.634-8.05 11.37-.02-.379-.04-.736-.04-1.114 0-1.033 0-1.033.994-1.033h.597c1.073-.04 1.53-.477 1.55-1.55V37.35c0-.218-.02-.417.259-.536.596-.259.616-.776.496-1.312-.218-.855-.417-1.73-.655-2.584-.16-.557-.12-.994.377-1.451.875-.795 1.233-1.868 1.233-3.061 0-1.252-.338-1.61-1.57-1.61H31.87c-2.982 0-4.81 1.829-4.83 4.81-.02 2.862-.02 5.764-.04 8.646z" fill="#FDFDFE"/><path d="M27 40.252c0-2.902.02-5.784.02-8.686 0-2.962 1.849-4.79 4.83-4.81h5.566c1.232 0 1.55.358 1.57 1.61 0 1.192-.358 2.266-1.232 3.06-.497.438-.537.875-.378 1.452.239.855.457 1.73.656 2.584.14.536.1 1.053-.497 1.312-.278.119-.258.318-.258.536v1.332c-.02 1.073-.457 1.51-1.55 1.55h-.597c-.994 0-.994 0-.994 1.034 0 .378.02.736.04 1.113-.12.696-.596.895-1.252.855-1.69-.1-3.3-.477-4.83-1.272-.696-.358-1.213-.775-1.093-1.67zm1.57-2.604c-.02.815-.02 1.63-.039 2.445 0 .239.06.398.298.537a8.469 8.469 0 003.38 1.033c.397.04.456-.139.456-.477-.02-.497.02-.993 0-1.49-.02-.696.299-.974.994-.974.716-.02 1.69.337 2.067-.14.358-.457.1-1.371.12-2.087 0-.357-.04-.735.318-.914.377-.199.298-.437.218-.735-.238-.974-.596-1.948-.576-2.982 0-.497.159-.874.616-1.173.616-.397.974-1.033 1.073-1.788.06-.418-.04-.636-.536-.636-1.79.02-3.558-.02-5.347.02-1.63.04-2.982 1.192-3.021 2.683-.1 2.226-.02 4.452-.02 6.678zm32.558-15.444c.04.577-.477 1.094-.556 1.63-.08.477.556.994.556 1.61 0 .457-.139.795-.636.855-.477.06-.775-.199-.835-.636-.08-.636-.357-1.034-1.033-1.034-.636.02-.875.438-.954 1.014-.06.457-.358.696-.835.636-.477-.06-.656-.398-.636-.855v-.08c.02-.596.636-1.073.576-1.55-.06-.496-.556-.954-.576-1.55-.06-1.371.994-2.564 2.385-2.624 1.371-.02 2.524 1.113 2.544 2.584zm-1.49-.08c-.02-.536-.478-1.013-1.014-.953-.557.06-.895.377-.935.954-.02.517.458.994.974.994.537 0 .974-.457.974-.994zM7.342 39.398c1.888.02 3.081 2.086 2.087 3.736-.219.378-.278.597 0 .954.239.279.318.656.358 1.034.04.477-.14.855-.636.934-.497.08-.795-.218-.855-.715-.04-.338-.159-.617-.457-.815-.596-.418-1.332-.08-1.49.715-.1.537-.339.915-.915.815-.596-.12-.755-.676-.537-1.093.477-.934.298-1.73.02-2.683-.397-1.491.914-2.883 2.425-2.883zm.954 2.524c.04-.517-.417-1.034-.934-1.034-.557 0-.934.298-.994.875-.06.556.338 1.014.895 1.053a.925.925 0 001.033-.894zm37.05 15.762c.02.656-.516 1.173-.576 1.71-.04.497.596 1.033.576 1.69 0 .417-.178.715-.616.794-.457.08-.795-.159-.854-.616-.08-.616-.338-1.053-1.014-1.053-.676 0-.895.457-.994 1.073-.06.457-.398.676-.875.596-.437-.08-.576-.377-.596-.815-.04-.656.656-1.172.557-1.69-.1-.556-.577-1.052-.557-1.708.04-1.352 1.133-2.445 2.485-2.445 1.351 0 2.464 1.133 2.464 2.464zm-1.51-.02c-.02-.516-.517-.973-1.034-.934a.983.983 0 00-.914 1.054c.06.596.417.874.974.894.536.02.994-.497.974-1.013zM25.59 6.442c.04.557-.438 1.034-.557 1.57-.1.497.557.974.557 1.61 0 .477-.14.855-.656.915-.477.06-.756-.239-.815-.676-.08-.597-.358-.994-.974-1.014-.656 0-.934.417-1.014 1.054-.06.457-.378.695-.835.636-.417-.06-.636-.358-.636-.795 0-.08-.02-.16.02-.22.616-.973.318-1.907.04-2.96-.338-1.313.914-2.624 2.306-2.684 1.39-.08 2.564 1.073 2.564 2.564zm-1.491-.1a.98.98 0 00-.974-.993c-.517 0-1.014.477-.974.994.04.556.358.914.934.934.577.04 1.014-.378 1.014-.934zm1.948 51.441c.04.577-.517 1.074-.557 1.61-.04.477.577.994.557 1.61 0 .458-.16.776-.636.835-.477.06-.775-.218-.835-.656-.08-.636-.358-1.033-1.034-1.013-.636.02-.874.437-.954 1.033-.06.477-.357.696-.834.636-.477-.06-.656-.397-.636-.854 0-.08-.02-.16.02-.219.616-.934.337-1.809.04-2.803-.398-1.331.854-2.683 2.285-2.763 1.391-.06 2.584 1.074 2.584 2.584zm-1.51-.099c0-.537-.458-1.014-.994-.954-.557.06-.915.358-.955.954-.04.537.438 1.014.974 1.014.537-.02.994-.477.974-1.014zM42.882 3.858c1.888 0 3.1 2.087 2.106 3.717-.218.358-.318.597-.02.954.259.299.338.696.378 1.114.02.496-.179.834-.676.894-.457.04-.735-.239-.795-.696-.02-.1-.02-.198-.04-.298-.159-.437-.477-.715-.934-.715-.497 0-.835.278-.954.775-.04.199-.06.397-.159.556-.159.279-.417.418-.755.358-.318-.06-.537-.258-.596-.576-.02-.1 0-.2-.02-.299-.04-.636.616-1.113.556-1.61-.08-.536-.556-1.013-.556-1.63 0-1.39 1.093-2.544 2.465-2.544zm-.02 3.439c.536 0 .993-.457.974-.994-.02-.517-.517-.994-1.034-.954-.557.06-.895.378-.914.954 0 .577.417.994.974.994z" fill="#141C29"/><path d="M35.786 31.845c-.02 1.033.337 1.987.576 2.981.08.298.159.557-.219.736-.357.178-.318.576-.318.914 0 .715.239 1.65-.119 2.087-.378.477-1.352.14-2.067.14-.676.019-1.014.277-.994.973.02.497 0 .994 0 1.49.02.339-.06.498-.457.478a8.47 8.47 0 01-3.38-1.034c-.238-.119-.297-.278-.297-.536.02-.815.04-1.63.04-2.445.675-.1 1.152-.537 1.55-1.054.199-.258.199-.357-.16-.497-.794-.318-1.232-1.172-1.132-1.967.1-.795.894-1.233 1.51-.756.497.378.756.18 1.054-.159.199-.218.417-.457.517-.715.159-.477.477-.517.914-.537.994.02 1.988.14 2.982-.1z" fill="#FDFDFE"/><path d="M35.785 31.844c-.974.239-1.967.1-2.961.12-.438 0-.736.06-.915.536-.099.259-.318.497-.516.716-.299.338-.557.537-1.054.159-.616-.477-1.411-.04-1.51.755-.1.815.337 1.65 1.133 1.968.357.14.357.258.159.497-.418.517-.875.934-1.55 1.053-.02-2.226-.08-4.452-.02-6.678.039-1.49 1.39-2.644 3.02-2.683 1.79-.04 3.558 0 5.347-.02.497 0 .597.218.537.636-.1.755-.437 1.391-1.073 1.789-.438.278-.617.655-.597 1.152z" fill="#26C7BC"/><path d="M59.638 22.125c.02.537-.437 1.014-.954 1.014-.517 0-1.014-.457-.974-.994.02-.576.378-.894.934-.954.497-.08.974.398.994.934zM8.297 41.922c-.04.537-.497.935-1.054.915-.556-.04-.954-.497-.894-1.054.06-.576.437-.874.994-.874.536-.02.993.497.954 1.014zm35.539 15.742c.02.517-.437 1.034-.954 1.014-.557-.02-.934-.318-.974-.895a.983.983 0 01.914-1.053c.517-.04.994.398 1.014.934zM24.098 6.343a.94.94 0 01-.994.954c-.576-.04-.894-.378-.934-.934-.04-.517.457-.994.974-.994.517-.02.954.437.954.974zm.437 51.341c0 .537-.437.994-.974.994-.516 0-.993-.477-.974-1.014.04-.576.378-.894.955-.954.536-.04.993.418.993.974zM42.862 7.297c-.556 0-.994-.417-.974-.974.02-.576.358-.894.915-.954.517-.06 1.013.437 1.033.954.02.517-.417.974-.974.974z" fill="#F3F6FE"/></svg>