<svg width="60" height="53" fill="none" xmlns="http://www.w3.org/2000/svg"><path d="M15.444 6.873l1.243 6.605H43.37l1.046-8.044-1.439-3.793H17.08l-1.635 5.232zm39.343 23.9l-49.664.415v7.82h16.388l1.082 3.66 10.398.416 4.908-.915v-3.16l16.888-.583v-7.654zM8.7 50.571V46.33h12.312v4.242l-1.58 1.747H10.78L8.7 50.571zm30.448.167v-4.492h11.895l.333 3.66-1.414 2.33h-9.317l-1.498-1.498z" fill="#26C7BC"/><path d="M12.868 52.87c-.553 0-1.09-.034-1.61-.101-2.115-.252-3.156-1.36-3.24-3.49-.016-.504-.016-1.008-.016-1.545v-1.007h-.235c-.218 0-.436 0-.655.017-.235 0-.47.017-.704.017a12.6 12.6 0 01-.89-.034c-.705-.083-1.426-.234-2.064-.486-.806-.302-1.275-.94-1.309-1.745a33.06 33.06 0 01.1-4.112c.085-.906.588-1.61 1.444-1.997.268-.117.42-.537.42-.789.016-1.88.033-3.91 0-5.974-.017-.705.15-1.275.537-1.795.251-.353.486-.722.721-1.108.118-.185.218-.37.353-.554l.184-.285-1.057-.252a67.805 67.805 0 00-1.578-.369l-.218-.05a9.528 9.528 0 01-.738-.185c-1.796-.503-2.417-1.393-2.3-3.256.034-.436.068-.839.118-1.241.067-.588.386-.99.906-1.142.79-.218 1.645-.436 2.45-.453h.588c1.443 0 2.87.067 4.28.202.184.017.352.033.503.033 1.124 0 1.862-.453 2.433-1.476.705-1.293 1.56-2.535 2.4-3.743.201-.285.402-.587.604-.872.268-.386.62-.772 1.074-1.141.37-.303.386-.605.302-.99-.47-2.182-.957-5.069-.57-8.022.117-.856.369-1.762.738-2.635.386-.906 1.14-1.376 2.248-1.376h23.948c1.191 0 2.013.537 2.35 1.56a14.65 14.65 0 01.738 3.66c.15 2.03-.068 4.245-.655 6.779-.1.47.067.705.302 1.007.973 1.174 1.812 2.248 2.55 3.306.605.855 1.159 1.779 1.696 2.668l.268.453c.302.487.655.705 1.225.705h.034c1.023-.017 2.098-.017 3.49-.017h3.793c1.443 0 1.98.47 2.114 1.863.101.89.05 1.795.017 2.467-.05.772-.688 1.107-1.074 1.242-.755.251-1.544.453-2.299.654-.302.084-.587.151-.89.235a26.24 26.24 0 01-.788.201c-.134.034-.268.068-.42.101l-.318.084.184.285c.135.218.269.42.403.621.302.47.604.923.856 1.393.201.37.319.755.319 1.057.033 2.115.017 4.263 0 6.344 0 .402.1.704.57.923 1.125.52 1.36 1.61 1.427 2.617.067.94.067 1.98 0 3.24-.05 1.09-.722 1.862-1.846 2.114-.705.15-1.46.201-2.182.252-.302.016-.587.033-.89.067-.083 0-.167.016-.268.016h-.705l-.016.219-.05 1.057c-.034.772-.051 1.493-.169 2.198-.285 1.813-1.107 2.517-2.92 2.517h-.268c-.235 0-.487-.016-.738-.016-.605 0-1.225.016-1.83.05l-1.577.05h-1.427a15.17 15.17 0 01-1.627-.067c-2.03-.201-3.088-1.326-3.206-3.39-.033-.52-.016-1.04-.016-1.577V46.76h-16.43v.235c0 .168 0 .336.017.503.017.353.017.722-.016 1.075-.017.134-.034.251-.034.386-.084.738-.168 1.51-.37 2.215-.301 1.007-1.073 1.544-2.198 1.577-2.064.05-4.077.084-6.091.118h-.202zm-1.258-1.712h.352l1.56.05c1.159.034 2.35.084 3.525.084.654 0 1.393-.1 2.165-.285.352-.084.906-.47.923-.84.067-.788.05-1.577.05-2.349v-1.091H9.663v1.142a25.49 25.49 0 00.017 1.98c.05.906.47 1.342 1.309 1.342.084 0 .168 0 .252-.016.1 0 .235-.017.369-.017zm30.19.017h.302l1.577.05c1.141.033 2.316.084 3.474.084h.1c.689 0 1.377-.134 2.048-.269l.168-.033c.57-.118.89-.47.89-1.007v-3.222H39.835v1.125c-.017.687-.017 1.325.017 1.996.05.873.47 1.292 1.292 1.292.067 0 .151 0 .235-.016h.42zm-33.882-6.16c3.608.051 7.283.102 10.84.169 6.411.1 13.04.201 19.551.251h1.31c3.574 0 7.215-.117 10.723-.218l1.728-.05c.99-.034 1.997-.218 2.953-.42.168-.033.32-.067.487-.1.302-.067.806-.42.823-.772.067-.856.067-1.78.016-2.92-.033-.739-.386-1.209-.973-1.259-.336-.033-.705-.033-1.158-.033-.285 0-.554 0-.822.016-.269 0-.537.017-.789.017h-.185l-.05.185c-.05.167-.084.335-.117.486-.084.336-.151.655-.269.94-.084.201-.235.453-.47.453-.05 0-.1-.017-.15-.033-.118-.034-.404-.135-.303-.705.034-.218.1-.453.168-.671a2.36 2.36 0 00.084-.32l.084-.301h-1.93l-.017.218c0 .134-.017.252-.017.369 0 .252-.017.487-.05.705-.1.62-.218 1.258-.42 1.846-.033.1-.268.252-.42.268a.894.894 0 01-.25-.369 4.371 4.371 0 01-.051-1.158c.033-.352.117-.721.201-1.09.034-.168.084-.336.118-.504l.067-.285h-9.85l.033.268c.218 2.03-.403 2.954-2.383 3.508a2.676 2.676 0 01-.353.083c-.99.202-2.047.303-3.322.303-.873 0-1.763-.05-2.635-.084a12.926 12.926 0 00-.789-.034c-.37-.017-.755-.034-1.141-.067a47 47 0 00-2.668-.1c-.386 0-.755.016-1.108.033h-.285c-1.527 0-2.484-.705-2.853-2.098a7.424 7.424 0 01-.151-1.09 56.309 56.309 0 00-.05-.521l-.034-.201h-9.515l-.94 1.04-.654-.688.386-.37H8.27v.925c-.016.1-.016.201-.033.302-.017.302-.05.604-.168.822-.084.185-.403.386-.554.386-.134-.017-.386-.235-.537-.52-.067-.117-.05-.336-.05-.554v-.184a4.5 4.5 0 01.05-.638c.017-.1.017-.218.034-.336l.016-.252H5.652c-.335 0-.604.017-.855.034-.303.034-.689.285-.823.57-.671 1.427-.688 2.854-.05 4.263.15.336.654.604.99.604h.067c.47 0 .957-.033 1.427-.067C6.86 45.033 7.33 45 7.8 45a.25.25 0 00.118.017zm14.835-5.067c0 .067 0 .117-.017.168 0 .117-.017.218-.017.319 0 1.325.403 1.728 1.712 1.728h11.361c.99 0 1.426-.403 1.493-1.41a2.867 2.867 0 000-.537v-.486H22.753v.218zm-17.067-1.83h48.65v-6.444H5.686v6.445zM25.303 14.39c-2.13 0-4.665.05-7.266.402-1.493.202-2.45.79-3.188 1.98-1.846 3.005-3.81 6.008-5.706 8.912-.738 1.14-1.477 2.282-2.232 3.44-.067.117-.151.235-.218.369l-.134.218-.219.37h47.24l-.235-.37a15.378 15.378 0 00-.57-.872c-.403-.621-.789-1.226-1.175-1.83-.52-.839-1.024-1.695-1.527-2.534-1.024-1.711-2.08-3.49-3.205-5.185-.84-1.259-1.88-2.417-2.87-3.524l-.302-.386a2.382 2.382 0 00-1.83-.84c-.184 0-.368.017-.57.068-.184.033-.369.05-.637.05h-.621c-1.343-.034-2.685-.05-4.011-.084-2.534-.05-5.152-.117-7.736-.15h-.168c-.923-.034-1.88-.034-2.82-.034zm26.113 9.296c.553.856 1.09 1.679 1.627 2.501.101.168.336.252.504.252.033 0 .067 0 .1-.017 1.226-.302 2.467-.604 3.659-.906l1.04-.269v-2.634h-7.618l.688 1.073zM1.642 25.247l1.191.302c1.158.286 2.249.57 3.356.84a.756.756 0 00.202.016c.1 0 .436-.017.587-.235.537-.789 1.057-1.594 1.611-2.433.151-.235.705-1.108.705-1.108H1.642v2.618zm17.654-12.351h.268c.906.017 1.813.034 2.702.067 1.745.05 3.558.084 5.337.1h2.164c3.357 0 6.73-.033 10.019-.083.839-.017 1.678-.185 2.484-.37l.285-.066c.319-.068.721-.454.738-.772.084-2.048.118-3.894.118-5.656 0-.772-.084-1.594-.235-2.467-.185-1.023-.57-1.191-1.46-1.191h-17.62c-2.3 0-4.062 0-5.723-.017h-.034c-.788 0-1.225.353-1.36 1.057-.033.202-.066.42-.117.621-.15.823-.318 1.678-.302 2.518.017 1.644.151 3.373.386 5.135.101.772.286 1.14 1.04 1.14.152 0 .32-.016.487-.016h.823z" fill="#141C29"/><path d="M17.282 25.936c-.084 0-.185-.034-.285-.05-.017 0-.034 0-.05-.018v-.016c0-.101.016-.252.05-.303a6.908 6.908 0 011.14-1.09l.37-.286c2.517-1.93 5.118-3.926 7.72-5.84.604-.436 1.308-.805 1.98-1.14.15-.068.285-.152.436-.219.084-.05.134-.05.168-.05.117 0 .168.168.184.285-.016.017-.016.05-.033.067-.05.1-.118.202-.185.285-.15.135-.285.286-.42.42-.419.42-.855.856-1.342 1.208-2.802 2.064-5.638 4.078-8.021 5.79-.47.336-1.007.638-1.645.94-.017.017-.034.017-.067.017zm16.412 1.409c-.017 0-.05 0-.1-.084-.068-.134-.034-.453.033-.52a987.251 987.251 0 017.635-6.982c.353-.318.79-.57 1.209-.805.1-.05.184-.084.268-.084.067 0 .151.017.202.084.05.05.067.117.067.185-.017.033-.05.084-.068.134-.083.15-.167.335-.301.47-.185.201-.387.386-.571.587-.705.739-1.443 1.494-2.232 2.165-1.326 1.107-2.702 2.198-4.028 3.255-.587.47-1.191.94-1.779 1.427-.2.134-.302.168-.335.168zm-11.595-.386c-.034-.017-.068-.034-.084-.068 0-.067.033-.15.067-.184l.067-.05c.604-.538 1.225-1.108 1.863-1.612A514.338 514.338 0 0129.6 20.7c.42-.319.94-.62 1.527-.873.017-.016.067-.016.134-.016.168 0 .302.05.336.084.033.067 0 .352-.1.453-.404.486-.79.839-1.175 1.107-2.132 1.46-4.313 2.92-6.411 4.33l-1.427.956a1.285 1.285 0 01-.302.168c-.033.034-.05.034-.083.05zm16.461.637a.517.517 0 01-.1-.067.423.423 0 01.017-.218c.252-.252.487-.52.738-.789.957-1.04 1.93-2.114 3.222-2.802.017 0 .034-.017.101-.017.084 0 .185.017.302.034.034 0 .05.017.084.017v.067c0 .167 0 .352-.05.436a3.08 3.08 0 01-.79.839c-.821.62-1.677 1.242-2.5 1.83l-.637.452c-.084.067-.185.118-.302.185-.05.033-.068.033-.084.033 0 .017 0 .017 0 0zM17.467 21.37a.473.473 0 01-.42-.234.379.379 0 01.017-.42c.655-1.09 1.578-1.896 2.735-2.366a.674.674 0 01.252-.05c.1 0 .185.033.235.1a.47.47 0 01.084.353c-.067.705-2.181 2.618-2.903 2.618zM13.07 35.669h-3.038c-.285 0-.52-.1-.671-.269a.647.647 0 01-.185-.52c.017-.436.37-.738.856-.738.638 0 1.276-.017 1.93-.017.655 0 1.292 0 1.896.017.487 0 .84.319.84.755s-.336.755-.84.772c-.285-.017-.537 0-.788 0zm36.198 0h-3.071c-.504-.017-.856-.302-.856-.739 0-.201.067-.386.201-.52.151-.168.403-.252.672-.252.637 0 1.275-.016 1.913-.016.654 0 1.308 0 1.913.016.486 0 .839.32.822.755 0 .437-.352.756-.84.756-.25-.017-.503 0-.754 0zm-16.43-25.206a.523.523 0 01-.37-.134c-.285-.252-.184-.789.236-1.326a5.55 5.55 0 01.671-.738c.1-.118.218-.219.319-.336l.15-.168-.15-.168c-.067-.084-.151-.15-.218-.235a6.851 6.851 0 01-.487-.52c-.168-.201-.37-.453-.503-.721-.235-.454-.252-.722-.017-.94a.564.564 0 01.403-.185c.15 0 .335.067.52.185.369.252.721.537 1.09.839.168.134.32.268.504.403l.168.134.15-.151c.118-.1.22-.218.337-.336.268-.268.553-.554.855-.772a1.37 1.37 0 01.739-.235c.05 0 .1 0 .15.017.202.05.353.185.42.37.084.217.017.503-.15.738a7.89 7.89 0 01-.857.973 8.984 8.984 0 00-.386.403l-.15.15.134.169c.084.084.167.184.251.268.185.185.353.37.487.57l.05.068c.202.285.42.57.504.856.067.235 0 .587-.084.67-.067.068-.252.135-.453.135-.084 0-.151-.017-.168-.033-.453-.235-.873-.554-1.309-.873l-.554-.403-.15-.117-.135.134a3.93 3.93 0 01-.269.252c-.234.218-.486.47-.755.671-.369.252-.688.386-.973.386zm-2.869.033c-.269 0-.504-.15-.655-.436-.251-.453-.486-.94-.738-1.443-.117-.235-.235-.487-.37-.739l-.217-.42-.219.42c-.117.235-.234.47-.335.688-.235.47-.453.907-.671 1.326-.202.386-.47.588-.772.588a.903.903 0 01-.353-.084c-.436-.219-.503-.638-.218-1.242.218-.437.42-.873.604-1.292.202-.454.42-.923.638-1.377.235-.47.503-.872.789-1.208.201-.218.402-.352.604-.352.268 0 .453.235.554.42a86.993 86.993 0 012.08 4.144.575.575 0 01.017.47c-.067.185-.235.353-.436.453a.487.487 0 01-.302.084zm-8.022-.016c-.134 0-.42-.236-.487-.42-.184-.504-.302-1.091-.369-1.762-.033-.32 0-.655.017-1.007a5.37 5.37 0 00.034-.537l.016-.252h-1.023c-.588-.017-.957-.319-.94-.789.017-.453.352-.738.906-.755h3.558c.587 0 1.04.302 1.057.688.017.403-.403.789-.957.873-.067.016-.15.016-.268.016h-.755v.957c0 .587.017 1.158-.017 1.729-.017.302-.1.604-.252.822-.168.235-.402.436-.52.436zm18.14-.017c-.184-.017-.503-.285-.57-.453-.168-.537-.269-1.074-.37-1.662-.033-.218-.083-.436-.117-.654.05-.202.084-.42.134-.621.118-.57.219-1.108.386-1.628.068-.184.37-.436.487-.436.185.017.504.268.57.47.554 1.51.538 3.037-.016 4.548-.084.2-.403.436-.504.436z" fill="#141C29"/></svg>