<svg width="52" height="68" fill="none" xmlns="http://www.w3.org/2000/svg"><path d="M2.329 10.614c1.896-2.15 4.222-3.538 7.115-3.83.332-.04.37-.216.39-.49.157-2.677 1.545-4.514 3.87-5.726C14.858.098 16.05.02 17.282.02 25.197.04 33.094.08 41.01 0c3.264-.038 5.629 1.193 7.056 4.145.39 1.172.45 2.365.43 3.596-.02 2.756 0 5.492-.02 8.248 0 .332.02.547.43.684 1.446.47 2.13 1.486 2.15 3.01.02.821.04 1.642.04 2.483-.079 1.094.019 2.247-.763 3.186-.45.39-.938.762-1.544.899-.215.039-.352.117-.333.371.02.528-.097 1.095.06 1.583.136.391.742.313 1.113.528 1.056.723 1.466 1.74 1.427 2.99-.039.997-.02 1.994 0 2.971.02.88-.176 1.681-.684 2.385-.47.39-.919.782-1.544.919-.117.02-.313.097-.313.156-.02.606-.098 1.231 0 1.818.059.312.567.254.88.371 1.211.723 1.72 1.818 1.661 3.205-.039.92.02 1.838.02 2.756-.02.235-.02.489-.04.724-.117 1.172-.625 2.15-1.759 2.56-.723.254-.918.626-.82 1.29a2.2 2.2 0 010 .508c-.04.313.097.47.41.567 1.505.547 2.17 1.505 2.19 3.088v3.44c-.02 1.525-.724 2.522-2.15 3.03-.235.078-.392.156-.45.469-.724 4.007-3.108 5.98-7.174 5.98h-19.74c-.294 0-.587.02-.88.04-.626-.02-1.27-.04-1.896-.04-1.017 0-2.013.08-3.01-.019-2.248-.215-3.929-1.407-5.14-3.283-.685-1.33-.822-2.776-.822-4.242.02-8.717.02-17.454 0-26.171 0-.313-.02-.626-.039-.938.02-.548.059-1.095.04-1.642-.02-.547.156-.938.742-1.036.704.176.743.723.743 1.329v27.5c0 .685-.04 1.369-.02 2.053.078 2.873 2.229 5.003 5.102 5.023 8.502.02 17.004.02 25.526 0 2.541 0 4.496-1.7 5.023-4.163.118-.547.02-.704-.566-.704-2.952.04-5.903-.039-8.855.04-1.778.038-3.01-.587-3.655-2.268 0-1.466-.02-2.932-.02-4.378 0-1.935 1.213-3.147 3.128-3.147h8.991c1.173 0 .977.156 1.056-1.056.039-.723-.196-.899-.9-.879-2.95.04-5.902 0-8.854.02-2.443.02-3.577-1.662-3.46-3.421a18.89 18.89 0 000-2.99c-.156-1.955 1.193-3.519 3.48-3.48 2.932.04 5.844.02 8.776 0 .938 0 .938 0 .938-.957 0-.079-.02-.157 0-.215.098-.626-.176-.763-.762-.763-3.128.02-6.235.02-9.363.02-1.798 0-3.03-1.231-3.03-3.03-.019-1.172 0-2.345 0-3.518 0-2.072 1.174-3.264 3.265-3.264h8.776c1.29 0 1.095.195 1.153-1.114.04-.625-.137-.84-.801-.82-3.05.038-6.098.019-9.128.019-2.013-.02-3.225-1.251-3.245-3.245 0-1.114.06-2.248-.02-3.362-.116-1.622 1.232-3.264 3.167-3.205 3.108.098 6.235.02 9.363.039.508 0 .684-.157.664-.665-.039-.664-.02-1.31-.02-1.974 0-2.521.04-5.062 0-7.584-.038-2.208-1.641-4.182-3.791-4.69-1.525-.352-3.088-.157-4.652-.137-.137 0-.293-.02-.43-.02H20.33c-.195 0-.39.04-.586.04-1.388-.118-2.775-.157-4.144 0-2.325.273-4.221 2.403-4.3 4.651-.02.371.04.547.489.586 1.349.137 2.6.548 3.792 1.193 1.329.645 2.287 1.74 3.323 2.736.684 1.036 1.231 2.15 1.759 3.264.156 1.134.488 2.229.469 3.382-.02.41.332.351.586.351.958 0 1.896.02 2.854 0 .508 0 .82.255.782.743-.02.528-.41.723-.919.723h-3.069c-.88 0-.567.802-.703 1.212-.157.489.41.254.606.254 2.795.02 5.61.02 8.404.02.567 0 1.095.117 1.075.782-.02.645-.547.703-1.075.684-2.892 0-5.805.02-8.698-.02-.762-.02-1.31.137-1.602.88-.059.176-.333.293-.215.508.117.235.39.117.606.117h6.645c.977 0 1.427.235 1.427.762 0 .567-.43.802-1.466.802h-8.248c-.313 0-.626-.02-.9.215-1.915 1.622-4.163 2.345-6.645 2.463-.176-.02-.332-.04-.508-.04-2.756-.195-5.16-1.23-7.134-3.185-.802-.802-1.368-1.818-1.935-2.795-1.212-2.835-1.368-5.688-.215-8.58.39-1.076.958-1.916 1.544-2.757zm-.86 6.626c0 5.004 4.046 9.089 9.03 9.128 4.984.02 9.147-4.124 9.128-9.108 0-4.985-4.085-9.05-9.089-9.05-4.984-.02-9.05 4.026-9.07 9.03zm40.987 36.062h-5.473c-1.055 0-1.622.586-1.642 1.622-.02 1.153 0 2.287 0 3.44 0 1.25.548 1.798 1.78 1.798h10.75c1.172 0 1.739-.567 1.758-1.74.02-1.113.02-2.247 0-3.361-.02-1.193-.567-1.74-1.74-1.76h-5.433zm-.04-16.673h5.474c1.114 0 1.68-.547 1.7-1.642.02-1.192.02-2.384 0-3.576-.02-1.075-.586-1.642-1.642-1.642-3.655-.02-7.31-.02-10.965 0-1.094 0-1.661.586-1.661 1.68-.02 1.154 0 2.288 0 3.44 0 1.193.547 1.74 1.74 1.74h5.355zm.06-18.607h-5.473c-1.114 0-1.662.547-1.662 1.661-.02 1.114 0 2.248 0 3.362 0 1.251.509 1.818 1.74 1.818 3.596.02 7.212.02 10.809 0 1.153 0 1.7-.567 1.72-1.72a98.62 98.62 0 000-3.44c-.02-1.173-.548-1.681-1.72-1.681h-5.414zm-.02 30.354h5.473c1.075 0 1.642-.527 1.661-1.583.04-1.212.04-2.443 0-3.655-.02-1.036-.567-1.564-1.603-1.583-3.674-.02-7.349-.02-11.023 0-1.114 0-1.623.567-1.623 1.7v3.206c0 1.427.47 1.896 1.857 1.896 1.76.02 3.499.02 5.258.02z" fill="#141C29"/><path d="M10.576 30.609v-2.737c2.463-.136 4.73-.84 6.646-2.462.273-.235.586-.215.899-.215h8.248c1.036 0 1.466-.235 1.466-.802 0-.508-.45-.742-1.427-.762h-6.645c-.196 0-.47.117-.606-.117-.118-.196.156-.332.215-.508.293-.743.82-.9 1.602-.88 2.893.059 5.805.02 8.698.02.528 0 1.056-.059 1.075-.684.02-.665-.508-.782-1.075-.782-2.795 0-5.61.02-8.404-.02-.196 0-.763.235-.606-.254.137-.41-.176-1.212.703-1.212h3.069c.508 0 .9-.215.919-.723.02-.488-.274-.743-.782-.743-.958.02-1.896 0-2.854 0-.254 0-.586.078-.586-.352.039-1.153-.293-2.247-.47-3.38.313-.02.626-.04.939-.04 8.463 0 16.926-.02 25.39-.02 0 .665-.02 1.31.02 1.975.038.508-.157.664-.665.664-3.128-.02-6.235.059-9.363-.039-1.935-.059-3.283 1.583-3.166 3.206.078 1.114.02 2.247.02 3.361 0 1.994 1.23 3.245 3.244 3.245 3.05.02 6.098.02 9.128-.02.664 0 .82.196.801.821-.059 1.29.137 1.095-1.153 1.114H37.08c-2.072 0-3.245 1.173-3.264 3.265v3.518c.02 1.798 1.25 3.03 3.03 3.03 3.127 0 6.235.019 9.362-.02.606 0 .88.137.762.762-.02.078 0 .137 0 .215 0 .958 0 .958-.938.958-2.932 0-5.844.039-8.776 0-2.287-.04-3.616 1.524-3.48 3.479a19.09 19.09 0 010 2.99c-.136 1.76.998 3.44 3.46 3.42 2.952-.019 5.903.02 8.855-.019.703 0 .938.176.899.88-.079 1.212.117 1.055-1.056 1.055h-8.99c-1.916 0-3.128 1.212-3.128 3.147 0 1.466.02 2.932.02 4.378-.313.02-.626.04-.939.04H11.28V31.86c.039-.528 0-1.075-.704-1.251zm12.529 25.37H16.38c-.508 0-.957.137-.957.743-.02.625.449.742.938.782h13.095c.176 0 .352.02.508-.02.45-.059.821-.273.802-.782-.02-.469-.352-.664-.782-.723-.176-.02-.332 0-.508 0h-6.372zm.02-23.572h-6.353c-.586 0-1.231-.058-1.348.762-.079.548.39.802 1.368.802h12.646c.273 0 .527.02.801-.078.332-.137.528-.372.528-.724a.671.671 0 00-.547-.684 3.034 3.034 0 00-.724-.078h-6.372zm-.098 16.223h6.704c.508 0 .997-.059 1.016-.665.02-.606-.45-.801-.997-.801H16.4c-.527 0-.937.195-.957.762-.02.645.45.704.958.704h6.626zm-1.388-2.932h5.18c.527 0 .977-.156.996-.723.02-.606-.469-.762-1.016-.762h-10.36c-.527 0-1.015.058-1.015.742.019.684.527.724 1.035.724 1.74.02 3.46.02 5.18.02zm-1.446-10.242h-3.714c-.508 0-1.036 0-1.036.704 0 .645.47.762 1.016.762h7.447c.547 0 1.036-.156 1.017-.762-.02-.567-.47-.723-.997-.704h-3.733zm-.372 5.825h-3.498c-.49 0-.9.117-.88.703.02.528.39.763.88.763h2.325c1.525 0 3.07.02 4.594 0 .508 0 .957-.196.938-.782-.02-.547-.43-.684-.938-.684-1.134.02-2.287 0-3.42 0zm-1.505 13.193h2.111c.489 0 .821-.234.821-.743 0-.45-.313-.723-.762-.723a154.09 154.09 0 00-4.3 0c-.43 0-.762.215-.762.704 0 .508.293.742.781.762h2.111zm-.02-23.552h2.112c.488 0 .84-.215.84-.704s-.332-.743-.82-.743c-1.408-.02-2.835-.02-4.242 0-.47 0-.802.215-.782.762.02.528.352.704.82.704.704-.02 1.389-.02 2.073-.02zm5.317 21.617c-.078-.43-.332-.723-.782-.704-.469.02-.703.333-.664.782.039.43.293.665.723.645.45.02.664-.273.723-.723zm-.762-24.256c-.45.098-.743.293-.704.782.04.43.274.664.704.664.45 0 .742-.273.742-.723-.019-.43-.312-.664-.742-.723zm4.847-11.004c-.078-.43-.254-.723-.743-.704-.43.02-.684.215-.703.665-.02.45.254.762.684.762.41 0 .723-.254.762-.723zm-1.896 22.83c-.43.019-.684.214-.703.644-.02.489.293.743.703.762.45.02.723-.312.704-.762-.02-.371-.254-.664-.704-.645z" fill="#26C7BC"/><path d="M47.01 13.956c-8.463 0-16.927 0-25.39.02-.313 0-.625.019-.938.039-.528-1.134-1.075-2.229-1.76-3.264h6.197c1.759 0 1.759 0 1.74-1.78 0-.957-.196-1.152-1.154-1.152h-8.62c-.508 0-1.016.02-1.504.195-1.193-.645-2.444-1.075-3.792-1.192-.45-.04-.508-.215-.489-.587.078-2.247 1.994-4.378 4.3-4.651 1.368-.157 2.776-.118 4.144 0 .234.566.45 1.133.684 1.68.547 1.251 1.524 1.877 2.873 1.896 3.89.02 7.799.02 11.688 0 1.154 0 2.092-.469 2.639-1.524.352-.665.606-1.368.9-2.072 1.543-.02 3.107-.234 4.65.137 2.17.508 3.773 2.482 3.793 4.69.078 2.503.039 5.024.039 7.565zm-6.51-3.205h1.447c.742-.06 1.035-.626.605-1.212a25.952 25.952 0 00-1.465-1.818c-.352-.391-.782-.45-1.134-.059a25.02 25.02 0 00-1.564 1.935c-.39.567-.078 1.114.626 1.154.508.019.997 0 1.485 0zm-11.16 0c.39-.06.703-.294.684-.743-.02-.43-.313-.723-.762-.704-.391.02-.665.254-.685.704 0 .469.274.703.763.743zm3.049-.704c-.04-.45-.274-.743-.723-.743-.45 0-.724.293-.704.743.02.39.254.684.684.684.47.02.704-.235.743-.684zM11.32 59.42h21.617c.313 0 .626-.02.939-.04.645 1.682 1.876 2.307 3.655 2.268 2.951-.078 5.902 0 8.854-.039.586 0 .684.156.567.704-.528 2.482-2.483 4.163-5.024 4.163-8.502.02-17.004.02-25.526 0-2.893 0-5.023-2.15-5.102-5.023-.02-.665.02-1.349.02-2.033z" fill="#FEFEFE"/><path d="M1.469 17.24c.02-5.004 4.085-9.05 9.069-9.05 5.004 0 9.07 4.066 9.089 9.05 0 4.984-4.164 9.147-9.128 9.108-4.984-.02-9.03-4.104-9.03-9.108zm6.665 2.99c0 .685-.02 1.369 0 2.053.02.801.371 1.153 1.173 1.172.781.02 1.563 0 2.345 0 .938 0 1.27-.332 1.27-1.27 0-1.29.02-2.58 0-3.87 0-.43.118-.625.567-.586.508.039 1.017.02 1.544 0 .43-.02.821-.157.997-.606.196-.45.02-.802-.293-1.114a483.599 483.599 0 00-4.456-4.555c-.47-.469-.997-.469-1.466.02a477.53 477.53 0 00-4.418 4.476c-.332.332-.527.704-.312 1.192.195.47.625.587 1.075.587.508.02 1.016.02 1.544 0 .352-.02.469.137.469.469-.04.664-.04 1.348-.04 2.032z" fill="#FEFEFE"/><path d="M42.457 53.302h5.414c1.193 0 1.74.547 1.74 1.759a94.2 94.2 0 010 3.362c-.02 1.192-.567 1.74-1.76 1.74h-10.75c-1.23 0-1.778-.548-1.778-1.799 0-1.153-.02-2.287 0-3.44.02-1.056.587-1.622 1.642-1.622 1.837-.02 3.655 0 5.492 0zm-2.404 4.847h1.603c.508 0 .84-.274.782-.743-.078-.703.41-1.544-.47-2.052-.078-.04-.195-.04-.293-.04h-3.283c-.45 0-.802.255-.743.705.098.703-.45 1.583.489 2.09.117.06.293.04.43.04h1.485zm5.962-2.19c-.372.02-.802 0-1.193.079-.371.059-.586.332-.567.723.02.372.215.587.567.645a7.73 7.73 0 002.326 0c.391-.058.606-.293.606-.684 0-.41-.234-.645-.606-.703-.352-.06-.723-.04-1.133-.06zM42.416 36.63H37.08c-1.192 0-1.74-.548-1.74-1.74 0-1.154-.019-2.287 0-3.44.02-1.095.567-1.681 1.662-1.681 3.655-.02 7.31-.02 10.965 0 1.056 0 1.623.566 1.642 1.641.02 1.193.02 2.385 0 3.577-.02 1.095-.606 1.642-1.7 1.642h-5.493zm-2.365-2.014h1.603c.547 0 .86-.313.801-.821-.078-.684.43-1.564-.547-1.994-.059-.02-.137-.02-.215-.02-1.094 0-2.19-.019-3.284 0-.723.02-.82.529-.742 1.076.097.625-.45 1.563.723 1.759.137.02.293 0 .43.02.41-.02.82-.02 1.231-.02zm7.701-1.427c0-.82-1.27-.625-1.25-1.524 0-.157-.294-.255-.49-.255-.84.02-.684 1.27-1.583 1.29-.156 0-.215.294-.195.509 0 .82 1.29.586 1.231 1.485 0 .137.293.254.489.254.82-.02.704-1.231 1.544-1.25.176 0 .254-.294.254-.509zm-5.278-15.167h5.414c1.173 0 1.7.528 1.72 1.681a98.62 98.62 0 010 3.44c-.02 1.154-.547 1.7-1.72 1.72-3.596.02-7.212.02-10.809 0-1.231 0-1.74-.566-1.74-1.817v-3.362c.02-1.114.548-1.642 1.662-1.662 1.818-.02 3.655 0 5.473 0zm-2.443 1.935h-.43c-2.19-.078-1.935.196-1.935 2.053 0 .566.293.86.86.86.703 0 1.407-.02 2.11 0 1.975.078 1.857-.176 1.857-2.014 0-.586-.332-.899-.918-.899H40.03zm7.72 1.486c-.039-.84-1.27-.704-1.31-1.583 0-.137-.292-.235-.507-.215-.802.078-.606 1.31-1.505 1.29-.118 0-.196.254-.196.43-.02.88 1.33.645 1.29 1.583 0 .117.313.195.508.195.821-.039.587-1.329 1.505-1.27.118.039.215-.235.215-.43z" fill="#FBFBFD"/><path d="M42.454 48.376h-5.257c-1.388 0-1.857-.488-1.857-1.896v-3.205c0-1.134.528-1.7 1.622-1.7 3.675-.02 7.35-.02 11.024 0 1.036 0 1.583.546 1.603 1.582a57.104 57.104 0 010 3.655c-.02 1.056-.587 1.584-1.662 1.584-1.818-.02-3.655-.02-5.473-.02zM40.05 43.51h-.508c-1.935 0-1.974.04-1.896 2.013.02.606.293.9.88.9h3.049c.547 0 .918-.294.86-.84-.078-.705.43-1.623-.587-2.053-.117-.059-.293-.02-.43-.02H40.05zm7.701 1.427v-.078c-.097-.762-1.29-.567-1.25-1.447 0-.058-.235-.175-.372-.195-.958-.156-.762 1.27-1.661 1.251-.157 0-.235.352-.215.567.097.742 1.25.586 1.25 1.446 0 .117.255.196.43.215.9.059.704-1.29 1.603-1.27.137.02.215-.274.215-.489z" fill="#FEFEFE"/><path d="M38.566 1.545c-.293.684-.547 1.407-.899 2.072-.547 1.036-1.505 1.524-2.638 1.524-3.89.02-7.799.02-11.689 0-1.348 0-2.325-.645-2.873-1.896-.254-.547-.469-1.114-.684-1.68.196-.02.391-.04.587-.04h17.786c.117 0 .254 0 .41.02zm-22.984 6.47c.489-.176.997-.196 1.505-.196h8.62c.957 0 1.153.176 1.153 1.154.02 1.778.02 1.778-1.74 1.778h-6.196c-1.055-1.016-2.013-2.091-3.342-2.736z" fill="#26C7BC"/><path d="M23.106 55.98h6.352c.176 0 .352-.02.508 0 .43.058.763.254.782.723.02.508-.332.723-.801.781-.176.02-.332.02-.508.02H16.344c-.49-.04-.959-.156-.94-.782.02-.606.45-.743.959-.743h6.743z" fill="#FBFBFD"/><path d="M23.126 32.408h6.352c.235 0 .489.02.723.078a.671.671 0 01.548.684c0 .333-.196.587-.528.724-.254.097-.528.078-.801.078H16.774c-.978 0-1.427-.254-1.369-.802.098-.82.763-.762 1.35-.762h6.371zm-.098 16.222h-6.646c-.508 0-.977-.059-.958-.704.02-.567.43-.762.958-.762h13.35c.547 0 1.016.195.997.801-.02.606-.489.665-1.017.665h-6.684zm-1.388-2.932h-5.18c-.508 0-1.036-.039-1.036-.723-.02-.684.489-.743 1.017-.743H26.8c.547 0 1.036.157 1.016.763-.02.567-.469.723-.996.723-1.72-.04-3.44-.02-5.18-.02zm-1.447-10.241c1.231 0 2.482.02 3.714 0 .527 0 .977.156.996.704.02.606-.469.762-1.016.762H16.44c-.547 0-.997-.117-1.016-.762 0-.684.508-.704 1.036-.704h3.733zm-.37 5.824c1.134 0 2.287.02 3.42 0 .509 0 .9.137.939.684.02.587-.43.782-.938.782-1.525.02-3.069 0-4.593 0h-2.326c-.509 0-.86-.234-.88-.762-.02-.587.39-.704.88-.704h3.498z" fill="#141C29"/><path d="M18.317 54.475h-2.111c-.489 0-.782-.235-.782-.763 0-.488.332-.703.762-.703 1.427-.02 2.873-.02 4.3 0 .45 0 .762.273.762.723 0 .489-.332.723-.82.743h-2.111z" fill="#FBFBFD"/><path d="M18.298 30.922h-2.052c-.49 0-.802-.176-.821-.704-.02-.547.312-.742.781-.762 1.408-.02 2.835-.02 4.242 0 .469 0 .82.254.82.743 0 .508-.351.703-.84.703-.723.02-1.427.02-2.13.02z" fill="#141C29"/><path d="M23.615 52.54c-.059.43-.274.722-.723.742-.43.02-.685-.235-.724-.645-.039-.45.196-.762.665-.782.45-.039.684.254.782.684z" fill="#FBFBFD"/><path d="M22.85 28.283c.411.059.724.293.743.723.02.45-.273.724-.742.724-.43 0-.665-.235-.704-.665-.04-.47.254-.684.704-.782zm4.848-11.004c-.058.45-.352.723-.762.704-.43 0-.704-.313-.684-.763.02-.43.274-.645.704-.664.488 0 .664.312.742.723zm-1.896 22.829c.45-.02.704.255.724.665.019.43-.274.762-.704.762-.41-.02-.723-.273-.704-.762-.02-.45.254-.645.684-.665z" fill="#141C29"/><path d="M40.502 10.751c-.489 0-.978.02-1.466 0-.704-.039-1.036-.586-.626-1.153.47-.665 1.017-1.31 1.564-1.935.352-.41.801-.352 1.134.059a25.924 25.924 0 011.466 1.817c.43.587.136 1.154-.606 1.212H40.5zm-11.161-.001c-.488-.039-.742-.274-.742-.743 0-.45.273-.684.684-.703.45-.02.742.254.762.703-.02.45-.313.684-.704.743zm3.049-.703c-.059.45-.294.704-.763.684-.43 0-.664-.293-.684-.684-.02-.45.274-.742.704-.742.469 0 .704.293.743.742zM8.135 20.23c0-.684-.02-1.368 0-2.052 0-.332-.118-.488-.47-.469-.508.02-1.016.02-1.544 0-.45 0-.88-.117-1.075-.586-.195-.47-.02-.84.313-1.193 1.466-1.485 2.932-2.99 4.417-4.476.47-.469.997-.488 1.466-.019 1.525 1.524 3.01 3.03 4.515 4.554.313.313.49.665.294 1.114-.196.45-.567.587-.997.606-.508.02-1.017.04-1.544 0-.45-.02-.587.157-.567.587.02 1.29.02 2.58 0 3.87 0 .938-.332 1.27-1.27 1.27-.782 0-1.564.02-2.346 0-.801-.02-1.153-.371-1.173-1.173-.02-.664-.02-1.348-.02-2.033zm31.916 37.919h-1.465c-.137 0-.313.02-.43-.04-.939-.508-.391-1.387-.49-2.09-.058-.47.275-.704.744-.704h3.283c.098 0 .215 0 .294.038.88.509.41 1.35.469 2.053.039.469-.294.743-.782.743H40.05zm5.962-2.189c.391.02.763 0 1.114.059.372.058.606.293.606.703 0 .391-.234.645-.606.684a7.73 7.73 0 01-2.326 0c-.351-.058-.547-.293-.566-.645-.02-.41.195-.664.566-.723.43-.078.84-.058 1.212-.078zm-5.96-21.344h-1.231c-.137 0-.294.02-.43-.02-1.173-.195-.626-1.133-.724-1.758-.078-.548.02-1.056.743-1.075 1.095-.02 2.19 0 3.284 0 .078 0 .156 0 .215.02.977.43.469 1.309.547 1.993.059.508-.254.82-.801.82-.528.02-1.056.02-1.603.02zm7.699-1.427c0 .215-.079.488-.235.508-.86.04-.723 1.231-1.544 1.25-.195 0-.489-.097-.489-.253.059-.9-1.231-.665-1.231-1.486 0-.215.059-.508.195-.508.88-.02.724-1.27 1.584-1.29.195 0 .488.098.488.254-.039.9 1.232.704 1.232 1.525zm-7.719-13.232h1.525c.586.02.899.313.918.9.02 1.836.137 2.07-1.856 2.012-.704-.02-1.408 0-2.111 0-.567 0-.86-.293-.86-.86 0-1.857-.254-2.13 1.935-2.052.156.02.293 0 .45 0zm7.72 1.485c-.02.195-.098.45-.215.45-.919-.06-.684 1.25-1.505 1.27-.215 0-.508-.059-.508-.196.058-.938-1.31-.684-1.29-1.583 0-.176.078-.43.195-.43.9.02.704-1.231 1.505-1.29.215-.02.508.059.508.215.059.86 1.29.723 1.31 1.564zM40.052 43.51h1.387c.137 0 .313-.02.43.02 1.036.43.508 1.328.587 2.052.058.547-.313.84-.86.84h-3.05c-.605 0-.86-.293-.879-.899-.078-1.974-.059-2.013 1.896-2.013h.489zm7.7 1.427c.02.215-.079.508-.215.508-.9-.02-.704 1.33-1.603 1.27-.176-.019-.43-.097-.43-.214-.02-.86-1.153-.704-1.251-1.447-.04-.234.04-.586.215-.567.919.02.704-1.407 1.661-1.25.137.02.372.136.372.195-.04.9 1.172.684 1.25 1.446v.06z" fill="#26C7BC"/></svg>