<svg width="72" height="50" fill="none" xmlns="http://www.w3.org/2000/svg"><path d="M57.9 22.4c1.242-.787 3.271-.683 4.431.228 1.305 1.035 1.263 2.733-.207 3.582-.725.415-.58.994-.58 1.574 0 .29.249.27.456.31.683.125 1.367.25 2.03.373 1.884.353 3.375 1.347 4.596 2.775 1.18 1.657 1.616 3.52 1.512 5.53-.02.455.02.766.58.87.518.124.953.558.994 1.076.103 1.553.27 3.127-.124 4.66-.477.62-1.098.849-1.885.849-2.195-.042-4.39 0-6.564-.021-.539 0-.787.124-.974.662-1.263 3.707-5.073 5.82-8.863 4.93-2.754-.643-4.576-2.382-5.508-5.012-.124-.332-.187-.6-.642-.58-2.071.041-4.121.02-6.192.041-5.53 0-11.038-.02-16.567-.041-.476 0-.58.228-.704.6-.745 2.175-2.174 3.707-4.286 4.618-1.823.767-3.666.704-5.53.166-.207-.083-.434-.145-.62-.27-.456-.29-.891-.6-.456-1.221.414-.393.87-.331 1.346-.145 2.153.87 4.183.58 6.067-.787 2.03-1.49 2.837-4.328 1.926-6.875-.87-2.402-3.21-3.997-5.757-3.914-4.328.145-7.02 4.349-5.446 8.366.207.518.207.953-.186 1.346-.912.249-1.222-.372-1.388-1.056-.166-.683-.497-.849-1.18-.828-1.947.062-3.914 0-5.86.02-.54 0-1.015-.082-1.492-.33-.497-.477-.683-1.057-.662-1.74.041-.974 0-1.968.02-2.94 0-.746.373-1.306 1.056-1.554.435-.145.497-.373.497-.766v-7.29c0-1.946 1.14-3.064 3.065-3.085 1.553-.02 3.107 0 4.639 0 .31 0 .6.041.745-.373.953-2.506 1.906-4.99 2.858-7.496.228-.497.725-.953.352-1.533-.994-1.553-1.843-3.168-2.671-4.825-.414-1.304-.911-2.568-.85-3.976.167-3.458 1.865-5.943 4.909-7.558.186-.062.393-.145.58-.207 5.3-1.947 10.871 1.45 11.472 7.04.083.663.373.477.745.373 3.562-.932 7.166.994 8.325 4.473.145.456.249.932.394 1.408-.062.787-.104 1.574-.166 2.34-.041.083-.103.166-.145.27-1.346 3.893-4.68 5.694-8.677 4.7-.724-.207-1.325-.662-2.008-.952-.787-.808-1.636-1.553-2.092-2.61-.29.125-.373.353-.497.539-.89 1.305-1.843 2.547-2.816 3.769-1.098 1.367-1.864 1.367-2.94.02a45.65 45.65 0 00-.954-1.118c-.414-.58-.848-1.18-1.325-1.843-1.097 2.796-2.153 5.447-3.147 8.097-.27.725-.663 1.077-1.47 1.056-1.388-.062-2.776-.02-4.163-.02-2.568 0-2.65.083-2.568 2.65v4.183c0 .643.02 1.284-.02 1.926-.042.56.186.705.703.684 1.988-.02 3.976-.02 5.964 0 .518 0 .85-.166 1.222-.518 2.982-2.982 7.724-2.961 10.706.083.332.331.642.435 1.077.435h25.471c.456 0 .767-.124 1.098-.435 3.127-3.065 7.703-3.086 10.81-.02.352.33.683.476 1.16.476 1.801-.021 3.623 0 5.425 0 1.615 0 1.615 0 1.595-1.636.082-1.222-.249-2.32-.953-3.314-.331-.559-.787-1.015-1.284-1.429-1.139-.932-2.506-1.139-3.872-1.387-.622-.124-.912-.083-1.119.58-.248.766-.87 1.2-1.677 1.325-.518.083-1.035.041-1.139-.6-.103-.601.331-.829.808-.912.352-.062.62-.248.62-.58 0-.372-.413-.33-.641-.372a246.26 246.26 0 00-5.633-.953c-.725-.124-1.346-.31-1.822-.994-2.278-3.355-4.639-6.627-6.896-10.002-1.18-1.78-2.671-2.837-4.866-2.65-.58.04-1.015-.187-1.18-.788.123-.6.517-.849 1.117-.807.415.02.829.02 1.222.02 2.009.249 3.541 1.264 4.68 2.941 2.299 3.355 4.639 6.689 6.958 10.044.187.269.332.58.725.62 1.201.167 2.36.498 3.583.58.683.25 1.408.29 2.112.415.207.041.58.352.663-.186.082-.497-.228-.518-.6-.539-.788-.041-1.492-.228-1.74-1.118 0-.31-.021-.621 0-.911.103-.85-.166-1.72.29-2.506zM11.492 8.505c.02.372 0 .807.124 1.242 1.18 4.287 3.852 7.704 6.503 11.141.269.352.435.207.642-.062 1.16-1.429 2.195-2.92 3.25-4.41.374-.54.519-1.078.498-1.72-.041-1.905.56-3.603 1.988-4.845.89-.787.932-1.678.745-2.63-.6-3.086-3.396-6.068-7.91-5.57-3.19.31-5.84 3.375-5.84 6.854zm17.892 11.39c2.92 0 5.343-2.403 5.343-5.302 0-2.92-2.423-5.322-5.322-5.322-2.92 0-5.322 2.402-5.322 5.322-.02 2.9 2.381 5.301 5.301 5.301zM23.337 39.09c.414 1.139.746 2.133.725 3.21-.02.393.207.393.497.393h22.303c.393 0 .56-.103.56-.518 0-.807.103-1.615.455-2.34.331-.724.082-.766-.56-.766-7.703.02-15.386.02-23.09.02h-.89zm25.658 3.355c0 3.354 2.63 5.943 5.985 5.984 2.92.042 6.046-2.174 6.046-6.026 0-3.396-2.485-6.005-6.046-6.026-3.5-.02-6.13 2.9-5.985 6.068zm12.818-3.355a7.757 7.757 0 01.767 3.23c.02.332.186.373.434.352h6.73c.373 0 .498-.103.498-.476-.021-.87-.021-1.76 0-2.63 0-.373-.125-.497-.477-.497-2.609.02-5.197.02-7.952.02zm-52.226 0H2.153c-.352 0-.435.145-.435.456.02.91.02 1.801 0 2.712 0 .352.145.435.455.435h6.275c.207 0 .414.02.414-.31-.02-1.14.331-2.175.725-3.293zm49.617-14.579c.041.27-.29.911.621.87.994-.042 1.885-.476 1.864-1.015-.02-.497-.89-.89-1.843-.952-.787-.042-.663.455-.642 1.097z" fill="#141C29"/><path d="M29.46 17.883c-.259-.015-.533-.137-.533-.365-.015-.578-.365-.517-.76-.517-.503-.016-.777-.472-.518-.853.152-.228.396-.258.654-.274.244-.015.64.152.564-.35-.046-.32.273-.791-.457-.837-.837-.06-1.461-.898-1.446-1.704.015-.837.655-1.553 1.507-1.675.243-.03.426-.03.426-.365 0-.32.244-.517.563-.517.29 0 .533.198.533.487 0 .426.243.396.517.38.426-.03.807.046.807.563 0 .503-.396.579-.807.579-.213 0-.563-.107-.472.32.077.304-.32.79.411.867.868.091 1.477.867 1.477 1.69 0 .851-.64 1.582-1.522 1.704-.274.03-.38.106-.396.396-.046.274-.274.44-.548.471zm.502-2.602c.153.167-.197.578.274.578.335 0 .503-.243.503-.563 0-.32-.198-.548-.518-.563-.426-.015-.122.365-.259.548zm-1.08-2.268c-.137-.182.182-.548-.229-.578-.365-.03-.547.243-.547.578 0 .305.197.548.517.548.441 0 .137-.365.259-.548z" fill="#141C29"/><path d="M36.301 13.848c.87 0 1.74-.02 2.61-.02.166.6.6.828 1.18.786 2.216-.166 3.686.87 4.867 2.65 2.236 3.376 4.618 6.648 6.895 10.003.456.683 1.098.87 1.823.994 1.884.31 3.748.621 5.633.952.248.042.662-.02.642.373 0 .332-.27.518-.622.58-.497.083-.932.31-.807.911.124.642.642.684 1.139.6.807-.123 1.428-.558 1.677-1.325.207-.662.497-.704 1.118-.58 1.367.25 2.734.477 3.873 1.388.497.414.952.87 1.284 1.429-2.154 0-2.071-.145-2.05 2.133v.145c-.042.704.269 1.056.993 1.035.663-.02 1.326 0 2.01 0 0 1.636 0 1.636-1.595 1.636-1.802 0-3.624-.02-5.426 0-.476 0-.808-.124-1.16-.476-3.085-3.065-7.682-3.044-10.81.02-.33.311-.641.435-1.097.435-8.49-.02-16.98 0-25.471 0-.435 0-.766-.103-1.077-.434-3.003-3.024-7.745-3.044-10.768-.042-.352.352-.705.539-1.222.518-1.988-.02-3.976-.02-5.964 0-.539 0-.746-.124-.704-.683.041-.642.02-1.284.02-1.926h2.382c.6 0 1.18 0 1.78.02.622.021.912-.269.933-.849.02-.787.02-1.594 0-2.381-.021-.621-.332-.994-1.036-.973-.559.02-1.139.02-1.698.02h-2.36c-.083-2.568.02-2.65 2.567-2.65 1.388 0 2.775-.042 4.163.02.807.042 1.2-.331 1.47-1.056 1.015-2.671 2.07-5.322 3.148-8.097.476.663.89 1.263 1.325 1.843l-1.864 4.66c-.414 1.056-.145 1.428.973 1.428h8.884c1.14 0 1.264-.144 1.264-1.304.02-1.802.02-3.603.041-5.405.683.31 1.284.745 2.009.953-.021 1.553-.042 3.085-.042 4.638 0 .974.145 1.119 1.118 1.119h11.825c1.615 0 3.251-.021 4.867-.042.91 0 1.801.042 2.712.02.85-.02 1.201-.579.704-1.283-1.118-1.595-2.153-3.272-3.396-4.784-.58-1.097-1.387-2.03-2.05-3.065-.683-1.076-1.677-1.532-2.92-1.532-1.346 0-2.671-.02-4.017-.02.124-.808.165-1.595.227-2.382zm-6.336 16.525c.538 0 1.077.02 1.615 0 .518-.02.932-.248.911-.828-.02-.518-.414-.746-.911-.766a80.83 80.83 0 00-3.168 0c-.477 0-.89.207-.912.745-.02.56.373.828.912.85.517.02 1.035 0 1.553 0zm16.11 3.686c0-.02 0-.02 0 0-.248 0-.517-.02-.765 0-.58.02-.89.352-.912.932 0 .58.29.932.891.953.56.02 1.139.02 1.698-.021.518-.062.725-.456.725-.953 0-.497-.249-.849-.766-.91-.311-.042-.6 0-.87 0z" fill="#26C7BC"/><path d="M11.491 8.504c0-3.479 2.65-6.544 5.86-6.896 4.515-.497 7.29 2.485 7.911 5.57.187.974.166 1.844-.745 2.63-1.408 1.243-2.03 2.962-1.988 4.847.02.662-.125 1.2-.497 1.718-1.056 1.491-2.092 3.003-3.252 4.411-.227.27-.372.414-.641.062-2.672-3.396-5.343-6.813-6.544-11.1-.104-.434-.083-.87-.104-1.242zm6.938-4.41c-2.465 0-4.432 1.946-4.453 4.39 0 2.422 2.009 4.431 4.432 4.431 2.402 0 4.39-1.988 4.39-4.39.02-2.464-1.905-4.432-4.37-4.432zm-5.652 44.005c-1.056-.29-1.47-1.222-2.05-2.009.373-.414.373-.849.187-1.346-1.574-4.017 1.118-8.221 5.446-8.366 2.547-.083 4.887 1.512 5.757 3.914.91 2.547.124 5.384-1.926 6.875-1.885 1.367-3.893 1.657-6.068.787-.476-.186-.931-.248-1.346.145zm8.2-5.591c.021-2.527-1.925-4.577-4.43-4.618-2.486-.042-4.577 1.988-4.598 4.452-.02 2.547 2.009 4.618 4.514 4.618 2.465 0 4.494-2.009 4.515-4.452zm28.018-.062c-.145-3.19 2.485-6.11 5.985-6.068 3.562.042 6.067 2.63 6.047 6.026 0 3.852-3.127 6.068-6.047 6.027-3.376-.042-5.985-2.61-5.985-5.985zm10.52.02c.02-2.484-2.03-4.555-4.494-4.576-2.464-.02-4.576 2.03-4.576 4.494-.021 2.464 2.05 4.556 4.514 4.576 2.444.042 4.535-2.05 4.556-4.493z" fill="#26C7BC"/><path d="M59.203 24.512c-.041-.642-.145-1.139.642-1.098.953.063 1.823.456 1.843.953.021.538-.87.953-1.863 1.015-.89.041-.58-.6-.622-.87z" fill="#FDFEFE"/><path d="M45.102 26.873c0-2.009.02-4.038.02-6.047 1.243 1.512 2.278 3.19 3.396 4.784.477.704.145 1.263-.704 1.284-.91.02-1.822-.021-2.712-.021zM5.673 34.928c0-1.387 0-2.795-.02-4.183.558 0 1.138 0 1.697-.02.684-.021.994.351 1.036.973.02.787.02 1.594 0 2.381-.02.58-.31.89-.932.85-.6 0-1.201.02-1.78 0z" fill="#141C29"/><path d="M29.964 30.373c-.518 0-1.035.02-1.553 0s-.932-.27-.911-.85c.02-.538.435-.745.91-.745 1.057-.02 2.113-.02 3.17 0 .496 0 .89.228.91.766.021.58-.393.808-.91.829-.54.02-1.077 0-1.616 0zm16.11 3.686c.29 0 .58-.021.85 0 .517.062.765.414.765.91 0 .498-.186.891-.724.953-.56.062-1.14.042-1.699.021-.6-.02-.89-.352-.89-.953 0-.58.31-.91.911-.931.27-.021.518-.021.787 0 0-.021 0-.021 0 0z" fill="#FDFEFE"/><path d="M28.95 41.617h-2.63c-.497 0-.87-.165-.89-.724-.021-.601.372-.808.89-.808h5.24c.538 0 .952.228.952.787 0 .58-.414.766-.953.766-.87-.02-1.74-.02-2.61-.02z" fill="#26C7BC"/><path d="M20.977 42.508c-.02 2.444-2.05 4.452-4.514 4.473-2.506 0-4.535-2.07-4.515-4.618.021-2.485 2.092-4.494 4.598-4.452 2.485.02 4.452 2.05 4.431 4.597zm-3.562 1.574c-.952 0-1.573.435-1.511.994.041.538.393.828.932.849.745.02 1.366-.456 1.304-1.015-.041-.538-.373-.828-.725-.828zm.767-1.346c-.021.6.207 1.015.849 1.056.58.041.91-.373.952-1.16.042-.6-.31-1.035-.849-1.056-.6-.02-.911.373-.952 1.16zm-4.68-1.905a.85.85 0 00.828.91c.497 0 1.18-.682 1.2-1.221.022-.56-.33-.849-.848-.911-.476-.041-1.18.704-1.18 1.222zm-.29 2.609c-.021.642.6 1.387 1.097 1.408.56 0 .85-.331.89-.849.042-.538-.6-1.305-1.076-1.305-.56-.02-.829.311-.911.746zm4.535-2.464c.476 0 .89-.435.87-.89-.021-.518-.643-.995-1.305-.995-.56 0-.87.27-.89.828.02.539.662 1.057 1.325 1.057zm-1.305.6c-.559.042-.849.373-.828.911.02.497.352.808.87.808.517 0 .849-.331.849-.828 0-.539-.311-.87-.89-.89zm43.073.89c-.02 2.465-2.133 4.535-4.577 4.494-2.464-.041-4.514-2.133-4.514-4.577.02-2.464 2.112-4.514 4.576-4.493 2.506.02 4.535 2.091 4.515 4.576zm-6.772-.724c.58.02 1.346-.746 1.325-1.284-.04-.497-.351-.808-.849-.85-.476-.04-1.242.684-1.242 1.202 0 .538.31.849.766.932zm3.562-.767c.456-.041.787-.29.787-.87 0-.58-.58-1.035-1.284-1.035-.56 0-.87.29-.89.828-.021.539.662 1.057 1.387 1.077zm2.154 1.72c.02-.746-.249-1.14-.829-1.12-.704.022-.89.477-.89 1.098-.02.767.228 1.14.828 1.119.684-.042.89-.497.89-1.098zm-1.823 2.256c.021-.517-.31-.87-.849-.89-.766-.02-1.367.373-1.367.953 0 .559.353.848.87.89.725.083 1.326-.373 1.346-.953zm-2.94-.931c-.021-.725-.6-1.388-1.14-1.347-.517.042-.786.332-.807.85 0 .62.56 1.325 1.098 1.304.559-.02.828-.352.849-.807zm2.153-1.595c-.062-.518-.31-.828-.828-.828-.559 0-.87.31-.87.849 0 .497.332.828.829.828.517.02.807-.31.87-.85z" fill="#FDFEFE"/><path d="M17.414 44.082c.352.02.683.29.725.828.041.56-.56 1.036-1.305 1.015-.538-.02-.87-.31-.932-.849-.041-.56.56-.994 1.512-.994zm.767-1.346c.041-.767.352-1.18.953-1.16.538.02.89.456.849 1.056-.042.766-.373 1.201-.953 1.16-.642-.062-.87-.477-.849-1.056zm-4.679-1.906c.02-.538.704-1.263 1.2-1.222.519.042.85.332.85.911-.02.539-.704 1.222-1.201 1.222-.518 0-.87-.393-.85-.911zm-.292 2.61c.063-.436.353-.767.912-.767.497 0 1.14.766 1.077 1.304-.041.518-.352.85-.89.85-.497 0-1.098-.746-1.098-1.388zm4.536-2.465c-.662 0-1.325-.517-1.325-1.056 0-.58.331-.849.89-.828.663 0 1.264.476 1.305.994.02.456-.373.89-.87.89zm-1.304.601c.58.02.89.352.89.87 0 .497-.331.828-.849.828s-.849-.31-.87-.807c-.02-.518.27-.85.829-.89zm36.302.165c-.477-.083-.767-.393-.767-.932 0-.517.767-1.242 1.243-1.2.497.04.808.351.85.848.04.539-.746 1.305-1.326 1.284zm3.56-.766c-.725-.02-1.408-.538-1.388-1.056.021-.538.353-.828.89-.828.705 0 1.285.455 1.285 1.035 0 .56-.331.808-.787.85zm2.154 1.719c-.02.6-.207 1.077-.91 1.098-.58.02-.85-.352-.83-1.119.022-.6.187-1.076.891-1.097.622-.02.89.373.85 1.118zm-1.821 2.258c-.021.559-.622 1.015-1.346.952-.518-.041-.87-.331-.87-.89 0-.56.6-.973 1.367-.953.538.042.87.373.849.89zm-2.941-.932c0 .455-.29.787-.85.807-.538.021-1.097-.662-1.097-1.304 0-.518.29-.808.808-.85.538-.04 1.097.622 1.139 1.347zm2.153-1.595c-.042.538-.332.87-.89.849-.498 0-.83-.331-.83-.828 0-.539.312-.87.87-.85.518 0 .788.311.85.829z" fill="#26C7BC"/></svg>