<svg width="61" height="52" fill="none" xmlns="http://www.w3.org/2000/svg"><path d="M11.957 30.817c-.72.392-.955.36-1.518-.25-3.099-3.334-6.182-6.667-9.28-10-.564-.611-.58-.924-.048-1.566 2.66-3.193 5.321-6.385 7.982-9.562.282-.329.313-.485-.125-.626a5.139 5.139 0 01-.83-.423c-.735-.422-.735-1.205 0-1.612.61-.344 1.237-.641 1.878-.939.501-.235.83-.61 1.033-1.127.407-1.064.861-2.128 1.268-3.192.156-.423.423-.72.892-.72.47 0 .72.297.892.72.407 1.064.86 2.128 1.268 3.192.203.517.548.846 1.033 1.127 1.127.689 2.332.892 3.662.892 6.088-.047 12.176-.015 18.264-.031.642 0 1.064.188 1.205.845-.188.751-.407.923-1.19.923h-5.806c2.583 3.334 5.102 6.574 7.669 9.86 2.551-3.286 5.086-6.542 7.669-9.86H42.96c-.72 0-.97-.219-1.11-.923.109-.595.469-.845 1.063-.845a448 448 0 006.558 0c.407 0 .704.11.97.423 3.35 4.006 6.699 8.028 10.048 12.035.078.11.156.219.235.313v.579c-.845.923-1.675 1.846-2.52 2.754-.407.439-.86.36-1.315.063-.704-1.08.47-1.487.861-2.238h-.516c-5.275 0-10.533 0-15.807-.016-.47 0-.61.157-.736.58-2.19 7.324-4.413 14.648-6.636 21.972a630.628 630.628 0 01-1.283 4.273c.25 0 .313-.157.407-.266a9851.13 9851.13 0 0012.505-13.475c.375-.407.344-.642-.188-.94-.532-.296-1.08-.531-1.612-.829-.736-.407-.736-1.205 0-1.612.438-.25.892-.47 1.361-.688.423-.188.673-.485.83-.924.282-.766.61-1.518.908-2.285.172-.438.407-.766.907-.766.501 0 .736.328.908.767.344.876.704 1.752 1.111 2.754.188-.235.329-.391.47-.548 1.158-1.268 2.347-2.504 3.49-3.787.422-.47.86-.642 1.44-.329.422.657.407.94-.126 1.503-1.236 1.33-2.472 2.66-3.724 4.022.062.047.11.11.172.125.422.203.798.422.782.97-.015.517-.391.783-.798.908-1.299.423-2.066 1.283-2.394 2.598-.11.422-.313.83-.486 1.252-.156.391-.407.657-.876.657-.454 0-.704-.266-.86-.657-.095-.22-.189-.454-.314-.736-1.127 1.221-2.222 2.38-3.302 3.553-3.913 4.21-7.825 8.436-11.738 12.661-.735.798-1.127.798-1.862 0-2.41-2.582-4.805-5.18-7.2-7.762a90.547 90.547 0 00-.735-.783c-.375.924-.735 1.8-1.08 2.676-.172.454-.391.83-.923.845-.532 0-.767-.375-.94-.813-.297-.767-.625-1.519-.907-2.285-.156-.407-.407-.689-.798-.861-.438-.188-.86-.438-1.3-.657-.359-.173-.61-.454-.594-.861 0-.407.25-.673.626-.845.485-.235.986-.47 1.456-.736.626-.344.657-.579.188-1.08-1.315-1.408-2.63-2.833-3.944-4.241-.517-.563-.532-.845-.11-1.487.58-.297 1.017-.14 1.44.345 1.017 1.126 2.066 2.238 3.099 3.349.579.626.594.626.939-.141.172-.376.454-.595.86-.595.376 0 .658.22.799.58.11.265.25.531.328.813.407 1.55 1.19 2.708 2.817 3.27.814.283.799 1.206.032 1.613-.407.219-.329.329-.079.595l4.508 4.836c.094.11.172.266.344.281.078-.203-.031-.375-.078-.563a49023.36 49023.36 0 01-7.747-25.714c-.125-.407-.297-.532-.72-.516-5.29.015-10.58.015-15.87.015-.14 0-.297-.062-.47.079.11.125.204.235.314.344 2.55 2.77 5.102 5.54 7.684 8.28.423.469.564.907.235 1.47zm27.028-10.11c-.094-.031-.11-.047-.125-.047-5.337 0-10.69-.015-16.026-.015-.313 0-.376.093-.282.375.047.125.079.266.125.391 2.614 8.64 5.212 17.278 7.826 25.917.062.188.047.407.281.548 2.74-9.077 5.462-18.123 8.201-27.169zm18.906-1.831c-.11-.14-.172-.235-.235-.313-2.566-3.083-5.149-6.166-7.715-9.25-.314-.375-.423-.125-.58.079-2.363 3.052-4.726 6.104-7.09 9.14-.077.094-.234.172-.14.344h15.76zm-19.532.016a13.358 13.358 0 00-.282-.407c-2.347-3.02-4.695-6.026-7.01-9.046-.298-.391-.408-.344-.69.015-2.331 3.021-4.679 6.026-7.026 9.046-.079.11-.25.204-.188.392h15.196zm-17.106-.548c2.567-3.302 5.087-6.542 7.653-9.86h-.688c-3.115 0-6.245.016-9.36 0-1.204-.031-2.128.642-3.035 1.268-.595.407-.564.86-.126 1.424.783 1.017 1.581 2.035 2.364 3.052 1.048 1.346 2.097 2.707 3.192 4.116zm-10.376-8.28c-2.473 2.974-4.898 5.87-7.34 8.796h15.885c-1.643-2.128-3.24-4.178-4.883-6.291-.172.407-.313.72-.422 1.048-.157.439-.407.767-.924.752-.516 0-.735-.345-.907-.783a165.03 165.03 0 00-1.409-3.521zm-.5-2.488c.845.36 1.47.767 1.893 1.409.423.642.58 1.393.97 2.128.533-1.486 1.018-2.942 2.708-3.52-1.706-.564-2.175-2.035-2.739-3.6-.548 1.58-1.048 3.004-2.833 3.583zm7.809 33.383c.923.422 1.314 1.22 1.659 2.222.329-1.064.767-1.831 1.721-2.27-1.001-.453-1.377-1.251-1.706-2.143-.735 1.47-.735 1.47-1.674 2.19zm29.673-12.067c-.313 1.033-.751 1.8-1.706 2.27 1.002.422 1.377 1.252 1.722 2.222.328-.986.75-1.784 1.706-2.238-.986-.454-1.378-1.252-1.722-2.254z" fill="#141C29"/><path d="M11.957 30.817c.328-.547.188-1.001-.235-1.455-2.582-2.755-5.133-5.525-7.7-8.28-.094-.109-.203-.218-.313-.344.172-.14.329-.078.47-.078 5.29 0 10.58 0 15.869-.015.423 0 .595.125.72.516 2.567 8.576 5.165 17.137 7.747 25.714.062.187.156.36.078.563-.188-.016-.25-.172-.344-.282-1.503-1.612-2.99-3.24-4.508-4.836-.25-.266-.328-.39.079-.594.767-.407.782-1.33-.032-1.612-1.627-.548-2.394-1.722-2.817-3.271-.078-.282-.219-.548-.328-.814-.141-.36-.423-.564-.799-.58-.406-.015-.688.22-.86.596-.345.766-.36.766-.94.14-1.032-1.11-2.08-2.222-3.098-3.349-.423-.47-.86-.626-1.44-.344a7.886 7.886 0 01-1.55-1.675zm43.335-6.244c-.579-.313-1.017-.141-1.44.328-1.157 1.268-2.331 2.52-3.49 3.788-.14.156-.266.313-.469.547-.407-1.001-.767-1.878-1.111-2.754-.172-.438-.407-.767-.908-.767-.5 0-.735.345-.908.767-.281.767-.61 1.518-.907 2.285-.157.423-.407.736-.83.923-.47.204-.923.439-1.361.689-.736.407-.736 1.205 0 1.612.532.297 1.08.532 1.612.83.532.297.563.532.187.939-4.163 4.491-8.341 8.983-12.504 13.474-.094.11-.172.267-.407.267.438-1.44.86-2.864 1.283-4.273 2.207-7.324 4.43-14.649 6.636-21.973.125-.423.282-.58.736-.58 5.274.016 10.532.016 15.806.016h.517c-.376.736-1.565 1.143-.86 2.238-.455.595-1.003 1.127-1.582 1.644z" fill="#26C7BC"/><path d="M41.818 7.545c.14.704.391.923 1.111.923h4.914c-2.582 3.318-5.102 6.573-7.669 9.86a5754.41 5754.41 0 00-7.668-9.86h5.807c.766 0 .985-.172 1.189-.923h2.316zm-2.832 13.162c-2.724 9.046-5.462 18.092-8.201 27.17-.235-.126-.235-.36-.282-.549-2.613-8.639-5.227-17.278-7.825-25.917-.047-.125-.078-.266-.125-.39-.094-.267-.032-.377.281-.377 5.337.016 10.69.016 16.026.016.016.016.032.032.126.047z" fill="#C0F9F5"/><path d="M57.89 18.876H42.116c-.078-.172.078-.235.141-.345 2.363-3.051 4.727-6.103 7.09-9.14.172-.218.266-.469.579-.078 2.55 3.1 5.133 6.167 7.715 9.25.079.078.141.172.25.313zm-19.53.016H23.177c-.062-.188.094-.282.188-.391 2.332-3.02 4.695-6.026 7.012-9.062.281-.36.39-.391.688-.015 2.332 3.02 4.68 6.04 7.012 9.046.078.125.156.234.281.422z" fill="#26C7BC"/><path d="M21.253 18.343c-1.095-1.408-2.144-2.754-3.192-4.116-.783-1.017-1.58-2.034-2.363-3.051-.439-.564-.47-1.018.125-1.425.923-.626 1.847-1.299 3.052-1.283 3.114.016 6.244 0 9.359 0h.688c-2.582 3.334-5.102 6.558-7.669 9.875z" fill="#C0F9F5"/><path d="M10.877 10.065c.501 1.22.97 2.378 1.424 3.536.172.439.392.767.908.783.5 0 .767-.313.923-.751.11-.329.267-.626.423-1.049 1.628 2.097 3.224 4.148 4.867 6.26H3.537c2.442-2.926 4.867-5.822 7.34-8.78z" fill="#FEFEFE"/><path d="M10.376 7.576c1.784-.579 2.285-2.003 2.833-3.6.579 1.566 1.033 3.037 2.739 3.6-1.69.58-2.176 2.035-2.708 3.522-.407-.736-.548-1.487-.97-2.129-.423-.642-1.049-1.033-1.894-1.393zm7.81 33.383c.939-.72.939-.72 1.674-2.191.344.892.704 1.706 1.706 2.144-.955.453-1.393 1.205-1.721 2.269-.36-1.002-.736-1.8-1.66-2.222zM47.86 28.893c.343 1.001.735 1.8 1.72 2.253-.954.454-1.377 1.252-1.705 2.238-.344-.97-.736-1.8-1.722-2.222.955-.47 1.393-1.236 1.706-2.27z" fill="#fff"/></svg>