<svg width="60" height="68" fill="none" xmlns="http://www.w3.org/2000/svg"><path d="M29.4 34.422l2.298 17.598-1.365 1.724-3.735-1.15-4.74 1.868-4.167-1.868-5.53 2.586 3.016-22.338 3.16-3.448 4.095 1.293 4.166-1.652 2.801 5.387zm26.144-32.61L37.947 32.411h5.1L59.135 4.47c-.024-.455-.187-1.623-.647-2.658-.46-1.034-2.154-.43-2.945 0zM14.53 17.974l2.586 3.663-5.89 3.663L9 21.637l5.53-3.663zm24.46 5.896H25.618v4.585H38.99V23.87zM34.724 9.54h-4.391l-.934 4.076h5.325V9.54zM14.53 12.66l-1.905-3.12 3.63-2.675 2.082 3.885-3.806 1.91z" fill="#26C7BC"/><path d="M26.767 67.388H13.284c-.564 0-.77-.188-.865-.79-.244-1.523-.45-2.877-.658-4.156-.075-.507.17-.902.602-.977.038 0 .075-.02.113-.02.357 0 .64.301.714.772.132.77.245 1.523.376 2.331.057.339.207 1.354.207 1.354h25.781l1.185-7.747-1.09.696c-.208.131-.377.225-.527.338a22.618 22.618 0 01-12.449 3.705c-7.616 0-14.63-3.686-18.767-9.873-2.162-3.234-3.31-6.882-3.385-10.831 0-.395.057-.658.189-.809.131-.131.394-.206.79-.206h2.952l-.433-3.047H5.5c-.432 0-.94-.132-.959-.714 0-.207.057-.358.17-.49.169-.169.45-.263.808-.263h8.425l.432-3.046h-8.8c-.395 0-.715-.094-.884-.263a.655.655 0 01-.17-.47c0-.17.02-.696 1.035-.715h5.585l-.245-.564c-.075-.188-.15-.357-.225-.545a18.25 18.25 0 00-.47-1.072c-.696-1.43-.678-2.764.037-4.08.15-.283.15-.715 0-1.016-.47-.846-1.09-1.975-1.768-3.065C7.756 20.678 6.59 20 5.292 20a4.23 4.23 0 00-1.692.376c-.32.15-.545.207-.714.207-.17 0-.358-.057-.696-.64a179.276 179.276 0 01-1.994-3.46c-.338-.583-.244-.884.32-1.222 5.247-3.028 10.399-6.017 15.345-8.857.206-.113.376-.17.526-.17.15 0 .376.057.658.509a152.494 152.494 0 012.069 3.591c.357.64.282.903-.358 1.279-.902.526-1.824 1.053-2.707 1.56-.414.245-.828.47-1.242.715-.15.094-.3.17-.45.264l-.602.357 1.823 3.159c.17.282.32.564.49.827.394.659.79 1.335 1.146 2.031.283.527.659.752 1.26.771 1.166.019 2.182.546 2.971 1.523.207.245.47.715-.018 1.129a.663.663 0 01-.433.169c-.207 0-.432-.113-.64-.339-.695-.733-1.353-1.072-2.068-1.072-.507 0-1.034.17-1.673.527-1.185.677-2.576 1.467-3.968 2.294-1.43.846-1.862 2.144-1.204 3.667.189.451.395.903.602 1.335l.207.47c.226.508.64 1.204 1.56 1.204.208 0 .433-.038.697-.113.282-.075.451-.32.564-.508l.037-.075c.15-.207.301-.433.433-.64.263-.394.508-.77.79-1.109.639-.733 1.485-1.128 2.388-1.128.714 0 1.429.263 2.05.733.526.414.921.658 1.354.658.432 0 .827-.244 1.353-.658.02-.018.057-.037.076-.075 1.278-.414 1.26-1.542 1.24-2.294a99.63 99.63 0 01-.018-4.1v-1.09c0-1.956.902-3.29 2.708-4.08.338-.151.62-.565.64-.922a45.02 45.02 0 00.018-2.783c-.019-.677.207-.96.808-1.09l.32-.057V9.47c0-.752.226-.978.96-.978h4.005c.752 0 .977.226.977.96v3.347l.32.131c.056.019.113.057.188.075.583.188.64.546.602.847-.057.526-.583.601-.884.601h-5.811v3.01l.377.018a.64.64 0 01.188.019c.15 0 .32.018.488.018h3.047c.62 0 1.26 0 1.88.02 2.294.018 4.062 1.786 4.1 4.08 0 .338 0 .677.018 1.015.02 1.072.02 2.163.113 3.291l.094 1.222.64-1.053.112-.188c.094-.131.17-.282.264-.432l2.407-4.175c3.554-6.149 7.24-12.524 10.831-18.785.545-.96 1.147-1.505 1.918-1.75.301-.093.602-.15.903-.15.883 0 1.71.395 2.294 1.072.809.96.921 2.22.32 3.29-.922 1.637-1.88 3.292-2.802 4.909-.376.64-.752 1.279-1.11 1.918l-1.053 1.824c-1.26 2.2-2.576 4.475-3.892 6.694-.17.301-.452.546-.659.602h-.075c-.207 0-.47-.113-.564-.207-.075-.075-.15-.338-.131-.79 0-.075.112-.225.188-.338.056-.075.094-.15.131-.226C51.12 16.823 58.02 4.863 58.02 4.863c.038-.056.057-.094.094-.15a3.62 3.62 0 00.339-.659c.244-.733 0-1.41-.659-1.805a1.58 1.58 0 00-.79-.225c-.394 0-.79.188-1.109.526-.131.15-.225.301-.32.451l-.056.094c-5.284 9.29-10.662 18.598-16.021 27.888a2.383 2.383 0 00-.17.32c-.037.074-.075.15-.131.244l-.32.582h1.955c.471 0 .81-.018 1.148-.037.357-.019.583-.357.77-.677 1.092-1.88 2.182-3.76 3.273-5.641l.827-1.43c.038-.056.057-.112.094-.15a1.62 1.62 0 01.188-.3c.188-.283.433-.452.677-.452a.92.92 0 01.358.094c.376.226.47.62.225 1.053-.47.865-.978 1.73-1.467 2.557-.206.358-.413.734-.639 1.091l-2.238 3.893h3.724c.827 0 1.034.206 1.034 1.053v3.93c0 .733-.226.959-.978.959h-2.501l-.47 3.046h2.971c.376 0 .64.075.771.226.132.15.188.395.188.752-.15 5.284-2.068 9.947-5.716 13.84a3.01 3.01 0 00-.734 1.467 428.447 428.447 0 00-.978 6.262l-.45 2.914c-.095.583-.32.771-.885.771-4.419.038-8.838.038-13.257.038zM17.44 53.529c-.47 0-.921.113-1.354.338-.752.377-1.448.81-2.2 1.26-.32.188-.658.395-.996.583l-.49.282.452.358c.113.094.207.169.282.244.188.15.357.301.545.433 3.799 2.877 8.293 4.381 12.994 4.381 4.927 0 9.76-1.73 13.633-4.87.565-.452.865-1.016.978-1.768.395-2.708.828-5.453 1.241-8.123.17-1.129.358-2.276.527-3.404.17-1.072.32-2.144.489-3.234l.282-1.919H34.42c-.395 0-.734-.188-.884-.45a.54.54 0 01.075-.565c.15-.207.602-.395.94-.395a843.07 843.07 0 016.337-.037h6.394v-3.028H29.945l.113.828c.038.244.056.488.094.714l.282 2.03c.207 1.468.432 3.01.62 4.495.038.339 0 .602-.131.771-.094.132-.263.207-.47.245h-.094c-.376 0-.658-.339-.734-.865a563.916 563.916 0 01-1.015-7.24c-.226-1.636-.809-2.934-1.786-3.93-.395-.395-.809-.602-1.26-.602-.376 0-.771.15-1.147.451-.809.62-1.542.922-2.257.922-.715 0-1.448-.301-2.219-.903-.395-.32-.79-.47-1.166-.47-.451 0-.865.207-1.297.64-.96 1.015-1.523 2.256-1.749 3.948-.451 3.216-.921 6.488-1.373 9.647-.225 1.598-.451 3.178-.677 4.776-.131.903-.244 1.806-.376 2.708l-.263 1.937 4.325-1.937.038-.207v-.037c.018-.094.056-.282.094-.49.244-2.011.507-4.042.752-6.054.32-2.501.62-4.983.94-7.484.056-.508.338-.828.715-.828h.112c.452.075.677.452.602 1.035l-.395 3.102a627.054 627.054 0 01-1.26 9.722c-.094.733-.263 1.975 1.204 2.445a.653.653 0 01.169.112c.075.057.15.113.226.15.526.283 1.053.433 1.598.433.47 0 .96-.112 1.41-.357.452-.226.903-.508 1.317-.752.188-.113.395-.245.583-.357l.207-.132s-.301-4.306-.395-5.51c-.057-.677-.094-1.354-.15-2.03-.114-1.561-.227-3.178-.34-4.777-.018-.282.057-.508.189-.658.113-.132.3-.207.489-.226h.037c.395 0 .677.301.715.771l.282 3.987c.037.64.094 1.26.131 1.9.095 1.41.452 6.336.452 6.336l.902.357c.47.188.922.377 1.373.546.17.075.358.113.527.113.3 0 .545-.113.752-.301.226-.226.338-.546.338-.94 0-.188-.037-.358-.056-.527l-.019-.132c-.056-.45-.131-.902-.188-1.335-.15-.996-.3-2.03-.432-3.027-.057-.47.15-.79.564-.884.056-.019.113-.019.15-.019.282 0 .602.15.658.49l.076.507c.263 1.749.545 3.554.676 5.321.076 1.129-.94 2.05-1.955 2.276a2.87 2.87 0 01-.564.056c-.47 0-.94-.131-1.467-.413a3.375 3.375 0 00-1.598-.414c-.621 0-1.204.188-1.75.564-.996.677-1.993 1.015-2.952 1.015-.977 0-1.993-.357-2.99-1.034a2.858 2.858 0 00-1.692-.564zM6.026 43.092c.263 3.555 1.391 6.6 3.422 9.309l.715-.301-1.467-9.44H5.97l.057.433zM43.165 52.1l.714.3c2.012-2.67 3.178-5.81 3.423-9.307l.037-.433h-2.708l-1.466 9.44zm-31.893-2.388l.47.018h.358l1.655-11.602h-4.25l1.767 11.584zm16.736-19.97c.113.187.226.357.339.545.282.451.545.884.846 1.278.207.282.62.564.997.564.959.02 2.012.02 3.29.02h3.028c.225 0 .564 0 .733-.264.301-.508.602-1.034.922-1.58.094-.188.207-.376.32-.564l.338-.601H27.613l.395.601zm-1.692-2.144h11.978v-2.953H26.316v2.953zm-16.153-5.81l1.523 2.632 4.588-2.652-1.542-2.632-4.57 2.651zm19.049-2.86c-.997 0-1.824.377-2.37 1.035-.394.489-.808 1.392-.488 2.84l.075.32h11.884v-.96c0-1.11-.244-1.9-.77-2.407-.527-.526-1.298-.77-2.39-.77-.6 0-1.184 0-1.767.018-.583 0-1.166.019-1.749.019-.864 0-1.58-.019-2.237-.057-.038-.037-.113-.037-.188-.037zM5.33 18.554c1.241 0 2.37.432 3.404 1.297.113.094.225.207.338.301l.395.339 4.55-2.633-.676-1.185c-.32-.564-.64-1.128-.978-1.692-.527-.921-.47-1.11.414-1.617.131-.075.263-.17.395-.245.056-.037.131-.075.188-.113l.32-.206-1.505-2.595L1.738 16.24l.207.338c.094.17.207.339.301.508.207.357.395.677.564 1.015.132.264.376.621.903.621.113 0 .226-.019.357-.038.451-.075.865-.131 1.26-.131zm25.499-5.566h2.933v-2.99H30.83v2.99zm-17.375-3.48l1.523 2.615 2.632-1.524-1.542-2.651-2.613 1.56z" fill="#141C29"/></svg>