<svg width="60" height="66" fill="none" xmlns="http://www.w3.org/2000/svg"><path d="M8.735 46.787c2.116 0 4.235-.014 6.351.011.488.005.698-.092.669-.635-.047-.917-.031-1.84-.007-2.756.011-.436-.06-.647-.58-.645-4.317.02-8.634.016-12.954.005-.394 0-.537.11-.528.514.025.947.045 1.898-.007 2.842-.029.568.173.684.7.677 2.121-.029 4.237-.013 6.356-.013zm-.056-9.713c-2.092 0-4.181.024-6.273-.016-.601-.011-.754.172-.725.745.047.917.027 1.839.007 2.758-.009.37.058.544.492.541 4.35-.015 8.698-.013 13.047-.002.4 0 .532-.12.521-.523-.024-.92-.056-1.844.007-2.758.047-.67-.213-.772-.805-.761-2.088.036-4.18.016-6.27.016zm.056 15.413c2.119 0 4.237-.013 6.353.011.495.007.694-.103.667-.642a36.554 36.554 0 01-.005-2.758c.012-.434-.058-.649-.577-.647-4.32.02-8.64.016-12.96.005-.397-.002-.534.116-.523.519.025.946.043 1.897-.006 2.84-.03.562.16.692.698.683 2.116-.027 4.234-.011 6.353-.011zm-.092 11.41c2.146 0 4.291-.014 6.436.008.488.005.7-.094.674-.64a29.053 29.053 0 010-2.756c.024-.528-.16-.653-.665-.65a1703.2 1703.2 0 01-12.787.002c-.463-.003-.635.118-.617.601.036.917.042 1.84-.003 2.756-.026.553.15.698.694.69 2.09-.032 4.179-.012 6.268-.012zm.063-5.708c2.118 0 4.235-.02 6.353.014.557.009.718-.157.694-.703a37.806 37.806 0 01-.005-2.758c.011-.416-.094-.588-.552-.588-4.32.015-8.638.015-12.957 0-.46-.003-.564.16-.553.58.025.919.05 1.84-.007 2.757-.038.622.204.718.756.712 2.092-.032 4.181-.011 6.27-.014zm15.698-4.024c-2.117 0-4.233.018-6.347-.014-.526-.006-.669.152-.649.66.038.944.022 1.893.005 2.84-.007.364.053.547.49.547 4.342-.013 8.686-.015 13.028 0 .48.002.544-.208.535-.606-.02-.917-.04-1.839.005-2.756.029-.577-.195-.691-.72-.685-2.115.03-4.231.014-6.348.014zm.009 5.702c-2.117 0-4.23.016-6.347-.011-.508-.007-.68.13-.66.651.04.944.02 1.893.007 2.839-.005.351.033.56.48.557 4.343-.014 8.685-.014 13.027 0 .463.002.557-.188.546-.597-.022-.918-.04-1.84.005-2.756.026-.566-.175-.7-.712-.694-2.114.03-4.23.011-6.346.011zM12.3 10.302c2.159 0 4.262-.004 6.362.005.457.002.465-.278.463-.604-.004-1.085-.002-2.168-.002-3.253V3.48L12.3 10.302z" fill="#fff"/><path fill-rule="evenodd" clip-rule="evenodd" d="M16.263 65.534c-4.844.013-9.689.026-14.532.031-.273 0-.546-.094-.82-.145-.666-.439-.952-1.052-.896-1.848.105-1.495.076-3.002.098-4.495.02-1.366-.074-2.771-.085-4.156-.031-3.81-.01-7.62-.01-11.43 0-2.013.04-4.028-.017-6.042-.035-1.328.596-2.102 2.034-2.067 1.95.05 3.904-.004 5.857-.013.138.011.277.013.411.038.71.123.987-.119.917-.881-.085-.936-.044-1.882-.06-2.826l-.004-.331c.013-1.002.038-2.005.038-3.007.004-5.545.01-11.093-.01-16.64-.002-.637.189-1.09.643-1.538 3.071-3.038 6.125-6.094 9.165-9.166.447-.451.9-.66 1.541-.637 1.141.04 2.284-.007 3.425-.016.305.011.609.03.913.03 4.275 0 8.548.006 12.823-.01.64-.002 1.09.164 1.195.86-.157.733-.683.836-1.327.836-5.326-.011-10.65.005-15.977-.02-.618-.002-.799.136-.788.774.043 2.369.02 4.74.016 7.11-.002 1.514-.552 2.064-2.065 2.069-2.398.006-4.796.01-7.194-.007-.468-.005-.69.058-.687.622.02 7.389.02 14.778-.002 22.167-.002.566.212.627.68.615 1.226-.026 2.454-.01 3.68-.009 1.624.003 2.154.58 2.203 2.233.058 1.966-.12 3.926-.036 5.895.059 1.35-.062 2.727-.073 4.076-.011 1.344.078 2.715.08 4.073 0 .631.132.84.812.833 4.181-.036 8.365.004 12.548-.034 1.043-.009 1.855.255 2.376 1.192-.025 1.826.157 3.658-.139 5.477.275 1.297.143 2.613.119 3.917-.014.725.217.852.888.85 7.586-.025 15.172-.013 22.758-.016 1.295 0 1.525-.228 1.525-1.492V22.412c0-1.287-.261-1.542-1.579-1.542-9.286 0-18.575-.002-27.86 0-1.29 0-1.542.262-1.542 1.578 0 7-.004 14 .005 21.001 0 .638-.072 1.181-.822 1.331-.733-.062-.865-.543-.865-1.174-.003-2.589-.027-5.179-.043-7.767.016-1.058.011-2.119.056-3.175.02-.476-.132-.62-.608-.613-1.785.027-3.57.011-5.356.011-1.116 0-2.23.005-3.347-.008-.536-.007-.84-.334-.84-.842.002-.476.32-.756.796-.814.219-.027.445-.011.669-.011 2.648 0 5.3-.007 7.948.007h.002c.462.002.76.003.754-.636-.007-.626-.331-.568-.732-.568-2.733.005-5.467-.004-8.198.007-.651.002-1.253-.114-1.229-.89.023-.725.613-.801 1.226-.797 2.705.016 5.412-.02 8.116.025.69.01.822-.21.806-.84a124.57 124.57 0 01-.007-4.852c.018-1.255.806-2.297 2.027-2.52l20.653-.115a19.026 19.026 0 012.342-.002c.566.031.76-.119.756-.725a1844.9 1844.9 0 01-.002-15.729c.002-.56-.163-.693-.7-.687-2.26.03-4.52.003-6.777.018-.63.005-1.098-.156-1.243-.836.096-.642.487-.87 1.114-.86 1.031.02 2.062-.007 3.091-.017 1.31.01 2.618.027 3.929.033 1.711.007 2.248.537 2.248 2.246.002 5.24.011 10.481-.013 15.72-.003.627.116.884.81.846 1.111-.063 2.23-.038 3.344-.011 1.398.033 2.487.906 2.709 2.163.072.407.042.834.045 1.25.01 5.882.022 11.763.031 17.642-.009 4.546-.022 9.092-.03 13.64-.004 2.845-.024 5.69.014 8.536.014.976-.223 1.81-.89 2.517-.698.54-1.503.64-2.36.638-8.186-.012-16.369-.01-24.554-.005-.331 0-.665.034-.996.05-4.98-.04-9.95-.072-14.921-.101zm-1.177-18.736c-2.116-.025-4.235-.011-6.351-.011-2.119 0-4.235-.016-6.356.013-.527.007-.729-.11-.7-.677.052-.944.032-1.895.007-2.842-.009-.404.134-.514.528-.514 4.32.011 8.637.016 12.955-.005.519-.002.59.209.58.645-.025.917-.041 1.839.006 2.756.03.543-.181.64-.669.635zm-12.68-9.74c2.092.04 4.181.016 6.273.016 2.092 0 4.183.02 6.27-.016.594-.011.853.092.806.76-.063.915-.031 1.84-.007 2.759.011.403-.12.523-.521.523-4.349-.01-8.698-.013-13.047.002-.434.003-.5-.172-.492-.54.02-.92.04-1.842-.007-2.76-.029-.572.124-.755.725-.744zm12.682 15.44c-2.116-.024-4.234-.011-6.353-.011-2.119 0-4.237-.016-6.353.011-.537.01-.727-.12-.698-.682.049-.944.031-1.895.006-2.841-.01-.403.126-.521.524-.52 4.32.012 8.64.017 12.96-.004.518-.002.588.213.577.647-.025.92-.04 1.841.004 2.758.027.54-.172.649-.667.642zm-.009 11.407c-2.145-.022-4.29-.009-6.436-.009-2.09 0-4.179-.02-6.268.011-.544.01-.72-.136-.694-.689.045-.917.039-1.839.003-2.756-.018-.483.154-.604.617-.602 4.262.016 8.526.016 12.787-.002.506-.002.69.123.665.651a29.053 29.053 0 000 2.756c.027.546-.186.645-.674.64zm-.02-5.702c-2.118-.034-4.235-.014-6.353-.014-2.09.003-4.179-.017-6.27.014-.553.006-.795-.09-.757-.712.056-.917.032-1.838.007-2.758-.011-.418.094-.582.553-.58 4.32.016 8.637.016 12.957 0 .458 0 .563.173.552.589-.024.92-.038 1.841.005 2.758.024.546-.137.712-.694.703zm2.998-4.052c2.114.032 4.23.014 6.347.014 2.116 0 4.232.016 6.346-.014.526-.006.75.108.72.685-.044.917-.024 1.839-.004 2.756.009.398-.056.608-.535.606-4.342-.015-8.686-.013-13.028 0-.437 0-.497-.183-.49-.548.017-.946.033-1.895-.005-2.839-.02-.508.123-.666.649-.66zm.009 5.705c2.116.027 4.23.011 6.347.011 2.116 0 4.232.018 6.346-.011.537-.007.738.127.712.694-.045.917-.027 1.838-.005 2.756.011.409-.083.6-.546.597-4.342-.014-8.684-.014-13.026 0-.448.002-.486-.206-.481-.557.013-.946.033-1.895-.007-2.839-.02-.521.152-.658.66-.651zm.597-49.55c-2.1-.008-4.203-.004-6.362-.004 2.313-2.313 4.53-4.527 6.823-6.823V6.45c0 1.085-.002 2.168.002 3.253.002.326-.006.606-.463.604z" fill="#fff"/><path d="M8.735 46.786c-2.117 0-4.235-.015-6.351.012-.528.006-.73-.11-.7-.678.049-.944.03-1.895.006-2.841-.011-.407.132-.517.528-.515 4.318.011 8.635.016 12.955-.004.519-.002.59.208.58.644-.025.92-.043 1.841.006 2.756.03.546-.181.64-.669.636-2.123-.023-4.239-.01-6.355-.01zm-.055-9.712c2.091 0 4.18.022 6.272-.014.593-.009.853.092.806.76-.065.916-.034 1.84-.007 2.759.011.403-.123.526-.521.523a2117.12 2117.12 0 00-13.047.003c-.434.002-.499-.172-.492-.542.02-.92.042-1.84-.007-2.758-.03-.575.123-.756.725-.745 2.09.038 4.181.014 6.27.014zm.055 15.413c-2.118 0-4.237-.018-6.353.011-.535.007-.725-.12-.698-.682.047-.944.03-1.895.007-2.841-.011-.403.125-.52.523-.52 4.32.012 8.64.016 12.96-.004.519-.002.588.213.577.647-.025.92-.04 1.84.004 2.758.027.54-.17.646-.666.642-2.119-.024-4.237-.011-6.354-.011zm-.092 11.409c-2.09 0-4.179-.018-6.268.014-.544.008-.72-.137-.694-.69.045-.917.038-1.838.003-2.756-.018-.485.154-.604.617-.601 4.262.015 8.525.017 12.787-.003.506-.002.687.126.665.651a29.02 29.02 0 000 2.756c.026.544-.186.645-.674.64-2.145-.024-4.29-.01-6.436-.01zm.063-5.707c-2.09 0-4.179-.018-6.268.014-.553.008-.794-.088-.756-.712.056-.915.03-1.839.006-2.758-.01-.419.094-.582.553-.58 4.32.016 8.637.016 12.957 0 .459-.002.564.17.553.589-.025.92-.038 1.84.004 2.758.025.546-.136.711-.693.703-2.119-.032-4.237-.014-6.356-.014zm15.697-4.024c2.117 0 4.233.015 6.347-.011.526-.007.75.107.72.684-.047.917-.026 1.837-.004 2.756.009.398-.056.609-.535.606a1886.17 1886.17 0 00-13.029 0c-.436.003-.496-.183-.49-.548.018-.946.034-1.894-.004-2.839-.02-.507.123-.666.649-.66 2.114.03 4.23.012 6.346.012zm.009 5.702c2.116 0 4.23.016 6.346-.011.537-.007.74.13.712.693-.045.917-.027 1.837-.005 2.756.012.41-.082.6-.546.598-4.342-.014-8.684-.014-13.026 0-.448.002-.486-.206-.481-.557.016-.947.034-1.895-.007-2.84-.022-.518.152-.657.66-.65 2.116.026 4.233.01 6.347.01zm2.074-15.091c-.006.975-.031 1.948-.013 2.923.009.484-.105.636-.624.504-2.6-.66-4.676-3.282-4.73-6.022-.06-2.967 1.78-5.582 4.46-6.347.015 2.588.04 5.179.042 7.767 0 .633.132 1.112.865 1.175zm6.647 8.89c1.22-.16 2.445-.065 3.666-.054.582.004.835.438.848.955.032 1.17.03 2.34.007 3.51-.016.783-.535 1.04-1.235 1.047-1.14.011-2.284.014-3.425.02.298-1.82.114-3.653.139-5.478zM12.3 10.303l6.824-6.824V6.45c0 1.085-.002 2.168.002 3.253.002.329-.007.606-.463.604-2.1-.009-4.203-.004-6.362-.004zm30.561 15.2c3.316 0 6.631-.002 9.946.003 1.085 0 1.311.23 1.316 1.33.004 1.17-.018 2.34.007 3.51.015.746-.365 1.068-1.047 1.128-.222.02-.446.014-.67.014h-19.22c-1.557 0-1.727-.17-1.73-1.705 0-1.031-.006-2.063.003-3.092.008-.935.252-1.18 1.199-1.183 3.4-.007 6.798-.005 10.196-.005zm10.594 22.615c0 .584-.007 1.168 0 1.752.009.66-.365.997-.967 1.018a62.97 62.97 0 01-3.5.004c-.694-.016-1.063-.412-1.061-1.123.002-1.112 0-2.224 0-3.336 0-.718.391-1.091 1.078-1.11a67.05 67.05 0 013.418-.001c.69.02 1.065.393 1.036 1.127-.022.555-.004 1.112-.004 1.669zm-21.32-.02c0-.557.013-1.116-.005-1.673-.022-.745.383-1.09 1.065-1.105a64.16 64.16 0 013.347.002c.722.02 1.125.416 1.12 1.174-.004 1.087-.002 2.175 0 3.264 0 .712-.36 1.114-1.06 1.132-1.143.03-2.286.031-3.43.005-.695-.016-1.069-.39-1.044-1.123.023-.56.007-1.119.007-1.676zm13.423.047c0 .53-.013 1.06.002 1.59.023.774-.385 1.143-1.112 1.159-1.114.025-2.23.029-3.346-.005-.674-.02-1.09-.346-1.076-1.1.02-1.114.015-2.23.002-3.347-.009-.734.38-1.098 1.065-1.116a58.524 58.524 0 013.43.002c.69.022 1.057.42 1.037 1.143-.013.56-.002 1.117-.002 1.674zm-.001-8.252c0 .586.01 1.17-.002 1.756-.013.637-.342.98-.991.98-1.197.002-2.396.004-3.593-.005-.615-.004-.924-.353-.933-.944-.015-1.17-.006-2.34-.004-3.51 0-.682.373-1.045 1.029-1.06a72.924 72.924 0 013.427.004c.74.018 1.1.436 1.074 1.193-.022.527-.007 1.055-.007 1.586zm7.895-.01c-.002.613.005 1.226-.002 1.84-.009.57-.31.89-.879.897-1.226.015-2.452.02-3.675.002-.645-.01-.958-.405-.965-1.025a175.35 175.35 0 010-3.425c.005-.678.392-1.04 1.04-1.058 1.17-.029 2.34-.033 3.508.002.604.018.982.352.973 1.014-.004.584 0 1.167 0 1.753zM42.843 53.592h1.671c.68-.002 1.04.334 1.043 1.018.004 1.143.004 2.284 0 3.428-.003.724-.412 1.071-1.101 1.08a97.98 97.98 0 01-3.342-.002c-.694-.014-1.08-.376-1.078-1.1.002-1.115.004-2.229-.003-3.343-.004-.716.313-1.096 1.056-1.083.584.011 1.168.002 1.754.002zm-7.97-10.964c-.584 0-1.17.002-1.754 0-.642-.005-.984-.313-.982-.973.002-1.17.005-2.338-.002-3.508-.005-.705.396-1.025 1.038-1.038a76.084 76.084 0 013.425.002c.696.016 1.067.41 1.067 1.121 0 1.085.018 2.172-.007 3.257-.018.83-.342 1.119-1.197 1.139-.528.011-1.058.002-1.586.002-.002 0-.002-.002-.002-.002zm15.862 10.966c.584 0 1.17 0 1.753.002.656.003.967.34.965.987-.003 1.14-.014 2.284.004 3.425.011.74-.378 1.09-1.063 1.107a72.31 72.31 0 01-3.342 0c-.727-.013-1.132-.389-1.13-1.15.005-1.085-.006-2.172.005-3.257.009-.733.356-1.14 1.134-1.118.56.015 1.117.002 1.674.004z" fill="#26C7BC"/><path d="M17.692 25.78c-.472 0-.946.027-1.416-.006-.478-.034-.79-.334-.792-.808-.004-.512.307-.832.837-.843a70.394 70.394 0 012.75.002c.527.011.84.329.834.843-.005.474-.322.77-.797.806-.47.033-.944.006-1.416.006zm5.848-1.648c.221 0 .445-.018.664.004.452.045.711.329.74.758.032.484-.252.8-.72.866-.407.058-.83.036-1.244.03-.543-.01-.937-.265-.944-.83-.007-.564.365-.835.922-.842.195-.002.387 0 .582 0v.014z" fill="#fff"/></svg>