<svg width="60" height="66" fill="none" xmlns="http://www.w3.org/2000/svg"><path d="M54.695 19.523c-.02.23 0 .479-.039.708-.038.345.096.422.44.46 2.089.192 3.41 1.647 3.41 3.773 0 3.16.02 6.301-.02 9.462 0 .497.058.823.595 1.015.593.23.919.766.919 1.417v7.297c0 .402-.21.728-.326 1.092-.095.096-.191.21-.287.306-.938.307-.996 1.015-.843 1.839-.019 2.739-.038 5.477-.019 8.216 0 1.015-.172 1.935-.727 2.777-.767.862-1.686 1.418-2.854 1.418-6.953.019-13.905 0-20.838.019-.48 0-.843-.153-.939-.67.038-.633.44-.767.977-.767h20.397c1.514 0 2.51-.804 2.529-2.145.038-3.217.019-6.435.019-9.672 0-.344-.115-.478-.46-.46-.862.02-1.724.02-2.566.039-1.954 0-3.907 0-5.861-.02-1.188-.018-2.126-.785-2.145-1.953-.058-2.451-.038-4.922 0-7.373.02-.824.575-1.399 1.398-1.59a6.411 6.411 0 011.207-.096l5.439-.057c.766.019 1.532-.02 2.298.038.575.038.728-.153.728-.728-.019-3.084-.019-6.167-.019-9.232 0-1.704-.843-2.547-2.566-2.547h-41.62c-1.704 0-2.527.824-2.527 2.567v13.962c0 2.126.019 4.252 0 6.378 0 .44.096.632.574.67.824.058 1.648.268 2.433.517.593.422.996.326 1.57-.21 5.306-5.018 14.116-2.682 16.357 4.27.497 1.533.46 3.103.42 4.674-.305 1.245-.784 2.413-1.282 3.581-.23.115-.326.345-.46.537-2.739 3.85-7.508 5.324-11.913 3.62-.46-.173-.728-.135-1.092.21-3.064 2.835-6.607 3.562-10.534 2.184-2.49-.882-4.232-2.663-5.496-4.961-.958-2.26-1.284-4.578-.632-6.972.862-3.14 2.853-5.324 5.765-6.684.708-.21 1.398-.517 2.126-.593.67-.077.727-.364.708-.9-.019-6.742 0-13.484-.019-20.226 0-1.36.402-2.47 1.456-3.332.65-.364 1.302-.69 2.068-.67.306 0 .345-.154.345-.403-.02-.92-.02-1.839-.038-2.777.019-1.685.038-3.39.038-5.075v-9.75c0-1.55.843-2.374 2.394-2.393C17.692.293 20.2.293 22.71.274c.268.02.517.039.785.039h10.17c2.318 0 4.635-.02 6.953 0 1.321 0 2.183.88 2.202 2.202 0 .402.02.805 0 1.226-.019.383.134.479.498.479 1.839-.02 3.677-.02 5.516-.038 1.168.019 2.337.019 3.505.038 1.475.019 2.356.9 2.356 2.356V18.68c-.039.268-.02.555 0 .843zm-31.43 1.13H39.64c.805 0 1.61 0 2.414.019h9.48c.364 0 .728-.02 1.073.02.575.076.651-.173.651-.671-.019-4.425-.019-8.83-.019-13.254 0-.92-.191-1.11-1.149-1.13h-7.661c-1.666 0-1.666 0-1.628 1.686 0 3.179-.02 6.377-.02 9.557 0 .555-.152.919-.727 1.053-.594-.153-.728-.575-.728-1.149.02-4.635 0-9.27 0-13.886 0-1.034-.115-1.149-1.149-1.149h-24.86c-1.034 0-1.13.115-1.13 1.168v16.108c0 1.724 0 1.724 1.724 1.628 1.723 0 3.466 0 5.19.019.747-.02 1.456-.02 2.164-.02zM20.01 56.755c-.076.422-.134.862-.21 1.284-.211.613-.422 1.245-.632 1.858-.824 1.455-.824 1.455.804 1.838.23.058.479.058.709.077.708.172 1.417.191 2.126-.02 1.57-.134 2.95-.727 4.175-1.723.594-.422 1.15-.9 1.494-1.552 1.091-1.187 1.551-2.623 1.781-4.175.058-.69.096-1.398-.02-2.087-.19-1.57-.746-2.988-1.78-4.214-.44-.575-.881-1.188-1.59-1.456-1.13-1.072-2.49-1.59-4.003-1.704-.709-.268-1.417-.115-2.145-.096-1.551.249-3.007.69-4.175 1.781-.21.039-.326.192-.48.307-.382.287-.478.498 0 .804.805.536 1.418 1.264 2.031 1.992l.747 1.092c.9 1.915 1.34 3.888 1.168 5.994zm-4.73 5.497c.69-.191 1.072-.728 1.398-1.302 1.149-1.188 1.666-2.662 1.82-4.271.114-.69.076-1.38.018-2.05-.153-1.55-.727-2.93-1.685-4.156-.46-.536-.862-1.13-1.532-1.436-1.15-1.188-2.605-1.666-4.214-1.858a4.516 4.516 0 00-2.145 0c-.804 0-1.532.25-2.24.575-.728.325-1.495.593-1.973 1.283-.67.287-1.073.9-1.533 1.436-.957 1.226-1.532 2.605-1.685 4.157-.058.689-.096 1.378.02 2.049.152 1.628.689 3.083 1.819 4.27.306.633.823 1.073 1.417 1.437 1.168 1.092 2.605 1.57 4.156 1.8.728.077 1.475.077 2.203 0a8.224 8.224 0 003.677-1.398c.191-.134.479-.21.479-.536zm37.73-26.143c-1.608 0-3.198.02-4.807 0-.536 0-.766.153-.766.728.038 2.126 0 4.252.019 6.378 0 .823.153.976.958.976h9.174c.804 0 .957-.153.957-.976 0-2.126-.019-4.252.02-6.378 0-.575-.23-.747-.767-.728-1.59.02-3.179 0-4.788 0z" fill="#fff"/><path d="M21.121 20.653c-1.724 0-3.467 0-5.19-.019v-9.385c0-1.034.095-1.149 1.149-1.34 2.662-.46 4.826-2.624 5.305-5.267.192-1.092.306-1.188 1.38-1.188h14.612c1.15 0 1.245.096 1.245 1.207v15.973h-5.19c-.191-.364-.536-.613-.843-.843-2.413-1.743-5.113-2.221-8.005-1.608-1.724.383-3.295 1.072-4.463 2.47zm4.137-7.737a2.853 2.853 0 002.854 2.872c1.551 0 2.892-1.34 2.873-2.873a2.87 2.87 0 00-2.892-2.853c-1.61 0-2.835 1.245-2.835 2.854zm9.347-4.712V6.423c0-.575-.269-.824-.824-.824h-.709c-.536.02-.766.287-.766.805 0 1.206-.019 2.432 0 3.639.02.67.268.862 1.111.862.9 0 1.168-.173 1.207-.843-.02-.613-.02-1.245-.02-1.858zm2.7 2.72c0-.652.02-1.284 0-1.916-.02-.46-.268-.785-.747-.766-.44.02-.67.326-.67.766v3.773c0 .48.249.805.708.805.48 0 .709-.326.709-.805v-1.857zm-.747-5.325c-.421.038-.69.25-.67.709.019.44.306.708.727.69.403-.02.67-.288.67-.69 0-.422-.248-.69-.727-.709zm17.524 28.978c0-2.528 0-5.056-.02-7.585 0-1.36-.497-1.858-1.857-1.858H15.183c-1.322 0-1.82.498-1.82 1.8v19.268c-.804-.23-1.608-.46-2.432-.517-.479-.038-.575-.23-.575-.67.02-2.126 0-4.252 0-6.378V24.675c0-1.724.824-2.567 2.529-2.567h41.618c1.705 0 2.567.843 2.567 2.548 0 3.083-.02 6.167.019 9.231 0 .575-.153.766-.728.728-.766-.057-1.532-.038-2.28-.038zm-22.371 20.34c.977-.02 1.953-.02 2.93-.039h17.39c1.514 0 2.012-.498 2.012-2.01 0-2.414-.02-4.827-.02-7.221.863 0 1.724-.02 2.567-.039.345 0 .46.135.46.46 0 3.218.019 6.435-.02 9.672-.019 1.36-1.014 2.145-2.527 2.145H34.105c-.536 0-.958.115-.977.766-.9-.115-1.82.096-2.7-.153.498-1.168.976-2.337 1.283-3.581zm-13.195-.287c.057.69.096 1.379-.02 2.05-1.436.038-1.436.038-1.934 1.417-.038.115-.057.249-.134.325-.728.92-.785 1.762.25 2.51-.326.574-.71 1.11-1.399 1.302-.287 0-.421-.23-.555-.403-.364-.46-.69-.517-1.169-.153-.402.288-.88.46-1.34.632-1.207.422-1.207.422-1.111 1.743 0 .038.019.096.019.134-.728.096-1.475.077-2.203 0 .154-1.455.154-1.455-1.187-1.915-.21-.077-.44-.115-.594-.25-.938-.823-1.704-.574-2.375.346-.593-.364-1.11-.805-1.417-1.437 1.034-.747.977-1.59.249-2.509-.077-.115-.115-.268-.153-.402-.479-1.322-.479-1.322-1.915-1.36-.115-.69-.077-1.36-.02-2.05.307 0 .632-.018.92.02.517.077.69-.172.785-.651.153-.747.46-1.456.881-2.088.134-.191.326-.383.057-.613-.325-.268-.536-.69-.957-.823.46-.536.862-1.13 1.532-1.437.21.02.345.192.44.326.403.536.824.67 1.418.21.306-.248.708-.382 1.092-.517 1.283-.478 1.283-.46 1.244-1.877a4.515 4.515 0 012.146 0c-.039 1.418-.039 1.418 1.244 1.878.115.038.23.057.326.134.92.65 1.8.919 2.624-.154.67.307 1.072.9 1.532 1.437a3.86 3.86 0 00-.345.249c-.632.479-.919.977-.287 1.685.21.23.287.594.402.9.517 1.36.517 1.36 1.954 1.341zm-3.41.996c-.018-2.816-2.298-5.037-5.132-5.037a5.06 5.06 0 00-5.037 5.056c0 2.796 2.336 5.114 5.094 5.095 2.797.019 5.076-2.299 5.076-5.114zm26.929-34.974c.02-.9.02-1.819.039-2.72.555-.133.727-.497.727-1.053 0-3.179 0-6.377.02-9.557 2.508.02 4.998.02 7.507.039 1.015 0 1.188.191 1.188 1.206 0 4.022 0 8.063.019 12.085h-9.5zm2.126-8.58v1.935c0 .517.268.804.785.785h.709c.517-.02.804-.287.804-.805.02-1.245.02-2.47 0-3.715-.019-.632-.325-.785-1.321-.805-.575 0-.996.134-.996.805.02.613.02 1.206.02 1.8zm3.582 2.739v1.934c0 .44.21.747.67.767.421.019.709-.25.728-.633.038-1.36.038-2.72 0-4.08-.02-.42-.345-.708-.785-.65-.403.038-.613.325-.613.747v1.915zm0-4.597c.019.422.249.709.708.69.44 0 .709-.307.709-.728 0-.383-.268-.67-.69-.69-.46 0-.69.269-.727.728z" fill="#26C7BC"/><path d="M53.01 36.109c1.608 0 3.198.02 4.807 0 .536 0 .766.153.766.728-.02 2.126 0 4.252-.02 6.378 0 .823-.153.976-.957.976h-9.174c-.805 0-.958-.153-.958-.976 0-2.126.02-4.252-.019-6.378 0-.594.23-.747.766-.728h4.788zm-1.878 1.743a2.17 2.17 0 00-2.202 2.164c.019 1.13 1.034 2.145 2.164 2.145a2.138 2.138 0 002.126-2.145c.02-1.206-.881-2.145-2.088-2.164zM20.009 56.755c1.59.594 3.103.498 4.367-.727 1.417-1.36 1.532-3.582.306-5.057-1.302-1.57-3.409-1.896-5.056-.785-.268.192-.536.402-.785.594l-.747-1.092c.862-.632 1.743-1.207 2.854-1.379 2.547-.402 5.037 1.188 5.707 3.697a5.088 5.088 0 01-3.141 6.09c-1.245.46-2.47.402-3.716-.038.077-.44.154-.881.211-1.303zm3.257-36.102c3.007-1.762 6.014-1.743 9.04 0h-9.04zm-2.548 24.132c.191 1.188-.21 1.896-1.494 2.011-.23.02-.44.173-.651.288-1.169.574-1.169.593-2.05-.498 1.188-1.111 2.643-1.552 4.195-1.8zm7.757 13.733c-.058-.039-.134-.058-.192-.115-.9-.805-.9-.805-.325-1.877.249-.498.478-.996.555-1.552.077-.536.306-.67.804-.632.307.039.613-.019.939-.019-.23 1.552-.69 3.007-1.781 4.195zm-5.65 3.275c-.038-1.418-.038-1.398 1.245-1.858a4.85 4.85 0 001.149-.536c.517-.383.92-.345 1.283.172.134.192.326.345.498.517-1.226.977-2.605 1.57-4.175 1.705zm7.411-9.558c-1.455 0-1.455 0-1.934-1.322-.134-.382-.268-.785-.517-1.091-.402-.536-.345-.9.191-1.283.192-.135.326-.345.48-.517 1.033 1.225 1.589 2.642 1.78 4.213zm-3.37-5.669c-.134.383-.498.556-.728.862-.172.21-.345.172-.555.039-.747-.48-1.552-.843-2.433-.996-.287-.058-.344-.211-.344-.441.019-.383.019-.766.038-1.15 1.532.097 2.892.614 4.022 1.686zm-7.699 13.331c1.513.325 1.513.325 1.513 1.915-.23-.02-.478-.02-.708-.077-1.628-.383-1.628-.383-.805-1.838zM23.668 32.7h-5.286c-.862 0-1.092-.23-1.092-1.111v-1.935c0-.613.306-.938.92-.938h10.935c.613 0 .939.306.958.9.02.709.02 1.436 0 2.145-.019.632-.326.939-.996.939h-5.44zm23.365 17.41c.02-.441.288-.69.728-.69.421 0 .67.287.67.67.02.44-.268.728-.69.747-.44.02-.689-.249-.708-.728zm3.639.077c-.038.44-.306.67-.708.65-.44-.018-.709-.306-.69-.746.02-.422.288-.709.747-.67.44.057.651.344.651.766zm-5.209.67c-.422-.077-.709-.287-.69-.747.02-.46.326-.69.747-.67.402.019.651.287.651.69 0 .44-.287.65-.708.727zm-.019 2.221c-.44-.039-.69-.288-.67-.728.019-.402.287-.67.689-.67.421 0 .709.268.709.708 0 .46-.268.69-.728.69zm3.006-.67c-.076.383-.248.67-.689.67-.46 0-.709-.23-.728-.689 0-.44.268-.69.651-.69.46-.038.709.269.767.71zm2.204.077c-.039.383-.288.613-.747.574-.44-.038-.651-.306-.632-.708.019-.44.325-.709.766-.67.402.038.632.306.613.804zM20.01 5.484c0 1.168-.862 2.03-2.012 2.049-1.168 0-2.049-.862-2.049-2.011 0-1.15.881-2.05 2.011-2.05 1.15 0 2.03.863 2.05 2.012z" fill="#26C7BC"/><path d="M51.764 39.614a1 1 0 01-.996.995c-.574 0-1.015-.42-.977-.976.02-.594.383-.92.939-.977.517-.058 1.034.44 1.034.958z" fill="#26C7BC"/></svg>