<svg width="60" height="62" fill="none" xmlns="http://www.w3.org/2000/svg"><path d="M51.049 31.067c.38-.512.796-.455 1.29-.133 5.651 3.604 8.666 10.64 7.358 17.24a8.886 8.886 0 00-.095.701c-.265.854-.531 1.726-.816 2.58-.056.094-.132.19-.17.284-3.888 8.857-14.376 12.877-23.289 8.288-.19-.095-.36-.209-.588-.171-1.63.265-3.262.53-4.874.797a3.316 3.316 0 01-1.422-.247c-.91-.626-.987-1.517-.816-2.522.247-1.404.436-2.807.645-4.192.057-.322 0-.588-.152-.891-.796-1.48-1.308-3.072-1.63-4.722-.19-.949-.399-1.12-1.328-1.081-.266.019-.493.17-.72.265-6.544 2.978-12.67 2.314-18.321-2.124-2.314-1.82-3.888-4.21-5.045-6.903C.3 35.979-.08 33.684.014 31.276c.323-7.453 5.936-14.072 13.276-15.59.417-.094.834-.189 1.233-.265 1.062 0 2.105-.19 3.148-.095.53.038.91.209.967.797-.152.569-.57.777-1.081.664-.93-.19-1.859-.038-2.75.094-3.888.55-7.169 2.276-9.71 5.31-3.148 3.737-4.248 8.06-3.414 12.84.645 3.68 2.504 6.694 5.367 9.065 2.655 2.2 5.709 3.376 9.141 3.528 2.845.132 5.538-.513 8.042-1.859.303-.152.587-.285.948-.228 1.612.247 3.205.474 4.817.74.91.152 1.08.019.967-.872-.19-1.347-.436-2.693-.626-4.059-.076-.55-.284-1.1.02-1.65a15.265 15.265 0 001.782-5.329c.19-1.403.209-1.384-1.043-1.972-.512-.247-.683-.209-.702.417-.095 3.49-1.422 6.505-3.869 8.932-3.148 3.149-7.017 4.514-11.493 3.926-3.584-.512-6.542-2.2-8.8-5.044-3.792-4.799-4.02-11.228-.473-16.215 2.958-4.154 7.074-6.088 12.213-5.766 1.005.057 1.953.266 2.92.531.228.057.418.152.38-.246-.057-.797-.076-1.593-.114-2.409.36-6.676 3.547-11.55 9.426-14.679C33.05.534 35.744.08 38.513.06c2.428.19 4.76.663 6.96 1.763 7.036 3.49 10.715 11.209 9.028 18.908l-.057.342c-.683 2.465-1.764 4.722-3.452 6.675-.626.74-1.328 1.404-1.991 2.105-.949.607-1.783 1.366-2.92 1.916.302.095.454.152.625.19 6.79 1.896 11 8.515 9.805 15.437-1.081 6.277-6.373 10.886-12.896 11.246-6.05.341-11.778-3.793-13.541-9.786-.38-1.27-.38-1.251-1.726-1.403-.474-.057-.512.095-.436.493.303 1.441.72 2.845 1.441 4.134.38.664.417 1.309.303 2.03a114.176 114.176 0 00-.644 4.343c-.095.682.075.834.72.74 1.593-.247 3.186-.475 4.76-.721.494-.076.91 0 1.347.227 3.13 1.65 6.448 2.181 9.957 1.593 8.401-1.422 14.166-9.805 12.479-18.15-.854-4.21-3.073-7.51-6.62-9.937-.398-.284-.796-.55-.606-1.138zm-25.716 9.691c.037-.019.113 0 .132-.038 2.37-2.332 3.509-5.196 3.547-8.515 0-.341-.171-.303-.418-.265-1.213.19-2.427.36-3.64.55-1.746.284-2.732-.702-2.466-2.447.208-1.403.436-2.807.663-4.191.076-.493.02-.91-.227-1.347a11.939 11.939 0 01-1.138-2.958c-.095-.417-.303-.626-.702-.778-5.006-1.877-10.753-.17-13.977 4.173-3.584 4.836-3.072 11.89 1.157 15.778.74.835 1.631 1.48 2.674 2.049.057-.38.133-.702.17-1.025.096-.74.19-1.498.285-2.237.057-.399.266-.702.683-.664.455.038.645.36.588.796-.02.133-.02.285-.038.418-.133.91-.247 1.82-.38 2.73-.075.456.076.683.513.816 2.655.891 5.29.93 7.984.076.702-.228.797-.57.702-1.176-.152-.93-.266-1.858-.399-2.788-.056-.455.076-.834.588-.872.436-.038.645.246.702.701.114 1.044.285 2.087.436 3.225.986-.588 1.935-1.081 2.56-2.01zm9.197 12.82c.626.778 1.48 1.31 2.295 1.86.36.246.417.075.455-.247.114-.873.247-1.726.323-2.599.057-.493.19-.948.777-.834.55.095.55.55.493 1.005-.132.986-.246 1.972-.398 2.94-.076.417.057.625.474.777 2.77.986 5.538.967 8.326 0 .398-.133.512-.322.455-.72-.152-1.025-.284-2.068-.417-3.092-.057-.436 0-.853.512-.93.55-.075.72.304.758.797.095.892.228 1.783.342 2.675.038.34.133.474.474.246.815-.55 1.669-1.08 2.276-1.878a2.01 2.01 0 00.379-.322c2.674-3.053 3.736-6.6 2.959-10.563-.797-4.078-3.168-6.998-6.942-8.724-1.896-.873-3.887-1.441-6.011-.607-.626.246-1.347.209-2.01.38-.665.17-1.385-.039-2.011.265-2.864 1.346-4.912 3.451-6.164 6.353-.132.285-.17.55-.113.872.227 1.271.417 2.56.587 3.831.133.968.114 1.916-.91 2.466-.209.113-.209.284-.152.493.626 2.143 1.593 4.04 3.243 5.556zM53.495 16.56c-.038-.417-.075-1.195-.208-1.972C52.206 8.594 48.81 4.403 43.103 2.41 37.28.382 31.933 1.615 27.419 5.825c-5.102 4.76-6.259 12.194-3.016 18.396.228.436.341.834.247 1.346-.266 1.555-.493 3.13-.721 4.685-.114.777.057.948.835.834 1.498-.227 2.996-.417 4.475-.683.626-.113 1.138-.018 1.688.285 1.916 1.043 3.983 1.593 6.164 1.726 8.837.569 16.442-6.619 16.404-15.855zM33.411 35.43c.76-.607 1.423-1.138 2.181-1.726-.569-.114-1.043-.19-1.498-.322-.341-.095-.398.038-.417.322-.057.493-.152 1.005-.266 1.726z" fill="#fff"/><path d="M34.53 53.578c-1.65-1.517-2.617-3.432-3.205-5.556-.057-.209-.057-.38.152-.493 1.043-.55 1.043-1.499.91-2.466-.17-1.29-.36-2.56-.588-3.83a1.373 1.373 0 01.114-.873c1.252-2.902 3.3-5.026 6.164-6.353.645-.304 1.346-.095 2.01-.266.664-.17 1.384-.133 2.01-.38 2.124-.815 4.097-.246 6.012.608 3.774 1.725 6.164 4.646 6.941 8.723.778 3.983-.284 7.51-2.958 10.564-.114.114-.247.209-.38.322-.284-1.214-.606-2.427-.834-3.641-.152-.816-.493-1.365-1.252-1.764-1.517-.815-3.015-1.688-4.513-2.541-.683-.398-.702-1.29-.038-1.745.891-.607 1.517-1.441 1.669-2.522.17-1.176.17-2.352.17-3.547-.019-2.029-1.706-3.66-3.736-3.679-2.086-.019-3.793 1.612-3.83 3.66-.02.949.037 1.897.075 2.845.057 1.366.588 2.466 1.745 3.243.72.474.664 1.366-.076 1.802-1.517.872-3.034 1.764-4.57 2.58-.645.34-.968.834-1.1 1.535-.285 1.252-.607 2.523-.892 3.774zm15.95-8.344h1.764c.474 0 .815-.228.815-.683 0-.417-.322-.702-.74-.72-1.251-.02-2.503-.039-3.755 0-.417.018-.72.303-.701.739.019.436.284.683.758.664a30.462 30.462 0 011.859 0zm1.062-2.56h.702c.474 0 .815-.228.815-.683 0-.455-.341-.702-.796-.74-.475-.019-.949-.038-1.404 0-.417.038-.72.303-.702.74.02.417.266.682.74.663.228 0 .436.02.645.02zm-26.21-1.916c-.626.93-1.593 1.422-2.56 2.048-.152-1.138-.323-2.181-.436-3.224-.057-.455-.266-.74-.702-.702-.493.038-.645.417-.588.873.133.929.247 1.858.398 2.788.095.606 0 .948-.701 1.175-2.674.854-5.33.835-7.985-.075-.436-.152-.588-.38-.512-.816.152-.91.266-1.82.38-2.731.019-.133.019-.284.038-.417.056-.455-.133-.759-.588-.797-.418-.038-.626.266-.683.664l-.285 2.238c-.038.322-.113.626-.17 1.024-1.043-.588-1.935-1.233-2.674-2.048.455-1.29.626-2.655.929-3.983.152-.607.436-1.005.967-1.308a373.87 373.87 0 004.684-2.655c.721-.418.74-1.31.038-1.783-.91-.607-1.517-1.46-1.63-2.541a36.628 36.628 0 01-.171-3.528c.019-2.01 1.745-3.66 3.774-3.66s3.736 1.612 3.793 3.641c.019.835-.02 1.65-.057 2.485-.038 1.46-.398 2.75-1.726 3.603-.758.493-.72 1.384.076 1.84 1.536.872 3.072 1.744 4.627 2.617.38.208.759.455.854.89.341 1.423.758 2.884.91 4.382z" fill="#26C7BC"/><path d="M18.657 16.104c.834.132 1.669.284 2.503.417.038.796.057 1.612.114 2.408.02.399-.17.304-.38.247a14.966 14.966 0 00-2.92-.531c-5.14-.323-9.255 1.612-12.213 5.765-3.547 4.988-3.319 11.417.474 16.215 2.257 2.845 5.215 4.533 8.819 5.007 4.475.588 8.325-.778 11.493-3.926 2.446-2.446 3.773-5.443 3.868-8.932.02-.626.19-.664.702-.418 1.252.607 1.233.588 1.043 1.973a15.005 15.005 0 01-1.783 5.329c-.303.55-.095 1.1-.019 1.65.19 1.346.437 2.693.626 4.058.133.892-.057 1.025-.967.873-1.612-.266-3.205-.493-4.817-.74-.36-.057-.645.076-.948.228a15.064 15.064 0 01-8.041 1.858c-3.433-.151-6.486-1.327-9.141-3.527-2.883-2.39-4.723-5.405-5.368-9.065-.834-4.78.266-9.085 3.414-12.84 2.541-3.034 5.822-4.76 9.71-5.31.891-.133 1.82-.284 2.75-.095.493.133.93-.076 1.081-.645z" fill="#26C7BC"/><path d="M50.48 45.215c-.607 0-1.233-.019-1.84 0-.474.02-.72-.246-.758-.663-.02-.437.284-.74.701-.74 1.252-.038 2.504-.019 3.756 0 .417 0 .74.284.74.72-.02.475-.342.683-.816.683a26.5 26.5 0 01-1.783 0zm1.061-2.541h-.644c-.474.019-.72-.246-.74-.664-.019-.436.285-.701.702-.74a8.674 8.674 0 011.403 0c.455.02.797.266.797.74 0 .455-.36.683-.816.683-.227-.019-.455-.019-.702-.019zm.059-25.698c0 7.491-6.07 13.579-13.56 13.598-7.492.019-13.617-6.107-13.598-13.636.018-7.472 6.125-13.579 13.597-13.56 7.491.019 13.56 6.107 13.56 13.598zM29.447 25.49c.588.797 1.423 1.29 2.22 1.84.378.265.53.17.568-.266.095-.853.209-1.688.303-2.541.038-.455.152-.91.702-.873.626.038.626.532.57 1.006-.134.967-.247 1.915-.4 2.882-.075.455.02.72.513.892 2.769.929 5.519.948 8.269-.02.36-.132.53-.284.455-.72-.17-1.005-.266-2.01-.399-3.015-.056-.456-.056-.91.494-1.006.55-.094.72.285.777.778.114 1.024.266 2.048.417 3.167 1.025-.607 1.973-1.214 2.693-2.105.456-.303.778-.759 1.1-1.195 2.921-4.096 3.395-8.515 1.062-12.934-2.427-4.59-6.41-6.751-11.644-6.467-2.883.152-5.386 1.27-7.415 3.262-3.414 3.338-4.57 7.396-3.376 12.043.493 2.03 1.498 3.83 3.091 5.272zm-20.272 7H7.41c-.474 0-.797-.247-.797-.72 0-.475.342-.703.816-.703h3.527c.455 0 .816.209.816.683.019.512-.342.74-.835.74H9.175zm-1.101-2.58c-.284 0-.569.019-.853 0-.38-.038-.588-.303-.607-.664-.02-.341.151-.607.493-.683a4.567 4.567 0 011.896 0c.38.076.55.36.512.74-.038.36-.265.607-.663.626-.266 0-.512-.02-.778-.02z" fill="#fff"/><path d="M29.448 25.492c-1.593-1.442-2.598-3.243-3.11-5.291-1.195-4.647-.038-8.705 3.375-12.043 2.03-1.991 4.552-3.11 7.416-3.262 5.234-.285 9.236 1.877 11.644 6.467 2.333 4.438 1.859 8.838-1.062 12.934-.322.436-.626.891-1.1 1.195-.284-1.27-.607-2.523-.853-3.793-.133-.702-.455-1.195-1.1-1.536a216.367 216.367 0 01-4.57-2.58 1.058 1.058 0 01-.058-1.82c.93-.626 1.46-1.498 1.631-2.617.152-.987.057-1.973.152-2.978.209-2.105-1.441-4.001-3.565-4.134-2.124-.133-4.002 1.555-4.02 3.679 0 1.005.094 2.03.113 3.034.038 1.309.645 2.295 1.707 3.016.682.474.626 1.384-.095 1.783a88.397 88.397 0 01-4.476 2.598c-.683.36-1.043.891-1.195 1.65-.246 1.232-.455 2.484-.834 3.698zm.512-8.231c.607 0 1.233-.019 1.84 0 .493.019.796-.246.815-.683.038-.436-.303-.701-.72-.72a61.396 61.396 0 00-3.737 0c-.417 0-.72.284-.701.74.019.417.265.682.74.682.587-.019 1.175-.019 1.763-.019zm-1.1-2.541h.702c.455.019.74-.247.777-.664.038-.436-.284-.702-.682-.74a7.106 7.106 0 00-1.556 0c-.417.038-.701.323-.663.759.038.38.265.645.701.626.266 0 .494.019.721.019z" fill="#26C7BC"/><path d="M29.96 17.26h-1.764c-.474 0-.72-.246-.74-.682-.018-.436.285-.72.703-.74 1.251-.018 2.503-.018 3.736 0 .417.02.74.285.72.721-.038.455-.341.702-.815.683-.607.019-1.233.019-1.84.019zm-1.1-2.54h-.702c-.436 0-.664-.247-.702-.627-.037-.455.247-.72.664-.758.512-.057 1.043-.038 1.555 0 .418.038.74.303.683.74-.038.417-.322.663-.777.663-.247-.038-.474-.019-.721-.019z" fill="#fff"/></svg>