<svg width="60" height="56" fill="none" xmlns="http://www.w3.org/2000/svg"><path fill="#26C7BC" d="M45.512 44.185h13.737v10.377H45.512z"/><path d="M.89 30.657c-.682-1.323-.876-2.734-.852-4.21.03-1.7-.022-3.398-.038-5.098.016-2.893.034-5.785.048-8.679.005-.907-.02-1.814.01-2.718.045-1.31.958-2.21 2.275-2.222 2.441-.02 4.883-.012 7.325-.002.368.002.669-.038.923-.358.224-.28.568-.406.941-.406 1.687 0 3.373-.008 5.06.009.242.002.482.115.723.177.264.239.416.606.884.584.798-.036 1.6-.018 2.401-.006.297.004.475-.059.465-.406-.036-1.171.077-2.347-.055-3.518.025-.273.045-.546.075-.816.128-1.14 1.034-1.96 2.232-2.02.323-.016.646-.026.97-.038.274.012.55.036.825.036 3.325.002 6.647-.004 9.972-.002 1.696 0 2.605.91 2.615 2.613.008 1.208.016 2.418-.002 3.626-.006.386.107.535.511.52.78-.027 1.561-.007 2.34-.01.15 0 .324.035.423-.106.474-.677 1.192-.663 1.898-.687 1.36.012 2.717.034 4.076.034.475 0 .925.071 1.232.447.242.297.527.325.866.325 2.368-.008 4.735-.012 7.102-.006 1.622.004 2.55.903 2.555 2.504.01 5.641.008 11.282 0 16.923-.002 1.636-.487 3.12-1.511 4.411-.16.202-.295.388-.293.666.014 2.317.02 4.632.026 6.948-.014 1.204-.018 2.408-.048 3.61-.01.367.123.492.478.464.3-.024.602-.008.903-.004 1.2.014 1.761.539 1.735 1.757-.03 1.373-.073 2.755-.077 4.118-.004 1.335.004 2.696.091 4.043.047.738-.186 1.327-.81 1.745-.535.18-1.088.138-1.638.138L40.9 55.07c-.276-.008-.551-.024-.828-.024-7.311-.004-14.622-.006-21.931-.006-1.03 0-2.058.018-3.088.026h-1.21c-2.933-.008-5.863-.03-8.796-.012-.836.004-1.638-.05-2.387-.449-.67-.725-.816-1.59-.812-2.552.026-5.678.014-11.353.01-17.03 0-.325-.03-.65-.046-.976.242-1.274.086-2.45-.921-3.39zM22.617 6.233c-.014.15-.04.3-.038.449.004 1.288-.097 1.038 1.02 1.04 3.79.01 7.584.002 11.375 0 1.288 0 1.288 0 1.135-1.327a5.249 5.249 0 00.01-1.687c.016-.274.046-.549.046-.824.004-1.244-.147-1.395-1.375-1.395l-10.125-.004c-2.211 0-2.236.026-2.058 2.242-.054.5-.067 1.003.01 1.506zm25.214 9.693c.682.117.814.567.8 1.19-.035 1.358-.007 2.718-.013 4.079-.006 1.573-.894 2.476-2.478 2.504-.93.017-1.864.01-2.795.002-1.73-.014-2.605-.884-2.605-2.603-.002-3.702-.018-7.404.016-11.106.006-.652-.188-.77-.796-.768-7.05.023-14.101.027-21.154-.004-.725-.004-.844.229-.84.881.028 3.702.022 7.404.01 11.106-.004 1.584-.897 2.468-2.488 2.494-.907.015-1.814.006-2.72.002-1.806-.01-2.685-.888-2.685-2.692-.002-3.702-.01-7.404.01-11.106.002-.507-.093-.687-.646-.679-2.29.035-4.583.023-6.875.009-.64-.004-1.012.212-1.01.902.008 5.843-.02 11.684.037 17.527.022 2.21 1.658 4.122 3.809 4.72 1.211.335 2.454.166 3.682.184.565.008 1.298.256 1.654-.127.27-.29.084-1.002.105-1.525.004-.101.002-.202.016-.301.161-1.188 1.058-2.002 2.252-2.03a34.66 34.66 0 011.888.002c1.216.038 2.163.937 2.181 2.153.033 2.24.03 4.482 0 6.724-.016 1.217-.95 2.122-2.165 2.175-.577.024-1.159.014-1.737.006-1.466-.019-2.403-.941-2.431-2.402-.017-.83-.035-1.664.008-2.492.028-.531-.148-.656-.669-.67-2.264-.057-4.595.393-6.697-.853-.182.303-.113.558-.113.798-.004 6.043-.004 12.088-.004 18.13 0 1.283.093 1.376 1.373 1.376h38.681c.151 0 .303-.014.452.002.35.04.404-.14.416-.442.053-1.327.09-2.668.09-3.983 0-1.29-.057-2.604-.086-3.904-.032-1.462.49-1.96 1.933-1.96 2.82-.001 5.641-.001 8.46.003.366 0 .671.046.667-.515-.026-2.997-.016-5.993-.008-8.99 0-.402-.056-.571-.503-.337-1.098.574-2.288.717-3.514.695-1.008-.018-2.016.01-3.022-.01-.355-.006-.482.093-.472.464.024.931.024 1.864.002 2.795-.03 1.331-.97 2.26-2.298 2.293-.58.014-1.16.014-1.737 0-1.368-.033-2.289-.972-2.307-2.36-.012-.805-.046-1.615.012-2.415.045-.624-.135-.79-.773-.788-6.195.027-12.39.017-18.585.017-.226 0-.453.002-.68-.006-.482-.014-.778-.281-.785-.744-.006-.47.314-.72.776-.761.224-.02.453-.008.679-.008h17.678c1.64 0 1.64 0 1.674-1.668.002-.05 0-.101.002-.152.063-1.21.96-2.12 2.18-2.173.654-.028 1.31-.028 1.962 0 1.255.052 2.151.97 2.202 2.23.016.377.03.757-.002 1.133-.04.466.077.664.602.642 1.08-.044 2.165-.002 3.247-.016 3.196-.038 5.44-2.21 5.462-5.403.038-5.614.014-11.231.008-16.846 0-.886-.22-1.082-1.14-1.084a1153.37 1153.37 0 00-5.287 0c-.676.002-1.58-.235-1.971.107-.456.396-.097 1.323-.15 2.017a.958.958 0 000 .152c.03.529-.181.872-.735.955-.594-.064-.8-.422-.787-.986.018-.803-.02-1.61.012-2.413.018-.469-.15-.606-.604-.596-1.206.026-2.414.03-3.62-.002-.494-.012-.642.146-.64.64.017 4.024.017 8.045.004 12.068-.002.666.267.975.94.963.955-.016 1.91.002 2.865-.006.863-.006 1.04-.19 1.045-1.084.006-1.358.012-2.715-.004-4.074.002-.543.165-.933.739-1.056zm-31.384-.776c0-2.016-.008-4.03.006-6.045.004-.428-.085-.642-.577-.63-1.234.028-2.468.02-3.703.004-.401-.006-.585.087-.585.541.014 4.054.01 8.11.006 12.163 0 .648.277.977.957.963.957-.02 1.915.002 2.87-.006.859-.008 1.016-.163 1.02-1.022.01-1.99.006-3.978.006-5.968zm35.716 33.24c1.91 0 3.82-.014 5.73.01.45.006.622-.093.598-.576a32.84 32.84 0 01-.004-2.563c.012-.391-.105-.513-.505-.51-3.894.014-7.79.016-11.686-.003-.438-.002-.489.182-.483.536.016.828.032 1.66-.006 2.486-.022.49.123.638.624.63 1.913-.026 3.823-.01 5.732-.01zm.006 1.515c-1.937 0-3.872.012-5.806-.01-.427-.005-.566.113-.55.545.032.854.035 1.71 0 2.563-.018.442.14.54.556.537 3.871-.014 7.743-.014 11.615 0 .394.002.52-.107.509-.505-.029-.854-.039-1.71.002-2.563.022-.474-.134-.586-.592-.58-1.913.027-3.823.013-5.734.013zM15.681 35.496c0-.202.012-.404-.002-.604-.037-.496.194-1.08-.11-1.464-.252-.319-.807-.077-1.223-.13-.41-.052-.632-.272-.665-.684-.032-.416.172-.68.562-.775.216-.053.448-.043.672-.047.396-.006.822.095.778-.571-.037-.562-.028-1.095-.782-1.12a34.181 34.181 0 00-1.508-.003c-.764.012-1.024.268-1.039 1.056-.016.854-.014 1.71 0 2.565.008.473-.181 1.03.09 1.398.25.341.801.08 1.213.145.075.012.154.014.22.042.348.158.604.4.54.81-.061.38-.281.643-.707.653-.277.006-.556.026-.83 0-.534-.053-.594.248-.505.65.097.44.353.713.838.709.529-.004 1.056.002 1.585-.002.59-.002.875-.31.873-.893-.002-.577 0-1.157 0-1.735zm28.95 2.622v.01h.452c1.085-.004 1.256-.178 1.256-1.28.002-.705 0-1.408 0-2.113 0-1.315 0-1.315-1.26-1.432-.05-.004-.101-.004-.15-.012-.4-.069-.65-.315-.65-.71 0-.38.226-.672.614-.76.216-.051.45-.01.675-.033.331-.032.8.184.78-.479-.019-.585-.015-1.155-.794-1.201-.528-.03-1.057-.002-1.584-.012-.664-.012-.961.31-.955.97.012 1.08.046 2.164-.012 3.24-.039.722.109 1.09.923.96.584-.093 1.139.097 1.135.772-.004.7-.594.767-1.161.735-.051-.002-.103-.01-.15.002-.27.064-.707-.202-.731.365-.02.515.14.905.705.972.3.034.606.006.907.006z" fill="#fff"/><path d="M47.887 12.472l-.055 3.454c-.573.123-.739.513-.733 1.056.014 1.357.01 2.715.004 4.074-.004.892-.181 1.076-1.044 1.084-.955.008-1.91-.01-2.866.006-.672.012-.941-.297-.939-.963.012-4.023.014-8.044-.004-12.068-.002-.492.145-.652.64-.64a80.08 80.08 0 003.62.002c.454-.01.624.127.603.596-.032.804.004 1.61-.012 2.414-.014.563.19.92.786.985zM16.446 15.15c0 1.99.004 3.979-.002 5.968-.002.859-.162 1.014-1.02 1.022-.957.008-1.915-.014-2.87.006-.68.014-.957-.317-.957-.963.002-4.054.008-8.11-.006-12.163-.002-.454.184-.547.586-.54 1.234.017 2.468.025 3.702-.005.492-.012.581.202.577.63-.02 2.016-.01 4.03-.01 6.045zm-.766 20.347c0 .577-.002 1.157 0 1.735.002.585-.28.89-.872.892-.53.002-1.057-.002-1.586.002-.484.004-.741-.268-.838-.709-.089-.401-.028-.702.505-.65.275.026.553.006.83 0 .424-.01.646-.273.707-.652.065-.41-.192-.653-.54-.81-.066-.03-.145-.032-.22-.043-.412-.062-.963.198-1.213-.145-.27-.368-.081-.925-.09-1.398a67.694 67.694 0 010-2.565c.015-.787.276-1.042 1.039-1.056.503-.008 1.006-.01 1.509.004.753.022.745.556.781 1.12.045.666-.381.565-.777.57-.224.005-.459-.008-.673.047-.388.097-.592.36-.561.776.032.412.254.634.664.684.418.053.972-.19 1.224.13.305.383.075.969.11 1.464.013.2.001.402.001.604zm28.951 2.621c-.3 0-.606.028-.904-.006-.566-.069-.728-.458-.705-.971.024-.568.458-.301.73-.366.05-.012.102-.004.15-.002.568.032 1.157-.034 1.161-.735.005-.675-.55-.862-1.135-.772-.813.13-.96-.238-.922-.959.058-1.079.024-2.161.012-3.242-.006-.658.29-.981.955-.969.527.01 1.056-.02 1.583.012.778.047.776.618.794 1.202.02.662-.448.446-.78.479-.224.022-.458-.017-.674.032-.386.089-.614.38-.614.761 0 .394.25.64.65.71.049.007.101.007.15.011 1.26.117 1.26.12 1.26 1.432v2.113c-.002 1.102-.174 1.276-1.256 1.28h-.453c-.002-.004-.002-.008-.002-.01z" fill="#26C7BC"/></svg>