<svg width="46" height="64" fill="none" xmlns="http://www.w3.org/2000/svg"><path d="M40.872 3.951c0 .7.058 1.4 0 2.1-.039.64.117.952.797.816.117-.02.233 0 .37 0 .952.097 1.593.738 1.632 1.71.02.797.097 1.614 0 2.391-.194 1.575.233 2.935 1.225 4.14.486.583.622 1.205.602 1.944-.039.972.02 1.944-.039 2.896-.194 2.372-1.749 4.16-4.062 4.665-.35.078-.544.156-.544.584.02 3.965.02 7.95.038 11.915v14.83c0 2.314-.019 4.646-.019 6.96 0 .369 0 .738-.078 1.088-.408 2.06-1.982 3.246-4.256 3.265H18.46c-.291 0-.583.04-.855.059-.37-.02-.719-.059-1.088-.059-2.275 0-4.549-.038-6.823 0-1.536.04-2.857-.408-3.868-1.594-.583-.933-.797-1.943-.758-3.051.039-1.166.02-2.333 0-3.499 0-.641.291-.933.913-.952h.584c10.69 0 21.381 0 32.072.019.66 0 .777-.175.777-.797-.02-9.33-.02-18.66 0-27.99 0-.525-.078-.797-.66-.953-1.167-.31-2.022-1.088-2.741-2.138-.856 1.205-1.905 2.041-3.344 2.313-2.08.39-3.751-.291-5.073-1.924-.175-.233-.291-.447-.564-.058-1.652 2.488-5.87 3.207-8.397-.311-1.069 1.477-2.468 2.39-4.334 2.39-1.866 0-3.285-.855-4.374-2.41-.816 1.147-1.827 1.944-3.188 2.294-.388.097-.194.447-.194.68-.02 4.043 0 8.086 0 12.149V49.63c0 .544-.117.952-.72 1.069-.66-.097-.738-.545-.738-1.108 0-3.538 0-7.056-.02-10.594 0-3.149.02-6.298.02-9.427 0-1.419 0-1.419-1.438-1.477-.855-.04-1.302-.428-1.341-1.283a38.893 38.893 0 01-.02-2.605c0-.427-.097-.758-.408-1.088C1.064 22.28.578 21.25.54 20.065.5 18.743.5 17.402.5 16.08c.078-.155.136-.31.253-.447 1.321-1.555 1.788-3.343 1.555-5.365-.078-.66-.02-1.36 0-2.021.039-.914.466-1.303 1.36-1.341 1.42-.04 1.42-.04 1.42-1.497 0-.68-.02-1.36.194-2.002C5.845 1.755 7.303.724 9.189.724c4.373-.019 8.766 0 13.14 0 .466 0 .913-.038 1.38-.038 1.827.136 3.673.058 5.5.058 1.672 0 3.324.078 4.996-.058.68.019 1.36.038 2.022.038 2.662-.038 3.79.739 4.645 3.227zm-17.96 4.315h2.624c4.412 0 8.824-.02 13.237.02.544 0 .719-.117.68-.68-.058-.973 0-1.944-.02-2.916-.019-1.497-1.03-2.508-2.507-2.547-.602-.02-1.205 0-1.808 0H9.325c-1.77 0-2.741.992-2.741 2.741 0 .875.039 1.75-.02 2.624-.038.583.117.778.74.758 5.189-.02 10.398 0 15.608 0zm.155 47.37h-3.712c-4.043 0-8.087.02-12.13-.02-.544 0-.7.136-.68.68.039.992 0 1.983.02 2.975.019 1.03.524 1.788 1.457 2.255.525.252 1.089.233 1.633.233h26.669c.214 0 .427 0 .66-.02 1.517-.116 2.43-1.108 2.45-2.624 0-.913-.04-1.846.02-2.76.038-.602-.137-.758-.74-.758-5.228.039-10.438.039-15.647.039zm6.978-45.912c-.758 0-1.496.02-2.255 0-.427-.02-.524.097-.466.544.233 1.614.428 3.207.603 4.82.038.331.175.39.466.39.758-.02 1.497 0 2.255 0 .564 0 1.166.039 1.166.758 0 .68-.583.719-1.127.7-.68-.02-1.36.019-2.041-.02-.428-.02-.603.078-.583.544.039.778 0 1.555.02 2.333.038 1.73 1.301 3.13 3.07 3.44 1.555.272 3.305-.641 3.849-2.196.564-1.613.564-3.343.155-4.937-.524-2.041-1.477-3.985-2.196-5.987-.136-.35-.33-.408-.661-.408-.758.02-1.516.02-2.255.02zM14.32 16.916h-3.188c-.31 0-.486.058-.486.428.02.816-.038 1.652.02 2.468.136 2.041 1.788 3.538 3.751 3.46 1.983-.078 3.46-1.652 3.48-3.732 0-.7-.02-1.4.02-2.1.019-.427-.118-.543-.526-.524-1.03.02-2.04 0-3.07 0zm8.65 0c-1.05 0-2.08.02-3.13 0-.369 0-.505.097-.505.486.02.797-.02 1.594.02 2.39a3.649 3.649 0 003.362 3.48c1.77.136 3.363-1.088 3.771-2.857.214-.953.04-1.924.117-2.896.039-.467-.097-.642-.603-.622-.991.038-2.002.019-3.032.019zm17.455 0c-1.05 0-2.08.02-3.13 0-.408 0-.563.097-.544.525.04.797 0 1.594.02 2.39a3.584 3.584 0 003.537 3.441c1.866.039 3.48-1.4 3.635-3.265.078-.875.02-1.75.04-2.625.019-.388-.137-.485-.506-.485-1.011.038-2.022.019-3.052.019zm-34.793 0c-1.05 0-2.08.02-3.13 0-.35 0-.544.058-.525.466.04.875-.02 1.75.04 2.625.155 1.904 1.787 3.343 3.692 3.285 1.866-.059 3.402-1.555 3.48-3.422.039-.796 0-1.593.02-2.39.019-.409-.118-.545-.526-.545-1.03 0-2.04-.019-3.051-.019zm17.3-1.458c1.049 0 2.079-.02 3.129 0 .369 0 .466-.097.408-.447-.214-1.613-.428-3.207-.622-4.82-.04-.35-.175-.486-.545-.486-1.516.02-3.051.02-4.567 0-.39 0-.564.116-.603.505a351.062 351.062 0 01-.603 4.743c-.058.37.04.505.448.505.971-.02 1.963 0 2.954 0zm-11.936 0h6.667c.234 0 .33-.078.37-.33.194-1.672.408-3.363.622-5.035.058-.388-.156-.388-.408-.388H13.6c-.214 0-.428-.02-.525.252-.66 1.827-1.36 3.616-2.08 5.501zm-8.416 0h6.395c.35 0 .505-.116.622-.427a350.537 350.537 0 011.827-4.802c.136-.369.097-.524-.33-.505-1.497.02-3.013 0-4.51 0-.233 0-.408.039-.544.253-1.108 1.788-2.255 3.576-3.46 5.481zm40.819 0a691.881 691.881 0 01-3.421-5.403c-.117-.195-.233-.35-.506-.35H34.36c.72 1.885 1.4 3.693 2.08 5.5.059.175.195.253.389.253h6.57zm-39.653 9v1.866c0 .466.37.291.583.272.253-.02.642.233.758-.253.272-1.302.04-1.652-1.34-1.885zm0-13.86c.039.02.097.02.136.04.35-.564.7-1.128 1.07-1.672.116-.175.213-.428.077-.525-.292-.233-.7-.058-1.05-.097-.194-.02-.252.117-.252.272.02.661.02 1.322.02 1.983zm38.331.04c.04-.02.097-.04.136-.059V8.772c0-.214-.039-.428-.272-.428-.35 0-.739-.175-1.01.097-.156.156 0 .408.116.583.33.545.68 1.07 1.03 1.614z" fill="#fff"/><path d="M22.989 33.652c-.622 0-1.264.02-1.886 0-.777-.02-1.283-.486-1.283-1.283-.02-1.263-.039-2.527 0-3.77.02-.798.506-1.245 1.303-1.264 1.263-.02 2.526-.02 3.77 0 .797.02 1.264.466 1.283 1.263a60.938 60.938 0 010 3.771c-.019.778-.524 1.244-1.302 1.264-.641.039-1.263.02-1.885.02zm8.67 10.263h1.885c.7 0 1.186.35 1.244 1.05.136 1.4.136 2.799 0 4.198-.078.7-.544 1.05-1.244 1.07-1.263 0-2.527.019-3.77 0-.817-.02-1.264-.448-1.284-1.264-.02-1.264-.02-2.508 0-3.771.02-.816.467-1.225 1.264-1.283h1.904zM14.261 33.652c-.603 0-1.205.02-1.808 0-.758-.02-1.205-.37-1.283-1.108a20.846 20.846 0 010-4.12c.059-.7.525-1.07 1.225-1.07 1.283 0 2.566-.02 3.849 0 .758.02 1.205.467 1.224 1.244.02 1.264.02 2.508 0 3.771-.02.836-.466 1.264-1.322 1.303-.622-.02-1.263-.02-1.885-.02z" fill="#26C7BC"/><path d="M31.697 27.315c.603 0 1.206-.02 1.828 0 .797.04 1.282.447 1.302 1.264a63.479 63.479 0 010 3.848c-.02.758-.486 1.206-1.264 1.225a63.642 63.642 0 01-3.848 0c-.758-.02-1.205-.486-1.225-1.264a123.4 123.4 0 010-3.848c.02-.758.486-1.186 1.244-1.225.661-.02 1.322 0 1.963 0zm-.038 1.458c-1.711 0-1.711 0-1.711 1.71 0 1.711 0 1.711 1.71 1.711 1.73 0 1.73 0 1.73-1.71s0-1.71-1.73-1.71zM14.34 43.895c.622 0 1.263-.02 1.885 0 .758.04 1.225.486 1.244 1.244.02 1.283.02 2.566 0 3.849-.02.758-.466 1.225-1.244 1.244a63.475 63.475 0 01-3.848 0c-.758-.02-1.225-.466-1.244-1.244a63.475 63.475 0 010-3.849c.02-.797.505-1.224 1.321-1.244h1.886zm1.691 3.188c0-1.73 0-1.73-1.71-1.73-1.73 0-1.73 0-1.73 1.71 0 1.73 0 1.73 1.71 1.73 1.73 0 1.73 0 1.73-1.71zm12.439-8.3c0-.602-.02-1.205 0-1.827.02-.855.447-1.321 1.283-1.34 1.263-.02 2.526-.02 3.77 0 .797.019 1.264.466 1.283 1.282a60.938 60.938 0 010 3.771c-.02.836-.505 1.263-1.36 1.283-1.206.02-2.43.02-3.635 0-.894-.02-1.322-.467-1.36-1.36.019-.603.019-1.206.019-1.809zm3.187-1.73c-1.73 0-1.73 0-1.73 1.711 0 1.73 0 1.73 1.711 1.73 1.73 0 1.73 0 1.73-1.71.02-1.73.02-1.73-1.71-1.73zm-14.169 1.711c0 .622.02 1.264 0 1.886-.02.797-.467 1.282-1.264 1.302a123.4 123.4 0 01-3.848 0c-.72-.02-1.205-.447-1.225-1.186a66.237 66.237 0 010-3.926c.02-.758.486-1.205 1.264-1.225 1.283-.02 2.565-.039 3.848 0 .758.02 1.186.486 1.225 1.264.02.622 0 1.244 0 1.885zm-3.227 1.73c1.77 0 1.77 0 1.77-1.73 0-1.71 0-1.71-1.73-1.71-1.711 0-1.711 0-1.711 1.73 0 1.71 0 1.71 1.671 1.71zm8.767-4.898c.603 0 1.206-.02 1.808 0 .855.038 1.322.505 1.341 1.38.02 1.205.02 2.41 0 3.635-.02.835-.486 1.321-1.302 1.34-1.264.02-2.508.02-3.771 0-.816-.019-1.283-.505-1.302-1.34-.02-1.206-.02-2.41 0-3.635.02-.875.486-1.322 1.34-1.38h1.887zm-.116 4.917c.583-.02 1.322.156 1.69-.136.39-.31.117-1.088.117-1.671.02-1.672 0-1.672-1.69-1.672-1.77 0-1.77 0-1.77 1.73-.019 1.73-.019 1.73 1.653 1.75zm-3.131 6.531c0-.602-.02-1.205 0-1.807.02-.817.506-1.303 1.322-1.322 1.263-.02 2.507-.02 3.77 0 .778.02 1.264.505 1.284 1.283.02 1.263.02 2.507 0 3.77-.02.778-.486 1.264-1.283 1.284a63.642 63.642 0 01-3.849 0c-.777-.02-1.224-.525-1.244-1.322v-1.886zm3.149 1.789c.583-.04 1.322.155 1.672-.156.369-.31.116-1.088.116-1.671.02-1.653 0-1.672-1.71-1.653-.564 0-1.322-.272-1.652.117-.273.33-.098 1.05-.098 1.613-.02 1.71-.02 1.71 1.672 1.75z" fill="#fff"/><path d="M22.912 8.266c-5.21 0-10.418-.02-15.628.02-.622 0-.777-.175-.738-.758.058-.875.02-1.75.02-2.624 0-1.77.97-2.741 2.74-2.741H35.1c.602 0 1.205-.02 1.807 0 1.478.039 2.488 1.05 2.508 2.546.02.972-.04 1.944.02 2.916.019.564-.137.68-.681.68-4.412-.02-8.825-.02-13.237-.02-.875-.019-1.73-.019-2.605-.019zm.039-2.352h2.682c.525 0 1.011-.097.992-.758-.02-.622-.467-.7-.972-.7h-5.365c-.505 0-.952.098-.972.72-.02.622.428.738.933.758.914 0 1.808-.02 2.702-.02zm7.094 3.81c.758 0 1.497.02 2.255 0 .33 0 .525.058.66.408.74 2.002 1.672 3.926 2.197 5.987.408 1.593.428 3.323-.155 4.937-.545 1.555-2.294 2.468-3.85 2.196-1.768-.31-3.012-1.71-3.07-3.44-.02-.778.02-1.555-.02-2.333-.02-.466.156-.563.583-.544.68.039 1.361 0 2.041.02.545.019 1.108-.02 1.128-.7 0-.72-.583-.758-1.166-.758-.759.02-1.497 0-2.255 0-.292 0-.428-.059-.467-.39a130.33 130.33 0 00-.602-4.82c-.059-.427.058-.544.466-.544.739 0 1.497-.02 2.255-.02zM14.32 16.916c1.011 0 2.042.02 3.052 0 .409-.02.545.116.525.525-.039.7 0 1.4-.02 2.099-.019 2.08-1.496 3.654-3.479 3.732-1.943.078-3.576-1.419-3.732-3.46-.058-.816 0-1.652-.02-2.469-.019-.369.156-.447.487-.427h3.188zm8.65 0c1.01 0 2.04.02 3.052-.019.485-.02.622.155.602.622-.078.972.097 1.944-.117 2.896-.388 1.769-2.002 2.974-3.77 2.858a3.634 3.634 0 01-3.363-3.48c-.04-.797.02-1.594-.02-2.39-.02-.39.117-.487.506-.487 1.03.02 2.08 0 3.11 0zm17.455 0c1.01 0 2.041.02 3.052 0 .37 0 .525.097.505.486-.039.875.02 1.75-.039 2.624-.155 1.866-1.768 3.285-3.634 3.266-1.905-.04-3.46-1.536-3.538-3.44-.039-.798.02-1.595-.02-2.392-.019-.427.156-.524.545-.524 1.05 0 2.099-.02 3.13-.02zm-34.795 0c1.012 0 2.042.02 3.053 0 .427-.02.544.136.524.544-.038.777 0 1.574-.019 2.39-.078 1.867-1.613 3.363-3.48 3.422-1.885.058-3.537-1.38-3.693-3.285-.077-.875-.019-1.75-.038-2.624-.02-.408.175-.486.524-.467 1.03.04 2.08.02 3.13.02zm17.3-1.457c-.991 0-1.983-.02-2.974 0-.408.019-.486-.137-.447-.506.214-1.574.408-3.168.602-4.743.04-.388.214-.525.603-.505 1.516.02 3.052.02 4.568 0 .37 0 .505.136.544.486.194 1.613.389 3.207.622 4.82.039.35-.058.467-.408.448-1.03-.02-2.08 0-3.11 0zm-11.934-.001c.72-1.885 1.419-3.674 2.08-5.481.097-.273.31-.253.525-.253h4.645c.273 0 .467 0 .409.389-.234 1.671-.428 3.362-.623 5.034-.038.253-.136.33-.369.33-2.177-.019-4.373-.019-6.667-.019zm-8.416 0c1.204-1.905 2.351-3.693 3.478-5.482.137-.233.311-.252.545-.252 1.496 0 3.013.02 4.51 0 .446 0 .485.136.33.505-.622 1.594-1.225 3.207-1.827 4.801-.117.33-.273.447-.622.428H2.579zm40.818.001h-6.57c-.194 0-.311-.078-.389-.253-.68-1.808-1.36-3.596-2.08-5.5h5.112c.273 0 .39.155.506.349a689.953 689.953 0 003.42 5.404z" fill="#26C7BC"/><path d="M22.95 5.915h-2.682c-.506 0-.953-.136-.933-.758.019-.622.466-.72.971-.72h5.365c.506 0 .953.078.972.7.02.661-.486.758-.991.758-.914.02-1.808.02-2.702.02z" fill="#fff"/><path d="M22.95 60.242h-2.1c-.524 0-.796-.272-.816-.816v-1.672c0-.544.292-.777.817-.777h4.198c.564 0 .855.252.855.835v1.594c0 .564-.291.836-.855.836h-2.1z" fill="#26C7BC"/><path d="M12.745 57.89h1.089c.466 0 .739.234.758.68.02.467-.253.74-.7.759-.797.02-1.594.02-2.39 0-.448-.02-.74-.272-.74-.739 0-.447.292-.7.74-.719.427 0 .835.02 1.243.02zm20.565 0c.389 0 .778-.019 1.166 0 .428.02.68.253.72.661.039.428-.233.739-.622.758-.875.059-1.73.04-2.605 0-.408-.019-.641-.35-.603-.758.02-.388.253-.641.642-.66.447-.02.875 0 1.302 0z" fill="#fff"/></svg>