<svg width="60" height="46" fill="none" xmlns="http://www.w3.org/2000/svg"><path d="M60 7.553c-.02 2.535-.02 5.07-.02 7.605 0 2.948.02 5.896.02 8.864-.02.334-.02.668-.059 1.002-.04.413-.334.61-.688.727-.707-.118-.766-.61-.766-1.199.02-6.544 0-13.088 0-19.633 0-1.926-.826-2.751-2.712-2.751H4.166c-1.847 0-2.692.845-2.692 2.712v27.494c0 1.847.845 2.673 2.712 2.673h51.687c1.749 0 2.614-.865 2.614-2.633 0-1.003.02-2.005 0-3.007-.02-.57.157-.944.766-1.062.53.158.727.511.727 1.042-.02 1.1 0 2.201 0 3.302-.02 1.415-.609 2.554-1.847 3.301-.275.157-.373.334-.354.63.079 1.67-.452 3.026-1.965 3.87-.275.158-.216.413-.216.65-.079 2.652-1.278 3.95-3.95 4.225-.177-.02-.335-.04-.511-.04-9.06 0-18.1 0-27.16.02-.197 0-.394.04-.59.04-.492-.02-.983-.06-1.474-.06-4.284 0-8.569-.059-12.853.02-2.103.04-3.675-.629-4.52-2.633-.04-.55-.098-1.12-.118-1.671-.02-.236-.04-.413-.275-.55-1.435-.845-1.985-2.162-1.926-3.774.02-.255.02-.51-.275-.687C.51 35.184 0 33.887.02 32.256c.02-3.183 0-6.367-.02-9.551.02-.295.04-.59.04-.884V9.518C.04 7.887.02 6.256 0 4.605.275 1.873 1.612.675 4.383.675c2.515 0 5.03-.02 7.546-.04.295.02.59.04.885.04h18.021c.275 0 .53-.02.806-.04 3.538.02 7.075.02 10.613.02 1.945 0 3.91-.02 5.856-.04 2.535.02 5.09.02 7.625.04C58.526.655 60 2.109 60 4.9c-.04.884-.02 1.768 0 2.653zM29.99 36.5H4.028c-.235 0-.314.099-.353.354-.098.943.334 2.005 1.219 2.319.923.334 1.021.924 1.002 1.75-.04 2.16.747 2.927 2.908 2.927h42.352c.315 0 .649 0 .944-.039 1.06-.157 1.768-.865 1.945-1.926.138-.904.099-.943-.825-.943H9.984c-.944 0-1.376-.236-1.317-.767.098-.805.727-.707 1.297-.707h38.677c1.768 0 3.537.02 5.286 0 1.297-.02 2.162-.826 2.339-2.083.079-.63-.02-.885-.767-.885-8.51.02-17 0-25.509 0z" fill="#fff"/><path d="M29.99 30.84H13.66c-1.377 0-1.691-.274-2.045-1.571-.707-2.634-2.338-4.422-4.874-5.385-1.179-.452-1.434-.767-1.434-2.005v-6.682c0-1.08.294-1.474 1.316-1.847 2.634-.983 4.304-2.81 5.012-5.523.295-1.159.688-1.473 1.926-1.473h32.86c1.218 0 1.63.314 1.925 1.473.688 2.713 2.378 4.56 5.012 5.523 1.022.373 1.317.766 1.317 1.847v6.84c0 1.041-.315 1.454-1.278 1.808-2.673.963-4.343 2.81-5.05 5.561-.276 1.12-.689 1.435-1.868 1.435H29.991zm.04-23.013H13.856c-.335 0-.649-.078-.787.433-.845 3.105-2.77 5.228-5.758 6.407-.314.118-.452.275-.452.629-.02 2.102-.04 4.205-.098 6.308-.02.491.118.727.61.924 2.888 1.14 4.794 3.223 5.64 6.23.137.51.334.59.786.59 3.006-.02 6.033 0 9.04 0h23.15c.394 0 .767.098.944-.512.845-3.026 2.732-5.149 5.68-6.269.354-.137.491-.314.491-.688.02-2.024.04-4.068.099-6.092.02-.629-.158-.944-.767-1.18-2.771-1.1-4.599-3.104-5.424-5.954-.197-.668-.491-.786-1.12-.786-5.287-.02-10.574-.04-15.86-.04zm24.231-2.003c0 .118-.138.314-.315.49l-2.376 2.38c-.354.354-.767.491-1.14.098-.393-.393-.256-.786.118-1.14.805-.786 1.592-1.592 2.378-2.378.255-.255.55-.412.923-.216.256.098.393.315.413.767zM56.09 7.69c-.02.315-.178.531-.374.708-.767.747-1.514 1.513-2.28 2.28-.373.373-.786.57-1.199.118-.373-.413-.216-.806.138-1.14.806-.786 1.592-1.592 2.378-2.378.255-.255.55-.393.923-.197a.701.701 0 01.413.61zM4.657 30.192c-.334-.02-.57-.157-.687-.412-.138-.256-.118-.55.078-.747.904-.924 1.808-1.848 2.752-2.732.275-.255.648-.216.923.059s.354.649.099.924c-.905.943-1.848 1.867-2.791 2.79-.118.079-.275.099-.374.118zm5.11-1.316c0 .295-.157.511-.353.688-.787.767-1.553 1.553-2.34 2.32-.353.353-.746.51-1.139.117s-.255-.786.098-1.14c.806-.806 1.612-1.63 2.437-2.437.236-.235.511-.353.865-.196.275.137.393.354.432.648z" fill="#fff"/><path d="M30.03 7.828c5.286 0 10.593.02 15.88-.02.628 0 .923.119 1.12.787.825 2.85 2.672 4.854 5.423 5.954.61.256.787.55.767 1.18a157.481 157.481 0 00-.098 6.092c0 .373-.138.57-.492.688-2.948 1.12-4.834 3.243-5.68 6.27-.176.608-.55.51-.943.51h-32.19c-.453 0-.65-.098-.787-.59-.865-2.947-2.771-5.03-5.66-6.17-.472-.177-.61-.433-.61-.924.06-2.103.08-4.206.099-6.309 0-.353.138-.51.452-.629 2.987-1.179 4.913-3.301 5.739-6.406.137-.492.452-.433.786-.433h16.193zm-.649 20.184c2.28 0 3.715-.63 4.913-1.75 3.833-3.596 4.186-10.632.728-14.601-2.988-3.44-7.547-3.302-10.299.294-2.574 3.361-2.889 8.569-.727 12.205 1.356 2.26 3.204 3.773 5.385 3.852zm-11.988-.61h1.533c.491 0 .786-.235.786-.746 0-.472-.275-.708-.727-.727H15.84c-.471 0-.707.275-.707.746 0 .472.275.708.727.727h1.533zm25.136-16.174h1.533c.452 0 .747-.196.786-.668.04-.491-.256-.766-.688-.786-1.08-.04-2.162-.04-3.223 0-.432.02-.707.295-.668.786.04.452.295.649.727.668h1.533zM44.1 18.52c-.04-.491-.373-.786-.845-.766-.432.02-.767.295-.767.806 0 .55.335.845.806.845.472.02.806-.295.806-.885zm-26.61.138c0-.59-.334-.884-.825-.884-.433 0-.786.255-.806.786-.02.55.295.845.766.884.492-.02.826-.314.865-.786zm-2.496 0c0-.59-.334-.884-.805-.884-.492 0-.787.353-.806.864-.02.511.354.786.786.786.472 0 .806-.294.825-.766zm3.36-.059c.02.53.355.825.826.825.433 0 .786-.275.786-.786 0-.51-.294-.864-.786-.864-.471-.02-.806.275-.825.825zm23.25-.098c-.02-.472-.373-.767-.845-.747-.491.02-.786.373-.766.884 0 .511.373.767.805.767.472 0 .806-.295.806-.904zm3.36.216c.04.413.354.727.846.707.432-.02.786-.294.786-.786 0-.51-.315-.864-.806-.864-.471-.02-.806.275-.825.943z" fill="#26C7BC"/><path d="M17.393 27.402H15.86c-.472 0-.727-.236-.727-.728 0-.471.236-.746.707-.746 1.042-.02 2.103 0 3.145 0 .471 0 .727.235.727.727 0 .51-.275.747-.786.747h-1.533zm25.135-16.174h-1.532c-.433 0-.688-.216-.728-.668-.039-.492.236-.767.669-.786 1.08-.04 2.161-.04 3.223 0 .432.02.727.275.688.786-.04.491-.315.688-.787.668h-1.533zM44.1 18.52c0 .589-.333.884-.805.884-.472 0-.806-.295-.806-.845 0-.511.334-.787.767-.806.491-.02.825.275.845.766zm-26.61.137c-.039.491-.373.786-.844.766-.472-.02-.806-.334-.767-.884.02-.51.374-.786.806-.786.472 0 .806.295.806.904zm-2.495 0c-.02.491-.353.766-.845.766-.432-.02-.786-.295-.786-.786.02-.51.315-.865.806-.865.472-.02.825.276.825.885zm3.36-.059c.02-.55.354-.845.826-.826.491 0 .786.374.786.865 0 .511-.354.786-.786.786-.472 0-.806-.294-.826-.825zm23.25-.098c0 .609-.334.904-.806.904-.432 0-.806-.256-.806-.767 0-.51.275-.864.767-.884.49-.02.825.275.845.747zm3.361.216c0-.649.354-.944.825-.944.492 0 .786.354.806.865 0 .511-.354.786-.786.786-.472 0-.806-.294-.845-.707zM30.03 23.412c-.335-.02-.689-.177-.689-.472-.02-.746-.471-.668-.982-.668-.649-.02-1.003-.609-.669-1.1.197-.295.511-.334.845-.354.315-.02.826.197.728-.452-.06-.413.353-1.022-.59-1.081-1.08-.079-1.887-1.16-1.867-2.201.02-1.081.845-2.005 1.946-2.162.314-.04.55-.04.55-.472 0-.412.314-.668.727-.668.373 0 .688.256.688.63 0 .55.314.51.668.49.55-.039 1.042.06 1.042.728 0 .648-.511.746-1.042.746-.275 0-.727-.137-.61.413.1.393-.412 1.022.532 1.12 1.12.118 1.906 1.12 1.906 2.182 0 1.1-.826 2.044-1.965 2.2-.354.04-.492.139-.511.512-.06.354-.354.57-.708.61zm.648-3.36c.196.216-.256.746.353.746.433 0 .649-.314.649-.727s-.256-.707-.668-.727c-.55-.02-.157.472-.334.707zm-1.396-2.929c-.177-.236.236-.707-.294-.747-.472-.039-.708.315-.708.747 0 .393.255.708.668.708.57 0 .177-.472.334-.708z" fill="#fff"/></svg>