<svg width="1000" height="1023" fill="none" xmlns="http://www.w3.org/2000/svg"><circle opacity=".1" cx="500" cy="500" r="499.5" stroke="#26C7BC"/><circle opacity=".5" cx="500" cy="500" r="399.5" stroke="#26C7BC"/><circle opacity=".25" cx="500" cy="500" r="449.5" stroke="#26C7BC"/><path d="M858.09 226.965a.5.5 0 10-.755.656l.755-.656zm38.516 61.466l.219-5.769-5.106 2.694 4.887 3.075zm-39.271-60.81c8.876 10.213 27.655 40.309 36.731 57.067l.879-.476c-9.081-16.769-27.903-46.946-36.855-57.247l-.755.656z" fill="url(#paint0_linear_52_3304)"/><path d="M974.948 657.389a.5.5 0 00-.95-.313l.95.313zm-27.316 64.764l4.716-3.33-5.242-2.419.526 5.749zm26.366-65.077c-8.609 26.15-15.395 40.163-24.935 60.783l.907.42c9.539-20.617 16.349-34.678 24.978-60.89l-.95-.313z" fill="url(#paint1_linear_52_3304)"/><path d="M540.586 998.147a.5.5 0 10-.081-.997l.081.997zm-70.342.396l4.905 3.047.185-5.772-5.09 2.725zm70.261-1.393c-27.443 2.24-43.042 1.767-65.748 1.037l-.033 1c22.717.729 38.361 1.203 65.862-1.04l-.081-.997z" fill="url(#paint2_linear_52_3304)"/><path d="M116.236 735.429a.5.5 0 00.849-.528l-.849.528zm-21.78-41.495l-.34 5.764 5.162-2.587-4.821-3.177zm22.629 40.967c-6.62-10.649-13.506-23.92-20.166-37.17l-.894.449c6.661 13.25 13.564 26.557 20.211 37.249l.849-.528z" fill="url(#paint3_linear_52_3304)"/><defs><linearGradient id="paint0_linear_52_3304" x1="857.713" y1="227.293" x2="892.268" y2="281.163" gradientUnits="userSpaceOnUse"><stop stop-color="#0E141E" stop-opacity="0"/><stop offset="1" stop-color="#26C7BC"/></linearGradient><linearGradient id="paint1_linear_52_3304" x1="974.473" y1="657.232" x2="950.5" y2="715.731" gradientUnits="userSpaceOnUse"><stop stop-color="#0E141E" stop-opacity="0"/><stop offset="1" stop-color="#26C7BC"/></linearGradient><linearGradient id="paint2_linear_52_3304" x1="540.545" y1="997.649" x2="477.329" y2="998.314" gradientUnits="userSpaceOnUse"><stop stop-color="#0E141E" stop-opacity="0"/><stop offset="1" stop-color="#26C7BC"/></linearGradient><linearGradient id="paint3_linear_52_3304" x1="115.495" y1="731.777" x2="98.038" y2="700.052" gradientUnits="userSpaceOnUse"><stop stop-color="#0E141E" stop-opacity="0"/><stop offset="1" stop-color="#26C7BC"/></linearGradient></defs></svg>