<svg width="60" height="60" fill="none" xmlns="http://www.w3.org/2000/svg"><path d="M5.048 20.073c-.252-.739-.508-1.477-.754-2.217-.438-1.317.07-2.336 1.377-2.808 4.171-1.507 8.34-3.022 12.512-4.535.08-.029.157-.077.234-.115 2.696-.965 5.396-1.923 8.088-2.9C32.672 5.26 38.835 3.01 45.002.768c1.4-.51 2.395-.041 2.917 1.378 1.075 2.921 2.143 5.842 3.215 8.765 1.518 4.188 3.042 8.373 4.547 12.564.127.353.323.476.676.524.688.094 1.374.216 2.05.375 1.118.26 1.755 1.253 1.557 2.384-.41 2.33-.834 4.66-1.242 6.99-.597 3.395-1.184 6.791-1.775 10.188-.237 1.333-.439 2.673-.722 3.996-.248 1.168-.223 2.401-.825 3.485-.664.706-1.458.841-2.397.669-3.242-.596-6.492-1.14-9.738-1.727-.38-.069-.52-.038-.499.385.037.693.024 1.39.033 2.087l-.005 2.424c.027 1.038-.083 2.043-.723 2.914-.866.928-1.932 1.267-3.197 1.263a9416.51 9416.51 0 00-34.933 0c-1.265.002-2.333-.328-3.204-1.25-.553-.805-.744-1.693-.72-2.667.039-1.682.017-3.364.005-5.047-.004-.493.144-.83.675-.904.555.101.695.472.692.984-.013 1.683-.006 3.366-.004 5.05.002 1.743.74 2.476 2.503 2.476H38.9c.156 0 .315.005.472-.002 1.181-.049 2.04-.886 2.047-2.062.017-2.918 0-5.835.013-8.753.002-.37-.103-.517-.492-.506-.963.027-1.929.016-2.894.022-2.084-.008-4.167-.004-6.25-.024-1.265-.012-2.108-.85-2.114-2.109-.012-2.532 0-5.064-.005-7.595a2.01 2.01 0 01.722-1.593c.45-.393.99-.47 1.567-.476 2.035-.021 4.074.07 6.107-.056.897.008 1.797-.016 2.693.033.543.029.677-.16.671-.683-.025-2.694-.01-5.388-.01-8.083 0-1.826-.68-2.501-2.524-2.501H17.684c-4.67 0-9.342.003-14.012-.004-.603-.002-1.16.085-1.622.51-.521.477-.67 1.07-.669 1.76.011 6.759.004 13.518.011 20.275 0 .535-.05 1.001-.697 1.115-.51-.076-.684-.391-.672-.88.013-.482-.014-.964-.023-1.447l.002-15.09c.01-1.364.02-2.726.032-4.089.018-2.051 1.283-3.395 3.337-3.523.647-.04 1.295-.032 1.942-.045.447.117.655.044.421-.471-.259-.566-.367-1.187-.686-1.724zm24.632 2.195c.056.063.108.058.16-.003l1.371-.008.897-.014c.42.078.841.063 1.26.01.932-.008 1.865-.014 2.796-.02.454.091.91.077 1.365.012.584.005 1.167.002 1.75.018 2.086.056 3.48 1.479 3.495 3.557l.016 2.222-.002 2.8c-.003 1.254-.002 2.506-.018 3.76-.004.299.086.48.353.648.645.405 1.005.99 1.003 1.783-.007 2.552-.002 5.102-.003 7.654 0 .751-.316 1.331-.946 1.747-.171.114-.448.16-.387.472-.004.472.029.947-.024 1.414-.052.457.128.614.553.688 3.36.581 6.713 1.183 10.07 1.772.743.13.972-.05 1.104-.798l.733-4.173a33723.98 33723.98 0 013.398-19.206c.1-.556-.14-.862-.668-.965-.461-.09-.931-.15-1.39-.245-.218-.047-.32-.021-.368.225-.187 1.007-.891 1.47-1.799 1.792-1.113.395-2.255.717-3.308 1.272-1.618.423-3.15 1.088-4.715 1.657-.515.187-.935.212-1.346-.164-.056-.614.24-.906.82-1.11 2.744-.967 5.475-1.979 8.209-2.98.855-.314.956-.523.655-1.348a81996.62 81996.62 0 00-8.003-21.964c-.344-.946-.494-1.013-1.436-.67A135014.26 135014.26 0 006.264 16.302c-.82.299-.92.5-.63 1.3.511 1.41 1.03 2.819 1.541 4.229.085.232.126.477.468.463 1.187-.05 2.38.084 3.565-.08.245.017.49.047.734.049 2.785.004 5.567.005 8.352 0 .851-.002 1.702-.03 2.553-.047.483.124.97.101 1.456.02 1.264.038 2.528.065 3.793-.015.524.092 1.053.078 1.584.047zm7.273 14.084c-1.682 0-3.366.01-5.048-.005-.575-.006-.883.192-.88.816.012 2.467.006 4.936.004 7.404 0 .556.28.831.825.831 3.343.004 6.687.004 10.03 0 .598 0 .895-.286.892-.914-.013-2.401-.002-4.802-.008-7.203-.002-.769-.17-.925-.967-.927-1.615-.004-3.23-.002-4.848-.002z" fill="#fff"/><path d="M38.043 46.769c.965-.005 1.93.005 2.894-.022.39-.01.494.135.492.506-.013 2.918.003 5.836-.013 8.753-.007 1.176-.866 2.014-2.047 2.062-.157.008-.314.002-.472.002H3.885c-1.763 0-2.503-.731-2.503-2.476 0-1.684-.007-3.366.003-5.05.004-.512-.136-.883-.691-.983l-.006-2.227c.645-.113.697-.58.697-1.114-.007-6.76 0-13.519-.01-20.276-.002-.688.147-1.282.668-1.76.464-.425 1.02-.51 1.623-.51 4.67.008 9.341.004 14.011.004h21.22c1.844 0 2.523.676 2.523 2.502 0 2.694-.013 5.389.01 8.083.006.524-.13.713-.671.682-.895-.048-1.796-.025-2.693-.032-.003-2.122-.014-4.241-.009-6.363.002-.582-.164-1.05-.693-1.345.03-.656-.308-.93-.935-.915-.243.005-.488.004-.733 0-.527-.006-.837.234-.879.776l-1.642-.023c-.236-.739-.391-.8-1.668-.757-.531.018-.85.233-.877.79l-1.64-.035c-.094-.477-.355-.76-.87-.751-.269.004-.54.002-.81 0-.534-.002-.848.236-.867.796a5.97 5.97 0 00-1.7.01c.007-.568-.307-.804-.841-.806h-.807c-.535.002-.852.23-.843.803a5.995 5.995 0 00-1.704-.005c-.002-.443-.22-.728-.657-.784-.308-.04-.623-.009-.937-.016-.556-.013-.899.21-.904.812-.562-.102-1.127-.077-1.691-.021-.022-.546-.328-.771-.852-.793-1.28-.054-1.46.02-1.698.764l-1.637.02c-.031-.508-.306-.766-.809-.78-.288-.01-.578 0-.866-.002-.528-.005-.84.232-.88.778a499.77 499.77 0 00-1.642-.025c-.174-1.014-.976-.708-1.599-.747-.632-.042-.976.25-.938.914-.787.418-.726 1.137-.658 1.859-.536.036-.733.348-.71.855.013.269.017.539 0 .805-.032.52.2.804.716.86-.004.558-.01 1.116-.013 1.674-.493.035-.75.312-.69.793.081.641-.383 1.507.678 1.783.001.537.005 1.075.007 1.612-.542.045-.751.378-.686.873.08.62-.377 1.473.686 1.7-.011.544-.024 1.088-.034 1.63-.481.069-.685.35-.661.829.016.31.009.621.001.93-.012.484.211.75.696.793l-.022 1.621c-.344.092-.632.258-.66.65-.024.377-.003.755-.014 1.133-.012.486.215.75.7.784.005.558.008 1.118.014 1.676-.52.053-.746.339-.715.858a7.06 7.06 0 010 .805c-.026.508.176.817.71.853-.031.714-.204 1.475.662 1.868-.043.364.049.708.41.816.553.167 1.135.16 1.693-.007.263-.08.371-.3.346-.575.57.002 1.137.006 1.706.007.214.82.879.642 1.46.67.534.026.978-.066 1.128-.671l1.594.001c.297.883 1.044.629 1.676.665.489.027.806-.184.915-.672.551-.002 1.104-.003 1.655-.007.116.637.582.704 1.105.679.572-.027 1.255.178 1.435-.68.553 0 1.106 0 1.659-.003.104.652.583.706 1.102.681.572-.029 1.262.186 1.44-.68l1.656.005c.255.97 1.053.621 1.673.67.46.036.778-.179.857-.667l1.66.002c.303.666 1.856.953 2.35.43a.51.51 0 00.13-.434l1.706.008c.274.94 1.054.623 1.675.659.6.034.919-.267.883-.89.536-.218.69-.67.691-1.187.006-2.163-.003-4.333-.007-6.503z" fill="#26C7BC"/><path d="M22.846 22.215c-.852.016-1.702.045-2.554.046-2.784.006-5.567.004-8.351 0-.245 0-.49-.03-.735-.048.022-.038.036-.087.069-.114 1.757-1.561 2.382-3.481 1.788-5.765-.103-.394.151-.4.373-.48 1.22-.447 2.442-.894 3.665-1.339 8.974-3.269 17.95-6.537 26.926-9.803.953-.345 1.153-.25 1.502.706 1.637 4.487 3.266 8.977 4.912 13.46.142.388.104.561-.3.763-2.418 1.217-3.533 3.62-2.888 6.237.104.421.004.54-.353.668-1.374.486-2.74.996-4.108 1.497l-.016-2.223c-.015-2.076-1.409-3.5-3.494-3.557-.584-.016-1.167-.012-1.75-.018.2-2.024-.302-3.874-1.487-5.51-1.709-2.36-4.041-3.547-6.957-3.226-2.687.295-4.547 1.842-5.664 4.291-.645 1.412-.674 2.905-.578 4.415zm19.678-8.717c-1.742-.006-3.147 1.408-3.152 3.171-.006 1.765 1.383 3.186 3.121 3.197 1.77.01 3.234-1.442 3.218-3.197-.014-1.718-1.47-3.166-3.187-3.171zm-5.51-3.12c.083-.021.215-.046.339-.091 2.123-.773 4.243-1.556 6.37-2.32.46-.166.794-.422.627-.93-.188-.57-.65-.505-1.113-.336-1.093.4-2.188.792-3.282 1.19-1.071.391-2.143.782-3.214 1.178-.37.135-.526.409-.454.793.072.363.317.52.727.516zm.816 2.315c.067-.01.137-.004.2-.027 1.808-.656 3.618-1.306 5.42-1.978.365-.137.48-.475.361-.835-.126-.38-.454-.508-.812-.406-.493.139-.97.337-1.455.514-1.302.473-2.606.949-3.906 1.428-.379.139-.61.396-.514.823.081.356.351.495.706.48zm9.518 2.604c-.06-.423-.293-.647-.722-.625-.396.02-.625.245-.62.64.006.42.273.682.672.678.406-.005.627-.29.67-.693zm-4.56 15.548c.784-.103 1.452-.595 2.242-.672.411.376.83.35 1.346.164 1.565-.57 3.098-1.236 4.715-1.657.67 2.028 1.93 3.461 4.056 4.016.426.112.268.382.223.63-.515 2.932-1.036 5.862-1.55 8.794-.327 1.852-.642 3.705-.97 5.557-.122.695-.38.868-1.066.747-1.3-.229-2.597-.48-3.903-.68-1.702-.264-3.378-.678-5.096-.835-.062-.311.216-.358.387-.471.63-.416.945-.996.945-1.748.002-2.551-.003-5.102.004-7.654.002-.792-.357-1.378-1.003-1.783-.267-.167-.357-.35-.353-.648.02-1.255.018-2.509.023-3.76zm8.344 6.06c.015-1.783-1.342-3.197-3.088-3.22-1.798-.026-3.239 1.372-3.25 3.146-.01 1.74 1.407 3.179 3.141 3.19 1.773.012 3.183-1.366 3.197-3.116zm-2.72 7.823c-.024.998.372 1.465 1.207 1.618.977.178 1.601-.065 1.809-.82.187-.686.306-1.403.36-2.112.057-.755-.472-1.23-1.37-1.358-.864-.123-1.485.176-1.667.88-.167.65-.252 1.32-.338 1.792zm-1.867.227c-.041.49-.023.813.395.872.42.06.605-.196.67-.576.149-.88.297-1.76.457-2.637.148-.81-.242-1.223-1.072-1.117-.403.053-.695.535-.41.766.553.45.236.933.192 1.397-.048.488-.172.968-.232 1.295zm6.354-7.229c-.023-.4-.229-.663-.657-.657-.43.003-.66.302-.663.69-.004.37.256.617.64.637.428.018.646-.23.68-.67z" fill="#26C7BC"/><path d="M36.952 36.352c1.616 0 3.231-.003 4.847.002.796.002.965.158.967.927.005 2.401-.005 4.802.007 7.203.004.628-.293.914-.891.914-3.343.004-6.687.004-10.03 0-.546 0-.825-.277-.825-.832.002-2.467.007-4.936-.004-7.403-.003-.622.305-.82.88-.816 1.685.014 3.367.005 5.05.005zm-.093 4.497c-.004-.879-.658-1.523-1.535-1.513-.843.011-1.471.649-1.478 1.499-.008.868.655 1.56 1.5 1.565.84.007 1.516-.684 1.513-1.55zm-.695-18.615c-.931.007-1.864.012-2.795.02-.135-1.225-.915-1.937-2.127-1.774-.699.093-.764-.32-.919-.759-.21-.598.366-.414.579-.581.135-.107.333-.127.49-.21.297-.158.396-.426.308-.74-.094-.324-.35-.47-.674-.416-.261.044-.52.132-.767.231-.29.115-.517.218-.67-.205-.116-.32-.443-.357-.748-.278-.311.081-.441.337-.382.622.08.383-.082.54-.394.724-.868.513-1.158 1.505-.78 2.384.177.409.53.654.805.97-1.264.08-2.528.051-3.793.015-.216-.679-.17-1.38-.131-2.07.21-3.72 3.695-6.21 7.276-5.22 2.83.778 5.102 3.841 4.722 7.287z" fill="#26C7BC"/><path d="M31.21 22.258c-.001-.196-.185-.472.146-.538.4-.082.667.11.752.524l-.897.014zm-1.53.01c.055-.002.107-.003.161-.003-.052.06-.106.068-.16.003z" fill="#26C7BC"/><path d="M12.171 27.075c-.202.724-.794.573-1.311.582-.508.009-1.057.093-1.243-.585.04-.546.351-.784.88-.778.287.001.577-.006.865.001.503.016.778.274.809.78zM9.602 54.699c.16-.879.85-.672 1.428-.699.544-.025 1.052 0 1.16.697-.15.605-.595.697-1.128.672-.582-.029-1.246.15-1.46-.67zm25.201 0c.095-.535.432-.752.95-.697.563.057 1.233-.242 1.607.464.036.625-.28.926-.882.89-.622-.034-1.401.283-1.675-.657zm2.565-27.49c-.63.73-2.12.652-2.547-.137.042-.544.352-.784.88-.776.244.001.487.005.732 0 .625-.017.965.257.935.913zM4.771 33.266c.476.088.672.401.642.852-.045.635.279 1.42-.654 1.721-1.061-.273-.595-1.14-.677-1.783-.062-.479.196-.756.69-.79zm-.005 4.186c.495.112.684.445.65.922-.043.618.252 1.373-.652 1.652-1.06-.229-.603-1.08-.686-1.7-.063-.496.146-.829.688-.874zm-.022 8.378c.89.242.637.973.671 1.579.027.484-.084.882-.643.986-.488-.034-.713-.298-.7-.783.009-.378-.013-.756.014-1.133.025-.392.314-.558.658-.65zm11.614-18.745c-.107.448-.422.617-.845.567-.609-.072-1.392.324-1.707-.596.237-.744.418-.818 1.698-.764.528.022.832.247.854.793zM4.73 41.656c.467.144.755.413.688.946-.074.594.274 1.358-.652 1.605-.484-.044-.708-.31-.695-.793.009-.31.014-.621-.002-.931-.023-.477.182-.758.661-.827zM13.783 54.7c.083-.51.407-.709.897-.7.292.006.584.006.874 0 .479-.01.761.208.82.692-.11.488-.428.699-.914.672-.634-.036-1.381.218-1.677-.665zM7.976 27.046c-.387.805-1.895.905-2.54.168-.037-.665.308-.956.939-.915.625.041 1.426-.265 1.6.747zm25.2.002c-.13.5-.479.672-.956.607-.567-.078-1.31.308-1.59-.573.027-.558.346-.773.877-.79 1.28-.046 1.435.017 1.67.756zm-4.186-.003c-.212.747-.822.612-1.366.61-.48-.001-1.02.11-1.18-.565.02-.56.334-.798.868-.796.27.002.539.004.81 0 .512-.007.773.274.869.751zM4.778 29.072c.449.074.634.364.636.79.002.397.016.799-.033 1.191-.04.312-.282.485-.596.537-.515-.056-.747-.34-.715-.859a7.067 7.067 0 000-.805c-.025-.506.173-.818.708-.854zm.007 21c.443.081.636.368.63.796-.005.418.003.84-.059 1.25-.041.283-.284.432-.576.468-.535-.037-.737-.345-.71-.853a7.062 7.062 0 000-.805c-.032-.517.197-.803.715-.856zM24.741 27.1c-.086.38-.335.556-.715.555-.421-.004-.843.009-1.26-.027-.296-.026-.456-.244-.516-.53-.01-.572.308-.801.843-.803h.807c.537.002.85.236.841.805zM5.443 54.458c.353-.43 1.74-.641 2.207-.35.23.145.225.363.245.582.025.276-.083.496-.346.575a2.9 2.9 0 01-1.693.007c-.364-.108-.456-.45-.413-.814zm16.784.224c.063-.472.333-.693.806-.68.287.007.573.01.86-.002.491-.022.805.173.877.682-.179.866-.869.652-1.441.681-.519.025-.996-.027-1.102-.68zm8.39.012c.069-.512.377-.714.872-.694.308.011.618.002.927.004.452.004.703.213.681.688a.51.51 0 01-.131.434c-.494.52-2.046.234-2.349-.432zm-12.587-.007c.061-.474.332-.695.807-.685.308.008.618.006.928 0 .471-.009.747.207.805.685-.18.857-.863.652-1.436.679-.524.025-.99-.042-1.104-.68zm2.518-27.594c-.09.42-.375.573-.776.564-.398-.007-.8.005-1.196-.025-.301-.024-.454-.247-.526-.526.005-.602.347-.823.904-.812.311.007.628-.024.936.016.438.056.656.338.658.783zm5.878 27.595c.054-.48.331-.695.805-.686.31.006.62.004.93 0 .471-.005.756.2.795.69-.08.488-.396.702-.857.666-.62-.048-1.418.301-1.673-.67zm10.588-44.309c-.41.001-.657-.155-.726-.52-.074-.385.085-.657.454-.792 1.07-.394 2.141-.787 3.215-1.177 1.093-.398 2.188-.791 3.281-1.19.463-.17.926-.235 1.113.336.168.508-.169.765-.627.93-2.127.765-4.246 1.546-6.37 2.319-.126.049-.257.072-.34.094zm.816 2.311c-.356.015-.624-.122-.705-.482-.098-.425.135-.684.513-.823 1.3-.48 2.604-.953 3.906-1.428.483-.177.96-.373 1.456-.514.358-.1.688.026.812.406.119.362.003.7-.362.835-1.801.672-3.611 1.322-5.42 1.978-.06.027-.133.021-.2.029zm9.519 2.606c-.044.405-.265.69-.67.694-.4.003-.667-.258-.672-.68-.005-.394.223-.619.62-.639.428-.021.66.202.722.625zm5.549 22.431c-.036.439-.252.688-.68.668-.382-.018-.642-.267-.64-.638.004-.387.234-.684.663-.69.43-.003.634.26.657.66z" fill="#fff"/><path d="M29.389 20.844c-.02.275-.21.308-.384.286-.38-.048-.609-.288-.61-.67 0-.29.223-.612.46-.564.467.1.301.665.534.948zm15.29-4.097c-.105 1.127-.807 1.932-1.828 2.098-.957.155-1.958-.416-2.33-1.33-.388-.947-.109-1.946.723-2.575a2.087 2.087 0 013 .5c-.49.705-.365 1.08.435 1.307zm-1.479-.035c-.025-.299-.216-.563-.657-.55-.402.01-.602.25-.61.642-.012.442.251.68.655.67.365-.007.612-.236.612-.762z" fill="#26C7BC"/><path d="M44.68 16.746c-.8-.227-.925-.601-.435-1.305.433-.105.832-.074.993.412.16.486-.121.751-.559.893z" fill="#fff"/><path d="M49.776 38.002c-.659.926-1.586 1.246-2.56.882-.962-.358-1.49-1.266-1.371-2.357.102-.931.855-1.666 1.87-1.828 1.154-.184 2.252.708 2.36 1.916-.79.425-.846.688-.299 1.387zm-1.188-1.009c.025-.418-.211-.657-.582-.688-.409-.034-.71.213-.719.627-.01.398.222.68.663.683.403 0 .605-.233.638-.622z" fill="#26C7BC"/><path d="M49.776 38.002c-.547-.699-.492-.962.3-1.387.422.155.784.368.653.908-.124.517-.539.508-.953.479z" fill="#fff"/><path d="M49.485 44.838c.094-.479.193-.958.278-1.439.066-.38.342-.272.572-.25.256.023.42.151.37.438-.085.48-.175.961-.264 1.442-.068.373-.35.254-.581.247-.283-.01-.402-.157-.375-.438z" fill="#26C7BC"/><path d="M43.2 16.713c0 .524-.246.754-.614.761-.403.01-.666-.228-.655-.67.009-.392.209-.632.61-.642.444-.013.633.252.66.55zm5.387 20.28c-.03.389-.234.623-.638.621-.441-.002-.673-.284-.663-.682.011-.415.31-.661.72-.627.37.029.604.27.58.688z" fill="#fff"/></svg>