<svg width="46" height="66" fill="none" xmlns="http://www.w3.org/2000/svg"><path d="M24.973 40.858v9.735c0 .205.004.412-.013.615-.033.4-.265.653-.654.662-.427.01-.665-.262-.702-.687-.018-.204-.01-.41-.011-.616-.006-1.325.024-2.652-.027-3.976-.039-1.032-.834-1.763-1.813-1.783-.986-.02-1.808.753-1.903 1.789-.068.755-.009.779.744.782.557.002.47-.344.491-.683.032-.45.259-.739.741-.71.447.028.607.32.63.743.074 1.303-.58 1.998-1.906 2.016-.22.004-.588-.106-.632.077-.1.407-.123.865-.044 1.278.059.307.43.137.656.144.471.015.832.154.84.682.007.523-.334.708-.814.702-.092-.002-.185.011-.273-.002-.378-.058-.453.123-.448.468.019 1.393-.025 2.79.02 4.18.14 4.288 3.586 7.9 7.867 8.115 2.644.132 5.301.12 7.95.037 4.94-.156 8.415-3.822 8.42-8.775.004-3.244-.012-6.49.013-9.734.004-.581-.08-.891-.757-.803-.47.06-.898-.106-.896-.684.002-.583.432-.672.905-.687.218-.007.526.12.633-.108.119-.257-.074-.528-.22-.757-.409-.638-1.258-.977-1.97-.805-.77.187-1.362.785-1.414 1.573-.062.955-.037 1.917-.05 2.876-.005.445-.192.788-.66.803-.507.016-.714-.334-.716-.81-.004-.595-.04-1.192.01-1.782.049-.612-.065-.953-.787-.85-.456.063-.847-.14-.86-.657-.013-.563.389-.718.882-.711.16.002.32 0 .48-.007.152-.006.264-.07.266-.242.005-.66.077-1.331-.345-1.916-.454-.63-1.263-.927-1.996-.718-.85.242-1.389.933-1.398 1.886a277.19 277.19 0 00-.002 4.936c.004.478-.154.852-.653.869-.54.018-.73-.367-.727-.873.007-.753.005-1.508 0-2.262-.002-.34.084-.742-.064-1.004-.154-.271-.585-.073-.891-.12-.418-.062-.693-.276-.68-.71.01-.396.267-.602.661-.655.31-.042.745.141.9-.111.156-.255.068-.662.074-1.001.005-.32.016-.642-.013-.959-.066-.75-.467-1.28-1.155-1.565-1.237-.519-2.538.375-2.553 1.776-.022 2.216-.007 4.432-.007 6.65 0 .478-.198.837-.697.837-.5 0-.689-.352-.682-.837.013-.891.013-1.782 0-2.674-.005-.362.147-.792-.077-1.065-.19-.235-.606-.048-.918-.098-.383-.062-.638-.254-.643-.669-.006-.41.225-.63.62-.681a1.82 1.82 0 01.478-.015c.482.071.566-.167.553-.588-.026-.913-.003-1.828-.01-2.742-.005-.407.085-.877-.085-1.203-.141-.27-.634-.042-.962-.117-.376-.086-.616-.304-.596-.717.02-.37.23-.563.597-.634.341-.068.818.19 1-.176.146-.295.041-.717.047-1.081.002-.184-.022-.369.006-.549.086-.56-.123-.733-.7-.725-1.36.016-1.988-.678-1.924-1.984.022-.462.222-.766.682-.773.426-.007.65.286.691.704.013.135-.014.278.015.41.1.451.473.244.733.27.2.018.446.097.504-.275.174-1.093-.69-2.192-1.798-2.24-1.17-.05-1.956.783-1.96 2.126-.008 3.285-.001 6.575-.003 9.865zM20.107 7.283c4.89 0 9.782-.015 14.672.016.682.004.862-.19.809-.84-.06-.725-.013-1.46-.015-2.192-.004-1.88-.884-2.754-2.779-2.754h-18.65c-2.331 0-4.663-.006-6.994.001-1.637.006-2.55.917-2.56 2.537-.006.845.036 1.694-.015 2.537-.035.58.155.711.72.707 4.938-.023 9.876-.012 14.812-.012zm-18.183 8.69c0 2.694.017 5.39-.013 8.084-.005.565.264.549.666.552.408.004.665 0 .656-.557-.035-2.306.115-4.625-.083-6.914-.071-.83-.016-1.582.026-2.388.121-2.255.024-4.52.055-6.782.007-.53-.152-.647-.652-.641-.479.005-.675.08-.67.628.032 2.673.015 5.345.015 8.017zM36.95 11.24c0 1.142.017 2.284-.009 3.426-.009.39.11.544.497.485.32-.05.779.173.777-.458a611.24 611.24 0 01.004-6.851c.003-.61-.409-.455-.75-.499-.443-.059-.533.138-.526.54.024 1.119.007 2.239.007 3.357z" fill="#fff"/><path fill-rule="evenodd" clip-rule="evenodd" d="M3.183 53.55c.01-.228.028-.455.028-.683.002-8.717-.006-17.434.015-26.152.001-.58-.107-.852-.735-.748-.266.044-.548.026-.82 0-.592-.053-.988-.36-1.061-.97a12.1 12.1 0 01-.066-1.365c-.018-2.28-.031-4.56-.044-6.84l.046-7.6c.003-.64-.017-1.279.022-1.917.057-.942.449-1.29 1.391-1.308 1.248-.026 1.248-.026 1.257-1.28v-.022c.006-.614-.047-1.228.134-1.835C3.79 1.348 5.031.303 6.565.16c.271-.026.548-.026.821-.026 8.45-.002 16.9-.002 25.348 0 2.745 0 4.214 1.478 4.215 4.238v.41c0 1.08 0 1.08 1.09 1.197.923.1 1.52.745 1.544 1.694.02.843.022 1.688.033 2.533-.01 1.481-.018 2.964-.03 4.445-.012 1.233-.628 1.904-1.836 1.858-.661-.025-.82.153-.817.814.03 5.541.013 11.084.022 16.627 0 .537-.042 1.01-.654 1.191-.646-.104-.734-.542-.732-1.107.011-8.202-.002-16.403.022-24.605.002-.638-.172-.783-.79-.78-9.8.02-19.601.02-29.402-.003-.643-.002-.826.127-.824.805.023 13.433.016 26.867.016 40.299 0 .113.013.229-.002.342-.044.341.063.492.444.475.775-.033 1.552-.02 2.33-.026 2.296.004 4.593.013 6.888.004.535-.002.947.115 1.08.698-.089.576-.466.699-.989.697-3.059-.013-6.118.002-9.177-.015-.431-.002-.605.086-.583.56.038.842.01 1.687.01 2.532.005 1.815.872 2.691 2.679 2.693 3.31.004 6.62.002 9.93.002 1.423 0 1.423 0 1.25-1.406l.008-3.162-.018-1.902c.009-1.525.009-3.05.029-4.575.018-1.441.975-2.675 2.342-3.11.955-.303 1.83-.038 2.73.37v-3.674c.119-.995.053-1.996.047-2.993-.01-1.838.075-3.679-.047-5.515.007-.114.027-.228.022-.341-.055-1.272.249-2.396 1.283-3.24.165-.227.835-.679 2.188-.679 1.045.077 1.857.544 2.48 1.384.65.876.583 1.89.616 2.89v5.347c.97-.585 1.928-.731 2.93-.37 1.016.364 1.649 1.127 2.046 2.117.404-.292.803-.45 1.21-.596 1.963-.25 3.494.649 3.902 2.387.134.57.292.476.693.302a3.23 3.23 0 014.383 1.941c.188.574.177 1.17.18 1.763.003 1.553.016 3.105.025 4.658-.011 1.748-.066 3.499-.024 5.247.048 1.976-.16 3.895-.968 5.72-.086.13-.18.256-.258.39-1.848 3.176-4.584 4.978-8.274 5.12a100.16 100.16 0 01-7.942.006c-4.216-.172-7.14-2.335-8.835-6.162-.194-.44-.408-.548-.85-.546-3.607.013-7.214-.032-10.82.018-1.44.02-2.643-.363-3.596-1.455-.704-.988-.777-2.114-.724-3.268.015-.28-.015-.556-.026-.829zm21.79-2.957v-9.735c.002-3.29-.005-6.58.004-9.865.003-1.343.79-2.175 1.96-2.126 1.106.048 1.971 1.147 1.797 2.24-.058.372-.304.293-.504.275-.26-.026-.632.181-.733-.27-.03-.132-.002-.275-.015-.41-.042-.418-.265-.711-.69-.704-.46.007-.66.311-.683.773-.064 1.306.563 2 1.923 1.984.578-.008.787.165.7.725-.027.18-.003.365-.005.549-.006.364.099.786-.048 1.081-.181.367-.658.108-.999.176-.366.071-.577.264-.597.634-.02.413.22.63.596.717.328.075.82-.152.962.117.17.326.08.796.084 1.203.008.914-.015 1.829.011 2.742.013.421-.071.66-.553.588a1.82 1.82 0 00-.479.015c-.394.05-.625.27-.62.681.006.415.26.607.644.67.312.049.728-.138.918.097.224.273.072.703.077 1.065.013.892.013 1.783 0 2.674-.007.485.182.837.682.837.499 0 .697-.359.697-.837 0-2.218-.015-4.434.007-6.65.015-1.4 1.316-2.295 2.553-1.776.688.286 1.089.815 1.155 1.565.03.317.018.64.013.959-.006.339.082.746-.073 1-.156.253-.59.07-.9.112-.395.053-.651.259-.662.655-.013.434.262.648.68.71.306.047.737-.151.89.12.15.262.063.663.065 1.004.005.754.007 1.509 0 2.262-.004.506.187.891.727.873.499-.017.657-.39.653-.87a277.19 277.19 0 01.002-4.935c.009-.953.548-1.644 1.398-1.886.733-.21 1.542.088 1.996.718.422.585.35 1.256.345 1.916-.002.172-.114.236-.266.242-.16.007-.32.009-.48.007-.493-.007-.895.148-.882.711.013.517.404.72.86.656.722-.102.836.239.786.85-.05.591-.013 1.188-.009 1.782.002.477.21.827.717.81.467-.014.654-.357.66-.802.012-.959-.013-1.921.05-2.876.05-.788.642-1.386 1.412-1.573.713-.172 1.562.167 1.97.805.147.229.34.5.22.757-.106.227-.414.1-.632.108-.473.015-.903.104-.905.687-.002.578.425.745.896.684.677-.088.76.222.757.803-.025 3.244-.009 6.49-.013 9.734-.005 4.953-3.48 8.619-8.42 8.775-2.649.082-5.306.095-7.95-.037-4.281-.214-7.727-3.827-7.866-8.114-.046-1.392-.002-2.788-.02-4.181-.006-.345.07-.526.447-.468.088.013.181 0 .273.002.48.006.821-.18.814-.702-.008-.528-.369-.667-.84-.682-.225-.007-.597.163-.656-.144a3.064 3.064 0 01.044-1.278c.044-.183.412-.073.632-.077 1.325-.018 1.98-.713 1.906-2.016-.023-.424-.183-.715-.63-.742-.482-.03-.71.26-.74.709-.022.339.066.685-.492.684-.753-.004-.812-.028-.744-.783.095-1.036.917-1.81 1.903-1.79.979.021 1.774.752 1.813 1.784.05 1.324.021 2.65.027 3.976.002.205-.007.412.01.616.038.425.276.696.703.687.389-.009.621-.262.654-.661.017-.204.013-.411.013-.616zM34.78 7.299c-4.89-.031-9.782-.016-14.672-.016-4.936 0-9.874-.011-14.812.012-.565.004-.755-.128-.72-.707.05-.843.009-1.692.014-2.537.011-1.62.924-2.531 2.56-2.537 2.332-.007 4.664-.001 6.995-.001h18.65c1.895 0 2.775.874 2.779 2.754.002.732-.044 1.467.015 2.193.053.648-.127.843-.809.84zM1.911 24.057c.03-2.694.013-5.39.013-8.085 0-2.672.017-5.344-.014-8.017-.006-.548.19-.623.669-.628.5-.006.66.111.652.641-.031 2.262.066 4.527-.055 6.782-.042.806-.097 1.558-.026 2.388.198 2.29.048 4.608.083 6.914.009.557-.248.56-.656.557-.402-.004-.671.013-.666-.552zm35.03-9.391c.025-1.142.008-2.284.008-3.426 0-1.118.017-2.238-.007-3.356-.007-.403.083-.6.526-.54.341.043.753-.113.75.498a611.24 611.24 0 00-.004 6.851c.002.63-.456.409-.777.458-.387.059-.506-.095-.497-.485z" fill="#fff"/><path d="M24.975 40.858c0-3.29-.007-6.582.004-9.872.003-1.344.79-2.176 1.959-2.127 1.109.048 1.974 1.148 1.798 2.24-.059.372-.304.294-.504.275-.26-.023-.632.182-.733-.27-.03-.131-.002-.274-.015-.41-.042-.418-.266-.71-.69-.704-.46.008-.66.312-.683.774-.064 1.305.563 2 1.923 1.983.577-.007.786.165.7.726-.027.178-.002.365-.005.548-.006.365.1.786-.048 1.081-.183.367-.658.109-.999.176-.365.072-.577.264-.597.635-.022.412.22.63.595.716.328.075.823-.152.963.118.17.326.08.795.084 1.202.007.915-.017 1.83.01 2.742.014.422-.07.662-.553.588a1.675 1.675 0 00-.478.015c-.394.051-.625.271-.62.682.006.414.26.607.644.669.311.05.727-.136.918.097.224.273.073.704.077 1.065.013.89.013 1.782 0 2.674-.007.486.181.838.682.838.498 0 .696-.36.696-.838-.001-2.216-.014-4.434.008-6.65.014-1.398 1.316-2.293 2.553-1.776.685.288 1.089.816 1.155 1.566.027.317.018.64.013.958-.006.341.08.746-.074 1.001-.156.255-.59.07-.9.112-.394.053-.65.258-.661.654-.013.435.262.649.68.711.306.046.735-.152.89.12.15.262.063.663.065 1.004.005.753.007 1.508 0 2.262-.006.506.187.89.727.872.499-.016.656-.39.653-.869-.013-1.646-.017-3.29.002-4.936.01-.955.548-1.646 1.398-1.886.733-.207 1.542.088 1.996.719.422.586.35 1.255.345 1.915-.002.172-.114.235-.266.242-.16.007-.32.01-.48.007-.493-.005-.895.15-.882.712.011.517.403.72.86.656.722-.101.836.24.786.85-.048.59-.01 1.188-.01 1.782.005.478.21.827.718.81.467-.015.654-.357.66-.803.012-.958-.015-1.92.049-2.876.051-.788.643-1.385 1.413-1.572.713-.173 1.562.166 1.97.804.147.23.34.503.22.757-.106.228-.414.103-.632.108-.475.015-.904.105-.905.688-.002.579.423.744.896.683.676-.086.762.222.757.803-.026 3.245-.01 6.49-.013 9.735-.007 4.953-3.48 8.618-8.42 8.774-2.647.083-5.305.097-7.95-.037-4.283-.214-7.727-3.827-7.867-8.114-.045-1.393 0-2.788-.02-4.18-.005-.345.07-.527.448-.468.09.014.183 0 .273.002.48.007.82-.178.813-.702-.007-.528-.368-.666-.84-.682-.224-.008-.597.163-.655-.145a3.066 3.066 0 01.044-1.277c.046-.184.412-.076.632-.078 1.325-.018 1.98-.714 1.906-2.016-.023-.423-.183-.716-.63-.742-.482-.03-.71.262-.74.71-.024.338.065.685-.492.683-.755-.004-.814-.028-.744-.783.093-1.035.916-1.809 1.902-1.789.981.02 1.775.752 1.813 1.784.05 1.323.022 2.65.028 3.975.002.206-.008.413.01.616.037.425.276.697.703.688.388-.01.621-.263.654-.662.017-.205.013-.41.013-.616 0-3.237-.002-6.481 0-9.727z" fill="#0E141E"/><path d="M23.54 31.74c-5.072.003-10.144.001-15.216.016-.638.002-.938-.286-.938-.898-.004-3.29-.004-6.58-.002-9.869 0-.603.262-.922.915-.92 7.86.01 15.717.008 23.576.002.62 0 .858.295.856.884a3292.13 3292.13 0 000 9.938c.002.608-.293.872-.885.863-.57-.01-1.142.004-1.714.006-.033-1 .035-2.015-.616-2.891-.623-.841-1.435-1.309-2.48-1.384-.234-.016-.66.14-.588-.317.066-.422-.374-.993.392-1.252 1.084-.366 1.648-1.699 1.241-2.764-.132-.344-.37-.5-.738-.478-.36.022-.519.249-.602.559-.023.086-.021.18-.027.271-.068 1.054-.517 1.371-1.545 1.094-.376-.1-.394-.38-.402-.694-.012-.526.152-1.22-.69-1.216-.851.004-.648.704-.682 1.225-.068 1.024.37 1.71 1.352 2.036.085.028.19.046.246.107.165.177.062 1.937-.145 2.107-1.034.845-1.338 1.969-1.283 3.24.002.105-.018.22-.026.334zm-11.52-5.842c0 .8-.003 1.598.002 2.398.004.546.259.855.832.854.548-.002 1.096-.006 1.644.007.948.022 1.624-.407 2.033-1.24.401-.82.266-1.607-.295-2.301-.209-.259-.262-.466-.183-.798.267-1.12-.512-2.106-1.668-2.148-.502-.018-1.005.004-1.507 0-.61-.005-.861.321-.858.9.004.776 0 1.55 0 2.328zm5.62-.414c0 .297.017.595-.002.89-.135 2.16.497 2.939 2.834 2.79 1.12-.071 1.826-.553 1.895-1.648.088-1.363.044-2.738.026-4.107-.006-.427-.227-.755-.724-.735-.502.02-.64.354-.638.795.004 1.005 0 2.011 0 3.016 0 1.325 0 1.303-1.31 1.303-.541 0-.725-.196-.714-.726.026-1.188.004-2.376.01-3.563.001-.475-.143-.821-.682-.825-.545-.004-.69.365-.695.823-.005.662 0 1.325 0 1.987z" fill="#26C7BC"/><path d="M12.021 25.898c0 .8-.003 1.598.002 2.398.004.546.259.855.832.854.548-.002 1.096-.006 1.644.007.948.022 1.624-.407 2.033-1.24.401-.82.266-1.607-.295-2.301-.209-.259-.262-.466-.183-.798.267-1.12-.512-2.106-1.668-2.148-.502-.018-1.005.004-1.507 0-.61-.005-.861.321-.858.9.004.776 0 1.55 0 2.328zm5.62-.414c0 .297.017.595-.002.89-.135 2.16.497 2.939 2.834 2.79 1.12-.071 1.826-.553 1.895-1.648.088-1.363.044-2.738.026-4.107-.006-.427-.227-.755-.724-.735-.502.02-.64.354-.638.795.004 1.005 0 2.011 0 3.016 0 1.325 0 1.303-1.31 1.303-.541 0-.725-.196-.714-.726.026-1.188.004-2.376.01-3.563.001-.475-.143-.821-.682-.825-.545-.004-.69.365-.695.823-.005.662 0 1.325 0 1.987zm9.396 2.003c-.235-.016-.66.14-.589-.317.066-.422-.374-.993.392-1.252 1.084-.366 1.648-1.699 1.241-2.764-.132-.344-.37-.5-.738-.478-.36.022-.519.249-.602.559-.023.086-.021.18-.027.271-.068 1.054-.517 1.371-1.545 1.094-.376-.1-.394-.38-.402-.694-.012-.526.152-1.22-.69-1.216-.851.004-.648.704-.682 1.225-.068 1.024.37 1.71 1.352 2.036.085.028.19.046.246.107.165.177.062 1.937-.145 2.107l2.189-.678z" fill="#26C7BC"/><path d="M20.108 7.283c-4.937 0-9.874-.01-14.81.013-.565.001-.756-.129-.72-.708.049-.843.008-1.69.014-2.537.01-1.622.924-2.533 2.56-2.536 2.332-.008 4.663-.002 6.995-.002h18.65c1.897 0 2.775.872 2.779 2.755.001.73-.046 1.466.014 2.192.053.649-.126.843-.808.84-4.892-.032-9.784-.017-14.674-.017zm-.072-2.222h2.665c.473 0 .825-.181.823-.696-.004-.48-.348-.673-.783-.675a675.898 675.898 0 00-5.328-.002c-.436.002-.777.19-.784.671-.008.519.337.704.813.704.864-.002 1.729-.002 2.594-.002z" fill="#0E141E"/><path d="M7.358 50.536l.022-9.03c.002-1.128.14-1.27 1.243-1.268l14.915.011v3.673c-.9-.406-1.775-.67-2.73-.368-1.367.434-2.322 1.668-2.342 3.109-.02 1.525-.02 3.05-.03 4.575-1.037 0-2.073 0-3.11.002-.132-.585-.544-.703-1.08-.699-2.294.008-4.591-.002-6.888-.005z" fill="#26C7BC"/><path d="M1.924 15.972c0-2.672.016-5.344-.015-8.017-.005-.548.19-.623.67-.629.502-.007.66.112.652.642-.031 2.26.064 4.525-.055 6.782-.044.808-.097 1.558-.026 2.388.198 2.29.048 4.608.083 6.914.007.557-.248.56-.657.557-.4-.004-.67.013-.665-.552.03-2.694.013-5.39.013-8.085zM36.95 11.24c0-1.118.016-2.238-.01-3.356-.008-.403.081-.6.527-.54.342.043.755-.113.75.498a608.854 608.854 0 00-.004 6.851c.002.63-.455.41-.778.458-.384.06-.504-.095-.496-.485.027-1.142.01-2.284.01-3.426z" fill="#0E141E"/><path d="M18.448 56.3c-1.024-.022-1.182-.181-1.187-1.19-.002-.227 0-.454 0-.681.001-1.06.124-1.193 1.195-1.292-.002 1.056-.004 2.11-.008 3.163z" fill="#26C7BC"/><path d="M12.636 38.057c-1.438 0-2.873-.009-4.31.006-.498.005-.902-.134-.907-.68-.005-.543.392-.704.89-.702 2.873.007 5.747.003 8.62.002.494 0 .879.15.864.718-.012.53-.38.66-.85.658-1.435-.007-2.87-.002-4.308-.002zm-2.076-4.133c.774 0 1.55.005 2.323-.002.449-.004.777.154.799.638.024.517-.303.733-.78.735-1.572.005-3.143.005-4.713.002-.453-.002-.772-.224-.772-.684 0-.499.334-.7.821-.693.775.013 1.549.004 2.322.004zm-.605-21.595c.01.388-.106.584-.311.705-.253.15-.55.169-.765-.037-.267-.254-.449-.366-.762-.036-.266.278-.638.253-.915-.033-.302-.314-.258-.662.024-.975.183-.204.38-.393.576-.583.537-.522.835-.53 1.372.026.307.32.746.551.781.932zm10.08-7.269H17.44c-.475 0-.821-.184-.814-.703.007-.482.348-.67.785-.671 1.776-.007 3.552-.007 5.328.002.434.002.779.194.782.674.004.517-.35.697-.822.697-.888.002-1.775.002-2.664.002zm-9.614 49.017c.363 0 .728-.011 1.09.002.402.014.635.234.655.636.022.409-.218.684-.592.702-.814.04-1.635.04-2.449-.011-.375-.024-.592-.323-.553-.73.035-.368.255-.579.623-.595.409-.017.817-.004 1.226-.004 0 0 0 .002 0 0z" fill="#fff"/><path d="M29.26 13.262a.866.866 0 01.903-.893c.505.008.935.43.89.917-.048.518-.354.83-.882.863-.508.035-.908-.372-.911-.887z" fill="#F4F7FE"/></svg>