<svg width="60" height="62" fill="none" xmlns="http://www.w3.org/2000/svg"><path d="M55.984 15.835C57 17.855 58 19.88 58.669 22.055c.682 2.22 1.098 4.483 1.316 6.79.084.905-.212 1.662-.811 2.322-.36.234-.704.51-1.141.576-.334.05-.431.225-.444.544-.03.724-.094 1.447-.146 2.169l-.37 2.467-.818 3.034c-1.11 3.02-2.593 5.841-4.526 8.417-3.47 4.283-7.756 7.425-12.967 9.275-2.886.958-5.84 1.504-8.888 1.51-1.651.005-3.293-.082-4.92-.382-.282-.052-.6-.159-.437.348-.245 1.69-.717 2.097-2.43 2.097-.894 0-1.79-.015-2.683.005-.56.013-1.093-.055-1.587-.335-.665-.584-.746-1.362-.724-2.174.007-.527.02-1.054.022-1.582.002-1.055-.002-1.057-1.161-1.413v2.451c-.013.337-.05.674-.032 1.01.041.707-.235 1.268-.737 1.736-.455.243-.94.315-1.454.306a78.847 78.847 0 00-2.95.001c-.538.012-1.043-.07-1.513-.335-.529-.505-.72-1.115-.715-1.848.017-2.453-.009-4.906-.018-7.358.16-1.222.066-2.355-.95-3.25-.338-.298-.565-.723-.836-1.094-1.568-2.143-2.692-4.52-3.66-6.98-1.018-3.184-1.6-6.44-1.514-9.794.12-4.686 1.303-9.083 3.61-13.17.055-.1.1-.207.15-.31 1.682-2.829 3.8-5.29 6.266-7.46.256-.19.518-.372.769-.569 1.892-1.489 3.936-2.745 6.145-3.68 3.179-1.343 6.507-2.123 9.971-2.239.198-.007.417.039.472-.263.201-1.115.946-1.732 1.952-2.106 3.652.03 7.116.919 10.478 2.288.316.13.64.24.961.36.1.176.295.204.456.281 3.875 1.884 7.2 4.471 10.008 7.738 1.179 1.38 2.146 2.908 3.17 4.397zM41.776 34.449c.271-.693.323-1.428.424-2.153.039-.28.011-.436-.363-.482-1.376-.174-2.141-.915-2.392-2.262-.25-1.345-.704-2.61-1.461-3.755-1.598-2.416-3.805-3.929-6.667-4.461-1.432-.268-2.114-.916-2.38-2.372-.078-.44-.301-.426-.618-.394-3.044.305-5.641 1.566-7.767 3.744-1.876 1.92-3.083 4.198-3.424 6.894-.538 3.145.132 6.038 1.796 8.733.177.287.38.4.723.39.917-.024 1.837-.015 2.755-.007 1.317.01 2.04.717 2.063 2.018.012.597.045 1.197-.01 1.789-.047.496.186.704.59.85 1.337.479 2.71.801 4.134.814 2.645.026 5.079-.597 7.32-2.11 1.71-1.154 3.108-2.513 4.046-4.345.643-.863.984-1.858 1.231-2.891zm6.27-3.28c-.076.503-.39.676-.872.668-1.01-.014-2.022.013-3.032-.012-.394-.01-.536.071-.573.514-.641 7.828-7.645 13.586-15.473 12.755a14.578 14.578 0 01-3.146-.7c-.145-.05-.451-.293-.453.101-.002.677-.168 1.37.109 2.031-.03.13-.083.263-.083.394.002 2.759.01 5.517.018 8.276-.142.52-.024 1.05-.074 1.572-.038.39.087.536.503.612 3.295.588 6.588.571 9.854-.11 12.14-2.53 20.729-12.576 21.398-24.95.022-.414-.093-.501-.476-.495-1.492.018-2.985-.004-4.476.012-.51.006-.842-.164-.942-.687.1-.57.481-.71 1.005-.707 1.975.01 3.953.01 5.928 0 .895-.006 1.43-.568 1.34-1.449-.144-1.39-.303-2.779-.623-4.144-1.823-7.736-6.052-13.803-12.697-18.148-4.09-2.674-8.602-4.186-13.487-4.53-1.048-.073-1.468.358-1.468 1.418-.004 4.962-.004 9.925 0 14.89 0 .95.313 1.317 1.262 1.483 1.23.217 2.403.61 3.484 1.234 3.124 1.8 5.038 4.473 5.735 8.018.186.95.558 1.226 1.518 1.23 1.61.003 3.218.008 4.825-.004.514 0 .838.186.895.728zM17.81 45.885c.63.145.694.599.692 1.151-.014 4 0 7.996-.016 11.995-.002.578.155.842.777.82a58.556 58.556 0 013.17-.004c.475.01.667-.184.658-.652-.015-.69-.004-1.379-.004-2.068 0-5.513-.007-11.029.01-16.542.001-.64-.168-.923-.858-.89a36.97 36.97 0 01-2.963.004c-.608-.019-.818.228-.792.818.035.733-.004 1.47.013 2.205.01.481-.16.8-.656.892-.56-.064-.758-.398-.735-.934.02-.495-.004-.991-.01-1.489.065-.719-.16-1.507.39-2.115.281-.312.206-.525.025-.83-1.284-2.157-1.915-4.496-1.939-7.008-.068-7.232 5.527-13.448 12.68-14.032.551-.044.67-.238.667-.75-.02-3.768-.022-7.537.002-11.303.004-.526-.13-.656-.65-.625-3.568.215-6.962 1.07-10.196 2.61-14.908 7.098-19.791 26.174-10.11 39.55.18.247.37.487.62.81.245-.82.744-1.22 1.406-1.447 1.37-.006 2.744-.028 4.115-.012.949.011 1.664.636 1.776 1.57.166 1.364.094 2.733.035 4.1l-.002 1.37c0 1.087 0 1.087 1.172 1.49v-2.31c.008-1.79.026-3.577.017-5.364 0-.531.143-.903.706-1.01zm-3.277 7.769c0-1.84-.011-3.677.008-5.516.005-.529-.185-.746-.727-.731-1.056.026-2.113.02-3.171.002-.492-.008-.708.175-.706.685.011 3.7.01 7.399 0 11.099-.002.476.194.658.66.652 1.012-.014 2.021-.003 3.033-.005.872-.002.901-.028.903-.88.002-1.768 0-3.537 0-5.306z" fill="#fff"/><path d="M.717 60.898c-.528-.507-.73-1.117-.716-1.854.03-1.723.003-3.446.01-5.171.006-1.279.717-2.005 2.004-2.027a89.703 89.703 0 013.377 0c1.255.026 1.956.735 1.967 1.988.014 1.723-.017 3.448.013 5.171.012.757-.172 1.399-.738 1.915-.455.241-.94.317-1.452.307a78.636 78.636 0 00-2.95.002c-.538.011-1.041-.07-1.515-.331zm.677-4.375c0 .873.016 1.747-.006 2.62-.013.494.162.715.676.704 1.08-.02 2.16-.022 3.24 0 .512.011.687-.2.684-.696a310.348 310.348 0 01-.002-5.24c.004-.458-.168-.689-.638-.687-1.104.006-2.206.004-3.31 0-.458-.002-.66.207-.65.679.02.873.006 1.746.006 2.62z" fill="#fff"/><path d="M15.92 51.706c.058-1.367.13-2.736-.036-4.1-.112-.934-.827-1.559-1.776-1.57-1.371-.016-2.744.006-4.115.011-.144-.232-.278-.473-.433-.698-4.168-6.03-5.608-12.673-3.852-19.771 2.333-9.43 8.363-15.472 17.698-18.206.57-.166.66-.002.656.521-.018 2.504-.02 5.007.002 7.511.004.463-.136.671-.57.857-7.84 3.358-11.684 11.499-9.265 19.666.577 1.946 1.467 3.752 2.868 5.263.005.495.03.993.009 1.489-.022.538.177.87.735.934l-.033 2.272c-.562.107-.706.48-.704 1.006.01 1.788-.01 3.577-.017 5.364-.433-.088-.676-.582-1.168-.549zm8.622 3.492c-.008-2.759-.015-5.517-.019-8.276 0-.13.054-.264.083-.394.223.044.452.075.671.134 1.968.522 3.96.758 5.993.488 6.497-.856 10.938-4.372 13.402-10.411.203-.5.448-.634.95-.628 2.411.024 4.823.01 7.234.01.822 0 .836.004.628.817-1.378 5.401-4.176 9.921-8.556 13.38-6.024 4.76-12.857 6.313-20.386 4.88zM50.33 31.15l-2.285.017c-.057-.542-.382-.728-.898-.724-1.608.01-3.217.005-4.824.003-.96-.001-1.33-.28-1.518-1.229-.699-3.545-2.611-6.217-5.735-8.017-1.082-.623-2.254-1.018-3.485-1.235-.949-.168-1.26-.533-1.262-1.483-.004-4.963-.004-9.926 0-14.89 0-1.06.42-1.49 1.469-1.417 4.885.34 9.396 1.856 13.487 4.53 6.647 4.345 10.874 10.411 12.696 18.147.323 1.365.481 2.753.623 4.144.09.881-.442 1.445-1.34 1.449-1.975.01-3.952.01-5.928 0-.517-.004-.899.136-1 .705zM32.166 11.007c0 2.16.009 4.32-.008 6.48-.003.416.122.59.54.702 5.203 1.39 8.479 4.724 9.874 9.906.123.46.3.579.737.57 1.102-.024 2.206-.008 3.308-.008 3.193 0 6.387.002 9.58-.003.291 0 .667.138.593-.445-.307-2.399-.796-4.756-1.74-6.985-4.18-9.861-11.577-15.596-22.164-17.228-.586-.09-.744.083-.735.67.037 2.112.015 4.228.015 6.341z" fill="#26C7BC"/><path d="M17.81 45.885l.034-2.272c.495-.094.667-.413.656-.892-.017-.736.022-1.473-.013-2.206-.028-.59.182-.839.792-.818a36.97 36.97 0 002.963-.004c.69-.033.86.25.857.89-.018 5.514-.009 11.029-.009 16.542 0 .69-.011 1.379.004 2.068.009.466-.183.662-.658.652a60.67 60.67 0 00-3.17.004c-.624.022-.781-.241-.777-.82.016-3.999.002-7.996.016-11.995 0-.55-.062-1.006-.694-1.15zm-3.275 7.769c0 1.769.002 3.538 0 5.309-.002.851-.03.877-.903.879-1.011.002-2.021-.01-3.033.005-.466.008-.66-.175-.66-.652.01-3.7.01-7.399 0-11.099-.001-.51.214-.693.706-.685a79.08 79.08 0 003.172-.002c.541-.013.731.204.726.731-.017 1.837-.008 3.675-.008 5.514zM1.393 56.523c0-.873.015-1.747-.006-2.62-.01-.47.192-.678.65-.678 1.105.002 2.207.003 3.31 0 .472-.002.642.228.638.687a310.23 310.23 0 00.002 5.239c.004.496-.171.707-.684.696a78.797 78.797 0 00-3.24 0c-.513.01-.689-.21-.676-.703.022-.874.006-1.747.006-2.62z" fill="#26C7BC"/><path d="M43.33 21.553c.357-.05.646-.22.668-.632.017-.278.101-.372.394-.418 1.161-.185 1.931-1.032 1.931-2.06 0-1.04-.755-1.856-1.923-2.064-.183-.034-.338-.023-.393-.277-.182-.844.013-1.113.855-1.126.205-.002.417-.002.612-.051.348-.09.558-.336.525-.704-.033-.358-.245-.592-.625-.612a9.652 9.652 0 00-.893-.006c-.291.011-.476-.04-.483-.4-.008-.4-.264-.644-.658-.654-.398-.009-.641.25-.691.63-.033.258-.08.39-.387.437-1.183.183-1.907.986-1.913 2.051-.003 1.023.712 1.856 1.856 2.057.372.064.426.206.431.525.015.89.028.89-.87.894-.138 0-.276-.006-.412.003-.434.032-.684.255-.677.7.008.45.279.655.706.673.206.01.413.011.62.002.362-.018.663-.026.675.498.013.311.295.499.653.534z" fill="#fff"/><path d="M43.988 18.466c.14-.22-.213-.658.284-.693.394-.027.64.27.652.642.015.412-.248.715-.667.698-.442-.017-.149-.426-.269-.647zm-1.313-2.796c-.137.246.156.66-.293.666-.376.004-.62-.258-.612-.667.005-.392.195-.689.602-.661.502.033.105.486.303.661z" fill="#0E141E"/></svg>