<svg width="50" height="42" fill="none" xmlns="http://www.w3.org/2000/svg"><path d="M12.334 40.923c-.45-.638-.607-1.34-.592-2.126.04-2.189.027-4.378.035-6.567.138-.17.344-.235.528-.335.43.138.56.436.556.878a561.162 561.162 0 00-.006 6.276c.003 1.073.648 1.741 1.715 1.787.271.011.544-.006.817-.01H30.64c5.475.004 10.95.015 16.424.005 1.126-.001 1.747-.665 1.75-1.783.006-2.42.006-4.84.002-7.259-.003-1.672-.017-3.346-.025-5.018.116-1.61.09-3.22.011-4.83.006-.508.016-1.016.015-1.524-.003-1.27-.594-1.856-1.872-1.856-3.36-.002-6.719.007-10.078-.008-.617-.002-1.236-.094-1.474.685a.148.148 0 01-.073.079c-.772.318-.642.99-.635 1.612l.013 1.035c-.007.798.008 1.598-.029 2.395-.017.385.139.445.471.436a74.106 74.106 0 012.45-.004c.768.007 1.17.395 1.216 1.16.016.27.03.541.044.811-.009.145-.022.289-.023.433-.01 1.131-.406 1.52-1.555 1.521-.853 0-1.707.002-2.56 0-.202 0-.379.002-.52.204-.658.933-1.6 1.225-2.701 1.223-5.668-.013-11.335-.007-17.003-.004-.726 0-1.452.013-2.178.02-.218-.01-.435-.03-.653-.03-2.819-.003-5.637-.022-8.456.005-1.066.01-1.962-.284-2.665-1.1-.414-.65-.538-1.363-.537-2.129.01-7.914.007-15.828.009-23.741 0-2.04 1.09-3.123 3.133-3.129 2-.006 4.001-.019 6.002-.03.217.013.433.033.65.033 4.895 0 9.79 0 14.684-.01.435-.002.787.076.94.535-.067.412-.308.587-.725.564-.345-.02-.692-.003-1.036-.003-6.858 0-13.716-.002-20.573.001-1.293 0-1.94.604-1.94 1.817-.003 8.095-.003 16.19 0 24.284 0 1.16.588 1.759 1.735 1.759 9.642.003 19.282.003 28.923 0 1.098 0 1.766-.603 1.78-1.698.029-2.346.005-4.693.014-7.04.002-.28-.098-.387-.38-.38-.782.019-1.564.019-2.346.026l-4.899-.038c-1.303-.009-1.938-.637-1.94-1.944-.002-1.888-.002-3.776 0-5.665.002-1.304.641-1.943 1.934-1.95 1.633-.006 3.268-.018 4.9-.027.764.007 1.527-.003 2.289.03.382.015.446-.151.445-.484-.012-2.27.003-4.543-.01-6.813-.008-1.21-.7-1.875-1.915-1.88-1.236-.003-2.47-.011-3.706.005-.438.005-.695-.15-.752-.593.092-.382.352-.518.725-.508.216.006.434-.016.65-.026 1.052.012 2.105.025 3.157.032 1.772.012 2.925 1.16 2.93 2.944.008 2.307.007 4.615-.002 6.922-.002.31.036.526.35.705.552.316.741.866.747 1.483l.025 2.886c-.009.653.013 1.308-.034 1.959-.033.458.15.532.556.53 2.47-.018 4.937-.01 7.407-.014.16 0 .326.04.478-.05.922.113 1.85.036 2.773.049 1.865.025 2.965 1.124 2.98 2.991.003.326.027.651.042.977-.013.125-.035.25-.035.376l-.009 14.433c0 .125.025.25.04.375-.014.705-.049 1.41-.034 2.113.016.76-.115 1.47-.533 2.116-.706.827-1.61 1.148-2.686 1.107-.809-.03-1.62.014-2.43.024-.198-.01-.397-.028-.595-.028-3.773-.003-7.546-.004-11.319-.003-.652 0-1.304.016-1.957.026-.217-.005-.434-.019-.652-.019-4.935-.002-9.872-.016-14.807.006-1.042.003-1.93-.254-2.649-1.017zm17.554-22.202c1.328 0 2.656.003 3.984-.001.655-.002.804-.139.807-.798.009-1.91.007-3.82 0-5.73-.002-.594-.2-.8-.778-.802-2.673-.006-5.347 0-8.022-.005-.495 0-.725.21-.722.724a450.13 450.13 0 010 5.948c-.003.498.21.676.692.67 1.348-.016 2.694-.006 4.039-.006zm6.294 7.161h-.218c-1.383 0-1.374 0-1.294 1.395.016.273.112.334.358.33.78-.01 1.56-.012 2.34 0 .26.004.333-.092.35-.347.09-1.38.097-1.378-1.263-1.378h-.273z" fill="#fff"/><path d="M12.305 31.893l.004-1.738c.727-.007 1.452-.02 2.179-.02 5.668-.002 11.334-.008 17.002.004 1.103.003 2.045-.29 2.701-1.223.143-.203.318-.204.52-.204h2.56c1.15-.002 1.545-.388 1.555-1.52.002-.145.016-.29.023-.434l1.048-.018c.009.216.025.432.026.648.01.905.413 1.31 1.33 1.322.38.006.76.016 1.138-.003.722-.036 1.089-.367 1.194-1.08.042-.284.042-.575.061-.862l5.144.003c.009 1.672.022 3.346.025 5.018.004 2.42.004 4.84-.002 7.26-.003 1.118-.624 1.78-1.75 1.782-5.474.01-10.95-.001-16.425-.006.093-1.214.036-2.43.03-3.646 0-.36-.205-.615-.496-.797-.306-.193-.656-.187-1.002-.187-4.105 0-8.21-.001-12.315.003-.235 0-.476.012-.702.067-.47.114-.785.422-.794.914-.02 1.215-.064 2.43.025 3.646-.273.005-.546.022-.817.01-1.067-.044-1.712-.713-1.715-1.785-.006-2.093-.012-4.184.006-6.277.007-.44-.124-.738-.553-.877zm10.736 1.294h-6.768c-.146 0-.292-.004-.437.008-.297.024-.46.19-.481.49-.022.3.12.495.405.56.174.04.36.037.542.037h13.427c.18 0 .366.003.541-.038.285-.066.428-.261.406-.56-.022-.3-.187-.465-.483-.49-.145-.011-.29-.007-.437-.007h-6.715zm20.39 3.166c.708 0 1.415.003 2.122-.002.412-.001.813-.086.804-.592-.008-.469-.39-.556-.783-.556a1463.01 1463.01 0 00-4.19 0c-.39 0-.767.089-.776.561-.009.476.363.58.756.584.69.01 1.379.005 2.068.005zm.043 2.012c.744 0 1.49-.009 2.234.003.363.006.62-.129.65-.5.03-.386-.25-.58-.581-.584-1.527-.02-3.053-.02-4.578-.002-.333.005-.609.191-.597.577.013.388.28.51.636.508.746-.005 1.49-.002 2.236-.002zm1.09-5.176h-1.198c-.314 0-.536.131-.577.454-.043.353.176.592.488.605.868.035 1.74.032 2.61-.003a.486.486 0 00.473-.561c-.035-.337-.248-.504-.598-.498-.398.009-.798.001-1.198.003zm-28.065-2.07v-.005c-.2 0-.4-.005-.6.001-.317.009-.515.156-.543.486-.028.329.142.552.448.577.45.036.908.032 1.357-.01.285-.027.432-.249.413-.55-.019-.297-.176-.472-.474-.495-.2-.017-.401-.005-.601-.005z" fill="#26C7BC"/><path d="M3.815 21.218l.005 1.368c-.405.001-.556.271-.539.605.026.521-.242 1.177.537 1.417.032.57-.093 1.206.617 1.495.01.194-.029.395.132.555.407.41 1.634.183 1.904-.354h1.325c.188.65.726.536 1.201.541.397.005.77-.05.867-.537h1.332c.111.434.434.545.83.539.497-.006 1.049.116 1.282-.53l1.281-.007c.15.52.564.543 1 .538.46-.004.934.041 1.112-.538l1.28.004c.23.65.783.524 1.28.531.396.006.716-.108.83-.538l1.283.013c.254.667.831.515 1.34.522.38.005.672-.135.773-.54l1.325-.001c.16.539.59.547 1.04.546.448 0 .882-.006 1.04-.547h1.324c.256.522.581.64 1.422.538.42-.051.662-.257.67-.696.439-.296.555-.734.555-1.233-.001-1.674.005-3.348.008-5.02.782-.007 1.563-.009 2.345-.026.283-.008.38.099.38.38-.007 2.347.017 4.694-.014 7.04-.014 1.095-.681 1.697-1.779 1.697-9.641.003-19.282.003-28.923 0-1.147 0-1.734-.598-1.735-1.758-.003-8.095-.003-16.19 0-24.284 0-1.213.646-1.817 1.94-1.817 6.856-.002 13.715-.002 20.572-.002.346 0 .692-.014 1.037.003.415.022.656-.152.725-.563l1.796-.028c.057.442.314.6.752.593 1.236-.018 2.47-.009 3.706-.005 1.215.003 1.91.67 1.915 1.88.013 2.27-.002 4.543.01 6.813.002.333-.061.5-.445.483-.762-.032-1.525-.021-2.288-.029-.002-1.684-.009-3.368 0-5.052.003-.506-.146-.922-.568-1.221-.012-.492-.255-.731-.754-.705-.199.01-.4.006-.599.001-.396-.008-.668.14-.722.568-.445.001-.892.001-1.337.003-.081-.56-.49-.588-.928-.57-.465.02-1.021-.144-1.138.57l-1.335-.003c-.046-.391-.283-.582-.658-.56-.537.03-1.2-.241-1.454.55l-1.284.006c-.086-.389-.324-.587-.724-.56-.52.034-1.156-.21-1.382.555h-1.284c-.155-.667-.686-.541-1.16-.562-.447-.019-.829.04-.943.564l-1.375.004c.006-.391-.216-.54-.577-.565-1.057-.076-1.216-.017-1.44.564l-1.337.005c-.066-.4-.295-.592-.707-.569-.214.012-.43.005-.645.002-.394-.006-.656.149-.709.567l-1.338.003c-.152-.788-.78-.545-1.265-.561-.642-.022-.753.112-.753.755-.714.247-.572.88-.642 1.417-.669.238-.523.807-.533 1.312-.009.399.127.7.551.803l.002 1.325c-.524.124-.57.514-.557.959.013.467-.072.966.557 1.12 0 .441 0 .883-.002 1.324-.426.102-.56.404-.551.803.01.505-.136 1.074.533 1.312l.013 1.284c-.386.1-.568.35-.548.748.027.516-.167 1.118.54 1.362l.005 1.28c-.578.162-.546.624-.549 1.083-.004.45 0 .881.547 1.031z" fill="#26C7BC"/><path d="M29.888 18.722c-1.346 0-2.693-.01-4.038.005-.482.006-.695-.172-.692-.67a446.72 446.72 0 000-5.947c-.003-.516.228-.726.723-.724 2.673.004 5.346-.002 8.021.004.577.002.777.209.778.803.006 1.91.008 3.819 0 5.729-.003.66-.152.797-.807.798-1.33.005-2.657.002-3.985.002zM28.642 16.3a1.223 1.223 0 001.247-1.232c-.004-.69-.559-1.221-1.265-1.213a1.232 1.232 0 00-1.226 1.203c-.013.678.55 1.24 1.244 1.242zm20.16 5.64c-4.065.005-8.131.01-12.197.017-.634.001-1.27.004-1.905.007l-.014-1.035c-.007-.623-.137-1.294.635-1.612a.148.148 0 00.073-.079c.238-.78.855-.687 1.474-.684 3.36.014 6.719.005 10.078.007 1.278 0 1.87.587 1.872 1.856 0 .508-.01 1.016-.016 1.524z" fill="#26C7BC"/><path d="M36.181 25.882h.273c1.362 0 1.355 0 1.264 1.377-.016.256-.09.35-.35.348-.78-.012-1.56-.01-2.34 0-.246.003-.342-.057-.358-.33-.08-1.395-.09-1.395 1.294-1.395h.218z" fill="#FEFEFE"/><path d="M16.698 26.313c-.178.58-.652.534-1.112.539-.437.004-.849-.02-1-.539.083-.547.468-.616.92-.594.488.024 1.06-.137 1.192.594zm3.391-.003c-.114.43-.435.544-.83.538-.497-.007-1.05.119-1.28-.53.011-.088-.008-.198.038-.26.398-.529.977-.308 1.49-.326.358-.012.535.236.582.578zm3.397-.003c-.1.405-.392.545-.772.54-.51-.007-1.086.145-1.341-.522.2-.838.877-.563 1.413-.6.404-.028.65.168.7.582zm6.821-.16c-.009.439-.251.645-.67.696-.84.103-1.166-.016-1.421-.539.054-.45.335-.61.754-.583.479.032 1.035-.168 1.337.426zm-17.001.172c-.233.646-.785.522-1.283.53-.395.004-.718-.105-.829-.539.056-.446.334-.616.753-.586.523.036 1.178-.22 1.359.595zm-9.491-5.1c-.548-.149-.552-.58-.549-1.029.003-.458-.03-.92.549-1.083.668.126.557.647.569 1.11.01.452.026.897-.57 1.002zm-.005-3.393c-.707-.245-.513-.846-.54-1.362-.02-.396.162-.646.548-.748.408.06.58.306.564.708-.005.16-.013.322.002.481.042.457-.07.809-.574.921zm2.66 8.479c-.27.538-1.497.764-1.904.354-.16-.16-.123-.363-.131-.556.367-.655.988-.324 1.501-.363.334-.023.486.252.534.565zm3.394.003c-.098.488-.47.542-.867.538-.476-.006-1.013.109-1.201-.542.051-.407.289-.591.69-.585.232.003.464.001.696 0 .4-.002.645.172.682.59zm17.027-.003c-.158.541-.591.546-1.039.547-.45 0-.88-.008-1.04-.546.056-.414.302-.598.712-.585.29.01.583-.007.87.02.326.03.449.272.497.564zM3.817 24.608c-.78-.242-.51-.897-.537-1.416-.016-.335.134-.605.538-.606.41 0 .57.228.562.613-.004.233-.007.467.002.699.013.401-.153.652-.565.71zM28.222 3.86c.052-.427.324-.576.722-.568.2.005.4.01.598-.001.5-.026.743.215.755.705-.54.648-1.801.565-2.075-.136zm-6.852-.011c.254-.79.917-.519 1.454-.55.375-.023.611.169.658.56-.073.414-.34.569-.733.527-.44-.047-.944.179-1.291-.298a.423.423 0 01-.088-.24zm-6.778.002c.114-.524.497-.58.942-.563.475.019 1.004-.105 1.16.562-.179.722-.765.5-1.241.538-.425.037-.76-.063-.861-.537zM3.802 14.43c-.67-.237-.522-.806-.532-1.311-.009-.398.125-.7.551-.803.387.057.568.282.56.67-.007.237-.015.473 0 .708.031.43-.218.623-.579.737zm.02-6.84c-.425-.103-.56-.405-.551-.803.01-.505-.136-1.075.532-1.312.806.208.531.866.575 1.389.032.401-.134.665-.556.725zm20.995-3.729c.117-.715.673-.55 1.139-.569.437-.017.846.009.928.57-.075.374-.3.546-.685.527a9.96 9.96 0 00-.753-.001c-.367.012-.556-.185-.629-.527zM7.802 3.86c.052-.419.314-.573.709-.568.214.003.43.01.645-.001.412-.023.64.17.706.57-.068.38-.297.546-.681.529-.286-.013-.574.007-.86-.009-.318-.017-.465-.228-.52-.52zm-3.357.195c.002-.643.113-.778.753-.756.485.016 1.114-.226 1.266.562-.075.381-.308.57-.69.521-.455-.057-.997.23-1.329-.327zm13.534-.203c.226-.766.862-.523 1.381-.556.402-.027.638.172.724.56-.081.401-.334.57-.732.534-.35-.032-.718.094-1.051-.082-.17-.091-.315-.235-.322-.456zm-6.779.004c.224-.583.381-.64 1.44-.564.361.027.583.175.577.565-.013.378-.22.538-.587.533-.25-.005-.502-.01-.751.001-.384.013-.609-.159-.679-.535zm-7.378 7.138c-.63-.155-.545-.654-.558-1.121-.011-.445.034-.835.558-.959.408.066.576.315.557.717-.01.214-.01.43 0 .645.02.404-.152.649-.557.718zM23.04 33.188h6.715c.146 0 .292-.004.436.008.298.024.461.19.483.489.022.299-.121.494-.406.56-.173.04-.36.038-.541.038H16.3c-.181 0-.366.003-.542-.037-.284-.065-.427-.26-.405-.56.022-.3.185-.466.481-.49.145-.012.29-.008.437-.008h6.77zm16.858-6.445c.01-.308.01-.616.031-.923.04-.606.44-1.005 1.05-1.028a22.112 22.112 0 011.524-.001c.642.02 1.02.41 1.08 1.06.028.306-.06.618.066.916-.02.287-.02.578-.061.862-.105.712-.472 1.043-1.194 1.08-.378.019-.759.009-1.138.003-.917-.012-1.318-.418-1.33-1.322-.003-.215-.019-.43-.028-.647zm1.118-.027c0 .888.002.862.874.897.464.019.685-.087.602-.588a1.684 1.684 0 010-.541c.08-.504-.124-.638-.615-.615-.86.043-.86.012-.86.846zm2.415 9.637c-.689 0-1.379.006-2.068-.002-.392-.005-.764-.108-.756-.584.01-.474.386-.562.777-.562 1.396-.003 2.793-.001 4.19 0 .392 0 .774.088.783.556.009.505-.392.59-.804.592-.706.003-1.414 0-2.122 0zm.042 2.013c-.744 0-1.49-.003-2.234.001-.356.003-.623-.12-.636-.507-.013-.384.264-.572.597-.577 1.526-.019 3.053-.019 4.578.002.33.004.611.2.58.583-.029.372-.286.507-.649.5-.746-.01-1.491-.002-2.236-.002zm1.091-5.176c.4 0 .798.005 1.198-.002.349-.008.563.16.598.497a.486.486 0 01-.474.562c-.869.035-1.741.038-2.61.003-.312-.013-.532-.252-.487-.605.041-.323.264-.456.577-.454.4-.002.798-.002 1.198-.002zm-28.065-2.071c.2 0 .4-.013.6.003.297.023.455.198.474.496.019.3-.13.522-.413.549-.45.042-.908.046-1.357.01-.307-.025-.476-.248-.449-.577.028-.33.228-.478.543-.486.2-.006.4-.001.6-.001a.01.01 0 01.002.006z" fill="#fff"/><path d="M28.642 16.3c-.693-.001-1.256-.563-1.243-1.24a1.233 1.233 0 011.226-1.203c.706-.008 1.259.523 1.265 1.213.004.689-.546 1.232-1.248 1.23zm12.375 10.416c0-.835.001-.805.862-.845.49-.024.696.11.614.614a1.753 1.753 0 000 .541c.082.5-.138.608-.6.588-.875-.036-.876-.008-.876-.898z" fill="#FEFEFE"/></svg>