<svg width="50" height="48" fill="none" xmlns="http://www.w3.org/2000/svg"><path d="M6.25 47.089c-.514-.5-.605-1.135-.59-1.816 0-1.075.016-2.15.016-3.224 0-4.48-.016-8.945-.016-13.425 0-.605 0-1.195.03-1.8.016-.349-.12-.41-.423-.394-.62.015-1.241-.015-1.862.015-1.12.06-2.058-.257-2.815-1.12a3.739 3.739 0 01-.575-2.194C.03 22.707 0 22.268 0 21.829c.015-.227.03-.454.03-.681V4.242c0-2.073 1.135-3.208 3.224-3.208h6.78c.394 0 .772.015.863.514-.03.606-.454.651-.923.651H2.95c-1.105 0-1.786.681-1.8 1.801-.016.59 0 1.165.014 1.756 0 1.65.016 3.284.016 4.934-.016.242-.03.484-.03.726v11.427c0 1.922.544 2.452 2.466 2.391.03 0 .076-.015.106-.015.56.136 1.12.03 1.68.06.151.016.242-.03.288-.196.302-1.105 1.12-1.362 2.18-1.362 3.934.015 7.884 0 11.82 0 .226 0 .453.015.68.015h16.815c.136 0 .257-.015.394 0 .257.015.378-.06.378-.348-.015-.984 0-1.968 0-2.952 0-.257-.076-.317-.333-.272-.5.076-.999.257-1.498-.03-.137-.076-.197.015-.258.12-.181.319-.499.364-.832.364h-4.192c-.167 0-.333-.03-.5-.076-.257-.06-.378-.257-.393-.484-.015-.272.12-.484.393-.56a2.27 2.27 0 01.56-.06c1.393 0 2.8-.016 4.192 0 .424 0 .364-.258.379-.515.015-.288-.015-.47-.379-.454-.696.015-1.392 0-2.088 0-.409 0-.757-.136-.772-.575-.015-.47.348-.62.772-.62.62 0 1.241.014 1.861 0 .455-.016.894-.016 1.105.544.833-1.15 1.59-2.225 2.361-3.3a.894.894 0 00.182-.529c-.015-1.12-.015-2.225-.03-3.345 0-1.65.015-3.3.015-4.949 0-.484.015-.984.015-1.468 0-1.498-.575-2.073-2.089-2.073H14.015c-.167 0-.333.015-.515 0-.408-.03-.696-.197-.696-.651.076-.394.333-.515.696-.515h19.812c.227 0 .454-.03.68-.03.863.015 1.726.03 2.604.03 1.892.015 3.057 1.196 3.057 3.088v8.596c.197-.272.303-.408.409-.56.62-.802 1.574-.802 2.194.015.167.212.303.424.454.651 1.272 1.771 2.558 3.557 3.814 5.328.606.847.333 1.74-.62 2.103-.424.167-.848-.045-1.256-.075-.137-.015-.273-.121-.333.136-.182.772.015 1.044.802 1.044h.68c1.03 0 1.318.197 1.696 1.15 0 1.454-.015 2.891-.03 4.344 0 .273.09.318.333.273.242-.06.484-.076.726-.106.56-.076 1.014.12 1.287.605.287.484.242.969-.076 1.438-.257.393-.53.772-.787 1.165-.348.485-.696.969-1.03 1.438-.786 1.09-1.604 2.18-2.375 3.284-.364.53-.818.818-1.453.803-.44-.152-.757-.44-1.03-.818-.393-.56-.756-1.165-1.24-1.665-.818-1.301-1.786-2.512-2.65-3.783-.196-.303-.423-.409-.786-.409-1.453.015-2.906 0-4.344.015-.408 0-.802-.075-.802-.575 0-.5.363-.575.787-.575 1.392.015 2.785 0 4.177 0 .182 0 .378.06.5-.167.393-.832 1.104-.908 1.861-.71.484.12.666.014.56-.485.106-.485-.015-.727-.59-.666-.424.045-.863.015-1.302 0-.469-.015-.862-.227-1.044-.65-.151-.364-.378-.38-.696-.38H7.704c-.757 0-.893.137-.893.878v19.706c0 .727.136.878.847.878H42.65c.726 0 .863-.151.863-.863v-7.128c0-.424.09-.742.56-.848a.982.982 0 01.544.303c.016.242.046.484.046.726.015 2.21.015 4.42.015 6.614.015.712-.03 1.393-.59 1.922-.47.333-.984.409-1.544.409H7.824c-.59.06-1.12-.015-1.573-.348zm36.006-21.734v2.15c0 .817-.197.983-.983.847-.379-.06-.742-.121-1.12-.166-.121-.016-.288-.091-.364.045-.106.151.046.287.136.393 1.348 1.892 2.71 3.769 4.042 5.66.287.425.438.303.68-.03.909-1.301 1.832-2.572 2.755-3.859.439-.605.878-1.226 1.317-1.831.06-.091.166-.182.09-.303-.075-.12-.196-.075-.302-.06l-1.226.181c-.726.121-.938-.045-.938-.772 0-1.528-.015-3.057 0-4.585 0-.364-.091-.5-.47-.485-1.029.03-2.073.015-3.117 0-.364 0-.515.076-.5.47.03.756 0 1.543 0 2.345zm-3.148-3.405v2.436c0 .182-.015.41.258.41.56 0 1.195.136 1.664-.091.288-.137.06-.833.091-1.287.015-.09 0-.182 0-.287 0-1.332.348-1.71 1.68-1.756.318-.015.378-.121.363-.394a22.002 22.002 0 010-1.407c.015-.5.288-.712.772-.636.454.06.893.136 1.347.212.121.015.273.106.364-.045.075-.137-.03-.243-.106-.349-1.378-1.922-2.74-3.829-4.102-5.75-.227-.334-.363-.273-.575.014-1.347 1.907-2.71 3.8-4.071 5.706-.076.121-.258.227-.152.394.106.136.288.045.424.03l1.226-.182c.575-.09.817.106.817.697.015.741 0 1.513 0 2.285z" fill="#fff"/><path d="M12.804 1.563c.015.454.303.62.696.65.167.016.333 0 .515 0H36.43c1.513 0 2.088.576 2.088 2.074 0 .485 0 .984-.015 1.468a5.534 5.534 0 00-.515-.03H1.726c-.182 0-.379.015-.56.03 0-.59-.016-1.165-.016-1.755.016-1.12.697-1.801 1.801-1.801 2.331-.015 4.677 0 7.023 0 .47 0 .893-.06.923-.651a8.925 8.925 0 001.907.015zm25.684 9.157c.015 1.12.015 2.224.03 3.345 0 .196-.06.363-.181.53a739.005 739.005 0 00-2.362 3.299c-.211-.56-.65-.56-1.104-.545-.62.015-1.241 0-1.862 0-.424 0-.787.136-.772.62.015.44.363.575.772.575.696 0 1.392.015 2.089 0 .363-.015.393.167.378.454-.015.258.06.515-.378.515-1.393-.015-2.8-.015-4.193 0a2.35 2.35 0 00-.56.06c-.272.076-.408.288-.393.56.015.243.151.44.393.485.167.03.333.076.5.076h4.192c.333 0 .651-.03.833-.364.06-.106.12-.196.257-.12.5.272.999.105 1.498.03.258-.046.333.015.333.272 0 .984-.015 1.967 0 2.951 0 .288-.12.363-.378.348-.136-.015-.258 0-.394 0H20.372c-.227 0-.454-.015-.681-.015 0-.62.015-1.24 0-1.861-.016-.909-.454-1.362-1.348-1.378H5.101c-.924 0-1.363.44-1.363 1.347 0 1.135-.015 2.27-.015 3.39-.03 0-.075.016-.106.016-1.922.06-2.467-.47-2.467-2.392V11.492c0-.243.016-.485.03-.727h2.543c5.176 0 10.337.015 15.514.015.015.212.03.409.03.62.015.909.439 1.393 1.332 1.393 2.073.015 4.146.015 6.22 0 .802 0 1.241-.484 1.256-1.286 0-.242.015-.485.03-.742h1.09c.015.182.03.378.03.56.015 1.014.44 1.453 1.438 1.468.333 0 .681.015 1.014 0 .939-.03 1.377-.469 1.377-1.407 0-.212.016-.409.03-.62 1.817-.046 3.618-.046 5.404-.046zm-26.819 7.81h6.947c.757 0 1.12-.198 1.075-.621-.076-.636-.59-.575-1.045-.575H4.798c-.151 0-.303-.015-.454.015-.318.06-.575.197-.59.575-.016.378.242.53.575.59.166.03.333.015.514.015h6.826zm21.28 4.222h2.255c.378 0 .696-.076.711-.515.015-.454-.288-.62-.696-.62h-4.51c-.409 0-.742.151-.727.59.015.409.318.545.712.545h2.255zm-28.03-7.598c-.227.015-.47.015-.711.076-.288.06-.454.257-.454.56.015.287.166.47.423.515.5.105 1 .105 1.499 0 .287-.061.439-.303.423-.59-.015-.273-.196-.44-.454-.5-.227-.046-.469-.03-.726-.06z" fill="#26C7BC"/><path d="M19.251 10.72l.045-.848c.046-.757.454-1.196 1.211-1.196 2.134-.015 4.268-.015 6.387 0 .757 0 1.18.44 1.21 1.196.016.288.016.56.031.848-.015.242-.015.484-.03.741-.015.802-.454 1.287-1.256 1.287-2.074.015-4.147.015-6.22 0-.894-.015-1.318-.485-1.333-1.393-.015-.227-.03-.424-.045-.635zm4.495.862h1.922c1.317 0 1.302 0 1.317-1.317 0-.393-.121-.469-.485-.454-1.589.016-3.163.016-4.752.016-1.377 0-1.362 0-1.317 1.377.016.333.137.409.44.409.938-.046 1.906-.03 2.875-.03zM11.669 18.53H4.828c-.167 0-.348.015-.515-.016-.317-.06-.575-.212-.575-.59.015-.378.273-.514.59-.575.152-.03.303-.015.455-.015H18.63c.454 0 .968-.06 1.044.575.046.424-.318.62-1.074.62h-6.932zm17.541-7.81c.015-.303.015-.606.03-.909.046-.696.47-1.12 1.15-1.135a23.95 23.95 0 011.468 0c.757.016 1.166.44 1.211 1.196.015.288.015.56.03.848-.014.211-.03.408-.03.62-.015.938-.439 1.377-1.377 1.408-.333.015-.681 0-1.014 0-.999-.015-1.423-.454-1.438-1.468 0-.182-.015-.379-.03-.56zm1.165-.03c0 .075.015.15 0 .226-.09.515.076.712.651.681.908-.045.908-.015.908-.983 0-.803 0-.803-.726-.803-.833 0-.833 0-.833.878zm2.573 12.062c-.756 0-1.498-.015-2.255 0-.393.015-.696-.136-.711-.545-.015-.454.318-.59.726-.59h4.51c.41 0 .712.151.697.62-.015.455-.333.53-.712.515h-2.255zM4.919 15.154c.257.015.5.015.741.06a.52.52 0 01.454.5c.015.288-.136.53-.423.59a3.57 3.57 0 01-1.499 0 .496.496 0 01-.424-.514c-.015-.303.167-.5.455-.56.211-.045.469-.045.696-.076z" fill="#fff"/><path d="M41.121 26.581c.106.5-.075.605-.56.484-.772-.196-1.468-.12-1.861.712-.106.227-.318.166-.5.166-1.392 0-2.785.015-4.177 0-.424 0-.802.076-.787.575 0 .5.394.575.802.575 1.453 0 2.906.016 4.344-.015.363 0 .575.106.787.409.863 1.271 1.831 2.482 2.649 3.784 0 2.043-.03 4.07.015 6.114.015.545-.137.727-.681.802-2.013.288-3.542 1.756-3.814 3.769-.091.68-.349.741-.909.741-8.899-.015-17.813-.015-26.712-.015h-.454c-.5-.015-.757-.242-.757-.772V31.576c0-.349.106-.424.439-.454 2.119-.167 3.905-1.938 4.071-4.041.03-.394.151-.5.53-.485 2.391.015 4.797.015 7.189.015 6.795-.015 13.59-.03 20.386-.03zM19.01 35.828c-.03.485.076 1.136.258 1.771 1.24 4.39 6.31 5.994 9.792 3.103a6.01 6.01 0 001.64-2.214v-.003c.852-1.936.822-4.332-.248-6.198-1.316-2.285-3.829-3.572-6.144-3.148-1.346.25-2.501.86-3.387 1.747-1.206 1.207-1.91 2.926-1.91 4.942zm17.163 2.452a2.829 2.829 0 00.68-.082c1.16-.287 2-1.298 2-2.536a2.668 2.668 0 00-2.66-2.71h-.005c-1.468 0-2.648 1.196-2.663 2.665.003.344.068.67.183.97a2.643 2.643 0 002.465 1.693zm-22.096 0c1.498.015 2.693-1.135 2.709-2.603v-.03a2.86 2.86 0 00-.011-.247c-.122-1.382-1.247-2.447-2.638-2.447a2.678 2.678 0 00-2.679 2.648v.03a2.622 2.622 0 002.618 2.65zm.544 3.148c0-.242.015-.484 0-.726-.045-.681-.439-1.06-1.12-1.09-.983-.045-1.392.197-1.498.954a8.03 8.03 0 00-.045 1.347c.015.968.438 1.347 1.407 1.331.863-.015 1.256-.438 1.256-1.362v-.454zm21.583-10.291h2.255c.378 0 .71-.076.726-.53.015-.424-.303-.605-.666-.605a236.739 236.739 0 00-4.631 0c-.379 0-.681.181-.666.605.015.439.348.53.726.515.742.015 1.499.015 2.255.015zM11.35 41.428v-1.301c0-.242-.06-.485-.333-.5-.318-.03-.696-.151-.953.152-.136.15-.152.423 0 .514.514.288.363.757.378 1.196.015.408 0 .832 0 1.24.015.304.167.515.484.5.288-.015.424-.212.424-.5v-1.3zm-.923-6.25c-.348.03-.56.227-.53.575.015.318.227.53.545.53.333 0 .56-.212.56-.56 0-.364-.227-.53-.575-.545zm30.012.53c-.06-.349-.257-.53-.62-.515-.333.015-.515.212-.515.545.015.348.227.575.575.56.348-.016.53-.258.56-.59z" fill="#26C7BC"/><path d="M14.62 41.428c0-.242.015-.484 0-.726-.045-.681-.439-1.06-1.12-1.09-.983-.045-1.392.197-1.498.954a8.03 8.03 0 00-.045 1.347c.015.968.438 1.347 1.407 1.331.863-.015 1.256-.438 1.256-1.362v-.454zm-3.269 0v-1.301c0-.242-.06-.485-.333-.5-.318-.03-.696-.151-.953.152-.136.15-.152.423 0 .514.514.288.363.757.378 1.196.015.408 0 .832 0 1.24.015.304.167.515.484.5.288-.015.424-.212.424-.5v-1.3z" fill="#26C7BC"/><path fill-rule="evenodd" clip-rule="evenodd" d="M20.92 30.886c-1.212 1.21-1.92 2.932-1.91 4.942-.03.485.075 1.136.257 1.771 1.24 4.404 6.31 6.009 9.792 3.103a6.01 6.01 0 001.64-2.214 6.092 6.092 0 01-1.64 2.214c-3.481 2.89-8.551 1.286-9.792-3.103-.167-.635-.273-1.286-.258-1.77 0-2.017.705-3.736 1.911-4.943zm0 0c.886-.887 2.041-1.497 3.387-1.747-1.343.25-2.5.86-3.387 1.747zm3.387-1.747c2.315-.424 4.828.847 6.144 3.148-1.316-2.285-3.829-3.572-6.144-3.148zm6.144 3.148c1.081 1.868 1.107 4.26.249 6.198.852-1.936.82-4.332-.249-6.198zm-.287 3.36a4.756 4.756 0 00-.364-2.104c-.756-1.892-2.088-3.133-4.162-3.39-1.8-.212-3.238.545-4.328 1.937-1.74 2.21-1.514 5.615.484 7.613 1.726 1.71 4.314 1.907 6.236.408 1.453-1.12 2.119-2.648 2.134-4.464zm-18.707-.046v.03a2.613 2.613 0 002.618 2.65 2.622 2.622 0 01-2.618-2.65v-.03zm5.317-.201c.007.08.01.163.01.246v.031a2.537 2.537 0 00-.01-.277z" fill="#fff"/><path d="M36.203 31.137h-2.255c-.379 0-.712-.076-.727-.514-.015-.424.288-.606.666-.606 1.544-.015 3.088-.015 4.631 0 .379 0 .681.182.666.606-.015.438-.348.53-.726.53-.742-.016-1.498-.016-2.255-.016zm-25.775 4.041c.363.015.575.181.575.545 0 .348-.227.575-.56.56-.317 0-.53-.212-.544-.53-.03-.348.166-.545.53-.575zm30.012.529c-.03.333-.212.59-.545.59-.333.016-.56-.211-.575-.56-.015-.332.182-.53.515-.544.348-.03.545.151.605.514z" fill="#fff"/><path d="M23.747 11.582c-.969 0-1.922-.015-2.89 0-.304 0-.425-.06-.44-.408-.045-1.378-.06-1.378 1.317-1.378 1.59 0 3.163.016 4.752-.015.348 0 .485.076.485.454 0 1.317.015 1.317-1.317 1.317-.636.03-1.271.03-1.907.03z" fill="#FEFEFE"/><path d="M24.594 36.888c.09.438-.076.605-.53.575-.394-.03-.923-.137-.954.5-.015.68.545.529.954.544.257.015.53-.076.56.348.015.257.197.439.5.454.317.015.514-.166.544-.454.03-.257.136-.318.394-.363.847-.136 1.362-.727 1.377-1.529.015-.817-.47-1.513-1.287-1.604-.665-.076-.408-.5-.438-.817-.046-.454.302-.318.545-.333.393-.03.938.12.938-.515.015-.681-.545-.53-.969-.53-.303 0-.545 0-.575-.408-.015-.242-.212-.379-.484-.394-.288-.015-.5.136-.53.394-.03.347-.226.378-.513.423h-.002c-.756.122-1.27.788-1.256 1.575 0 .787.515 1.453 1.287 1.558.408.046.514.212.439.576z" fill="#26C7BC"/><path fill-rule="evenodd" clip-rule="evenodd" d="M30.163 35.647c-.015 1.816-.68 3.344-2.134 4.464-1.922 1.483-4.51 1.302-6.235-.408-1.998-1.983-2.24-5.404-.485-7.613 1.105-1.393 2.543-2.165 4.329-1.937 2.058.257 3.405 1.498 4.162 3.39.272.666.393 1.377.363 2.104zm-6.1 1.816c.455.03.621-.137.53-.575.076-.364-.03-.53-.438-.576-.772-.105-1.287-.771-1.287-1.558-.015-.787.5-1.453 1.257-1.575h.001c.287-.045.483-.076.513-.423.03-.258.242-.409.53-.394.272.015.469.152.484.394.03.408.273.408.575.408.424 0 .984-.151.969.53 0 .636-.545.484-.938.515-.243.015-.59-.121-.545.333.03.317-.227.741.439.817.817.09 1.301.787 1.286 1.604-.015.802-.53 1.393-1.377 1.529-.258.045-.364.106-.394.363-.03.288-.227.47-.545.454-.302-.015-.484-.197-.5-.454-.03-.424-.302-.333-.56-.348-.408-.015-.968.136-.953-.545.03-.636.56-.53.954-.5z" fill="#26C7BC"/><path d="M37.837 36.313c-.318.787-1.09 1.241-1.877 1.12-.832-.121-1.498-.817-1.604-1.665-.091-.757.439-1.574 1.195-1.861.772-.288 1.696 0 2.15.696.106.166.181.363.272.56-.62.302-.666.666-.136 1.15zm-1.105-.696c-.015-.197-.166-.409-.515-.424-.378-.015-.575.212-.575.545-.015.348.242.56.575.56.318-.015.515-.212.515-.681z" fill="#26C7BC"/><path d="M37.837 36.312c-.545-.5-.5-.847.136-1.15.364.015.62.197.62.575-.014.454-.362.56-.756.575z" fill="#fff"/><path d="M12.335 35.163c.439-1.03 1.044-1.423 2.028-1.332.772.076 1.377.666 1.544 1.498.166.893-.379 1.771-1.287 2.044-.908.272-1.786-.167-2.149-1.06.545-.484.5-.847-.136-1.15zm2.316.484c-.03-.227-.167-.454-.515-.454-.363 0-.545.197-.545.56 0 .348.212.545.515.545.333 0 .545-.197.545-.65z" fill="#26C7BC"/><path d="M12.335 35.162c.635.303.665.666.136 1.166-.379-.016-.727-.122-.742-.576-.015-.393.242-.575.606-.59z" fill="#fff"/><path d="M12.895 41.383c0-.166.015-.333 0-.515-.015-.257.09-.378.363-.363.242.015.454.015.439.348a11.28 11.28 0 000 1.014c.015.288-.06.454-.409.47-.333 0-.424-.152-.409-.44.03-.181.016-.347.016-.514z" fill="#26C7BC"/><path d="M36.732 35.617c.015.484-.197.666-.515.68-.333.016-.59-.196-.575-.56.015-.332.212-.559.575-.544.349.015.5.227.515.424zm-22.082.03c0 .454-.212.651-.545.651-.302 0-.514-.197-.514-.545 0-.363.181-.56.545-.56.348 0 .484.227.514.454z" fill="#fff"/></svg>