<svg width="50" height="34" fill="none" xmlns="http://www.w3.org/2000/svg"><path d="M48.915 10.468c.014-.537-.113-.678-.664-.678h-2.527l.348 6.061h2.25c.452 0 .607-.099.593-.58a135.909 135.909 0 010-4.803z" fill="#26C7BC"/><path d="M32.823 33.497c-7.177.014-14.368.014-21.546.014-.127 0-.24.014-.367.014-1.512-.014-3.023 0-4.55-.028-1.44-.028-2.599-1.2-2.641-2.642l1.045-.198c.014 1.088.693 1.78 1.795 1.78 8.816 0 17.618 0 26.434.015h12.292c.55-.029 1.088-.014 1.639-.014 1.398 0 2.02-.622 2.02-2.035 0-1.88.014-3.772 0-5.651 0-.678.056-1.37-.057-2.049v-.001c0-1.3 0-2.599-.014-3.899.113-.41.014-.847.057-1.257.056-.466-.1-.593-.58-.593h-2.417v-1.116h2.375c.452 0 .608-.1.594-.58a135.909 135.909 0 010-4.803c.014-.523-.114-.679-.665-.679h-2.304V8.727l2.29.003.129-.003c.083-.003.164-.006.239.003.282.028.367-.085.353-.353-.01-.48-.006-.961-.003-1.441v-.002l.003-.719c-.014-1.3-.636-1.936-1.964-1.936h-1.047V3.276h1.132c1.766.015 2.924 1.13 2.924 2.897.015 8.152.015 16.304 0 24.456 0 1.724-1.003 2.741-2.811 2.925-.664-.015-1.328 0-1.992-.029l-12.363-.028z" fill="#fff"/><path d="M48.887 22.689c-.959 0-1.923 0-2.881.014-.198 0-.282-.226-.282-.707v-2.529c0-.438.062-.706.259-.692.97.014 1.934.014 2.904.014v3.9zM31.013 10.091c-.014-.353-.198-.607-.565-.607-.353 0-.593.24-.593.593 0 .354.226.537.565.551.367 0 .565-.17.593-.537zm1.102.523c.48.028.664-.183.692-.523.029-.395-.226-.593-.565-.607-.31-.014-.58.184-.58.537-.027.381.199.58.453.593zm1.921.014c.311-.014.551-.17.566-.55.014-.368-.226-.566-.537-.58-.34-.014-.608.17-.608.565-.014.311.142.551.58.565z" fill="#26C7BC"/><path fill-rule="evenodd" clip-rule="evenodd" d="M18.538 6.489c.127.466.466.537.904.537 8.364-.015 16.742 0 25.106-.015.551 0 .678.142.664.679a135.906 135.906 0 000 4.803c.014.48-.141.58-.593.58-14.312-.014-28.61-.014-42.923 0-.494 0-.621-.142-.607-.622.028-1.648.014-3.297 0-4.96v-.013c0-.382.113-.48.48-.467 1.041.029 2.068.015 3.109 0h.014l7.743-.522 4.012-.014c.692.014 1.398.014 2.09.014zm11.91 2.995c.367 0 .55.254.565.607-.028.368-.226.537-.593.537-.34-.014-.566-.197-.566-.55 0-.354.24-.594.594-.594zm2.36.607c-.029.34-.213.552-.693.523-.254-.014-.48-.212-.452-.593 0-.353.268-.551.58-.537.338.014.593.212.564.607zm1.794-.014c-.014.382-.255.537-.566.551-.438-.014-.593-.254-.579-.565 0-.395.269-.579.608-.565.31.014.55.212.537.58z" fill="#26C7BC"/><path fill-rule="evenodd" clip-rule="evenodd" d="M29.12 30.72c-7.178.013-14.369.013-21.546.013-.127 0-.24.014-.368.014-1.511-.014-3.023 0-4.549-.028-1.441-.028-2.6-1.2-2.642-2.642-.014-.763 0-1.512-.014-2.274-.014-.396.141-.636.537-.721.395.085.537.34.523.735-.015.692-.015 1.37 0 2.063.014 1.087.692 1.78 1.794 1.78 8.816 0 17.618 0 26.434.014h12.292c.55-.029 1.088-.014 1.639-.014 1.398 0 2.02-.622 2.02-2.035 0-1.879.014-3.772 0-5.651 0-.678.057-1.37-.056-2.049v-.001c0-1.3 0-2.599-.014-3.898.113-.41.014-.848.056-1.258.057-.466-.099-.593-.58-.593-14.354.014-28.694.014-43.049 0-.452 0-.55.127-.536.55.028 2.572 0 5.144.014 7.715 0 .396-.1.692-.523.791-.509-.085-.537-.452-.537-.876V6.405c0-1.018-.014-2.05-.014-3.067C.015 1.445 1.555.315 3.039.47c.113.014.24-.014.367-.014.353.014.706-.014 1.045.028L16.785.5c.721-.03 1.442-.016 2.162-.03 3.518.014 7.022.014 10.54.029.89 0 1.794-.015 2.684-.029h6.867c1.44.014 2.882.014 4.323.029 1.766.014 2.925 1.13 2.925 2.896a7069.9 7069.9 0 010 24.456c0 1.724-1.003 2.741-2.812 2.925-.664-.014-1.328 0-1.992-.029L29.12 30.72zM19.427 5.951c-.423 0-.777.057-.89.537.142.466.467.537.89.523h.002c8.364 0 16.741 0 25.105-.014.55 0 .678.155.664.678a136.387 136.387 0 000 4.803c.014.48-.142.58-.594.58-14.312-.014-28.61-.014-42.922 0-.494 0-.621-.142-.607-.622.028-1.667.014-3.32 0-4.973 0-.367.113-.48.48-.466a115 115 0 003.122 0l8.637.013a.522.522 0 10.001-1.045H4.663a122.401 122.401 0 00-3.221 0c-.254 0-.381-.042-.367-.339.014-.833-.014-1.681.014-2.529.028-.876.734-1.554 1.61-1.582.65-.014 1.3.014 1.95-.014l12.264-.014c4.45.014 8.914.014 13.364.014h12.999c1.328 0 1.95.635 1.964 1.935l-.003.72c-.003.481-.006.962.003 1.442.014.268-.07.381-.353.353a1.515 1.515 0 00-.24-.003c-.041.001-.084.003-.127.003l-8.364.003c-5.576.003-11.152.007-16.729-.003z" fill="#fff"/><path d="M45.184 19.911c-2.402 0-4.818 0-7.22.014-.494 0-.706-.226-.706-.706v-2.53c0-.437.155-.706.65-.691 2.43.014 4.846.014 7.276.014v3.9z" fill="#26C7BC"/><path d="M11.346 24.545h6.81c.17 0 .353 0 .523.028.24.043.367.198.395.438.028.255-.07.452-.325.537-.141.042-.31.057-.466.057H4.353c-.156 0-.326 0-.467-.043a.469.469 0 01-.353-.523c.028-.254.17-.423.424-.466.17-.028.353-.014.522-.014 2.303-.014 4.592-.014 6.867-.014zm-.014 2.02h7.021c.34 0 .65.029.721.438.042.311-.099.523-.396.594-.17.042-.353.028-.522.028H4.21c-.382 0-.692-.141-.678-.565.014-.396.31-.495.664-.495h7.135zM6.613 17.99c0 .155-.014.31 0 .48.127 1.61-1.173 1.808-2.176 1.554-.523-.127-.848-.58-.876-1.187a16.963 16.963 0 010-1.695c.043-.89.594-1.314 1.64-1.286.917.028 1.384.466 1.412 1.342v.791zm-1.06-.015c0-.212-.014-.424 0-.636.043-.381-.17-.424-.48-.424-.325 0-.495.085-.466.438.014.382.028.777 0 1.159-.029.367.085.537.494.537.452 0 .48-.226.452-.565-.014-.17 0-.34 0-.509zm8.307.001c0 .155-.014.31 0 .48.085 1.498-.974 1.865-2.161 1.583-.537-.128-.848-.51-.876-1.06-.028-.65-.028-1.3 0-1.95.028-.607.452-1.045 1.06-1.116.254-.028.522-.028.79-.014.65.056 1.075.438 1.16 1.088.042.325.013.664.013 1.003 0-.014 0-.014.015-.014zm-2.006.014c0 .155.014.31 0 .466-.028.353 0 .594.48.594.495 0 .481-.283.467-.622-.014-.31-.014-.636 0-.947.014-.367-.028-.593-.495-.579-.452 0-.48.226-.452.565.014.184 0 .353 0 .523zm5.369-.043v1.427c0 .353-.127.65-.537.65-.41 0-.508-.297-.536-.65-.029-.34.155-.777-.085-1.018-.226-.212-.636-.042-.975-.07-.367-.029-.58-.212-.58-.608v-1.271c0-.325.17-.537.51-.537.338-.014.508.198.536.523.014.17.014.353 0 .522 0 .184.029.297.255.297.197 0 .339-.042.339-.283 0-.197-.014-.381.014-.579.028-.297.212-.48.522-.48.311 0 .51.198.51.494.041.523.013 1.06.027 1.583zm13.267.014v1.427c0 .368-.127.636-.537.636-.396 0-.509-.282-.523-.65-.014-.353.156-.805-.084-1.003-.198-.17-.636-.056-.975-.07-.382-.015-.58-.226-.594-.594a19.115 19.115 0 010-1.271c.014-.325.17-.537.523-.552.339 0 .509.212.537.537.014.17.014.354.014.523-.014.24.127.283.339.283.226 0 .254-.113.254-.297 0-.198-.014-.395.015-.58.042-.296.226-.48.536-.466.311.015.495.184.509.495-.014.523-.014 1.046-.014 1.582zm-3.504 0v1.427c0 .367-.155.636-.551.622-.367 0-.509-.255-.509-.608v-.056c-.014-.34.1-.75-.07-.975-.184-.255-.622-.07-.947-.085-.438-.028-.65-.24-.65-.664 0-.381-.014-.777 0-1.159.014-.339.156-.593.537-.593.382 0 .523.24.523.594 0 .17 0 .353.014.522.014.24.184.212.34.226.169.014.268-.056.253-.24v-.424c-.014-.381.1-.678.537-.678.41 0 .523.297.523.65v1.441zm6.994-.001v1.47c0 .353-.156.594-.523.58-.367 0-.509-.255-.537-.594-.028-.367.155-.834-.085-1.06-.212-.183-.664-.056-1.017-.084-.325-.029-.523-.212-.537-.537a20.414 20.414 0 010-1.314c.014-.325.17-.537.509-.551.339 0 .508.212.537.523.014.17.014.353.014.522-.014.24.113.297.325.297.226 0 .268-.113.254-.297 0-.17-.014-.353 0-.522.028-.325.198-.537.537-.523.339.014.508.212.508.55.015.524.015 1.032.015 1.54zm-23.99-.013v1.469c0 .353-.156.593-.523.593-.368 0-.509-.254-.537-.593-.028-.367.155-.834-.085-1.06-.198-.183-.664-.056-1.017-.084-.325-.029-.523-.198-.537-.537a20.37 20.37 0 010-1.314c.014-.325.17-.537.508-.551.34-.014.51.212.537.523.014.17.014.353.014.522-.014.24.114.297.325.297.227 0 .269-.113.255-.297 0-.17-.014-.353 0-.522.028-.325.198-.537.537-.523.339.014.508.212.508.55.014.51.014 1.018.014 1.527zm13.507-.014v1.47c0 .367-.17.62-.565.607-.368-.014-.509-.269-.495-.622v-.056c-.028-.325.141-.735-.07-.975-.212-.24-.636-.07-.961-.085-.424-.028-.65-.226-.65-.664v-1.102c0-.353.127-.636.523-.636.41 0 .537.269.522.636 0 .127.015.24 0 .367-.028.24.071.353.325.34.24 0 .297-.128.283-.326-.014-.099 0-.212 0-.31-.014-.368.07-.693.509-.693.48 0 .55.34.55.735.029.438.029.876.029 1.314zM4.917 22.85c-.282 0-.565.014-.833 0-.325-.028-.537-.198-.537-.537 0-.325.212-.508.537-.522.579-.015 1.158 0 1.738 0 .31 0 .494.197.508.494.014.325-.198.523-.523.551-.296.028-.593.014-.89.014zm26.096-12.759c-.028.368-.226.552-.58.537-.352-.014-.578-.197-.564-.55 0-.368.24-.608.593-.594.367 0 .537.254.551.607zm1.102.523c-.255-.028-.467-.212-.467-.593a.53.53 0 01.58-.537c.339.014.593.212.565.608-.014.339-.198.55-.678.522zm1.922.015c-.438-.015-.594-.255-.594-.58 0-.381.269-.579.608-.565.31.014.55.226.537.58-.014.395-.24.55-.551.565z" fill="#fff"/></svg>