<svg width="51" height="31" fill="none" xmlns="http://www.w3.org/2000/svg"><path d="M32.383 3.76H18.79v23.584h13.593V3.761z" fill="#2FE3D7"/><path d="M19.654 15.554a14.548 14.548 0 011.557-6.556 15.084 15.084 0 014.375-5.237 15.84 15.84 0 00-7.942-3.12A16.02 16.02 0 009.2 2.063a15.361 15.361 0 00-6.38 5.533 14.619 14.619 0 00-2.367 7.958c0 2.814.82 5.572 2.368 7.957a15.363 15.363 0 006.377 5.533 16.022 16.022 0 008.447 1.423 15.84 15.84 0 007.942-3.12 15.086 15.086 0 01-4.373-5.236 14.546 14.546 0 01-1.56-6.557z" fill="#26C7BC"/><path d="M50.72 15.552c0 2.814-.821 5.573-2.367 7.957a15.36 15.36 0 01-6.379 5.533 16.02 16.02 0 01-8.445 1.423 15.84 15.84 0 01-7.944-3.12 15.112 15.112 0 004.372-5.237 14.578 14.578 0 001.562-6.556 14.578 14.578 0 00-1.56-6.554 15.112 15.112 0 00-4.372-5.239 15.84 15.84 0 017.94-3.12 16.02 16.02 0 018.447 1.423 15.362 15.362 0 016.38 5.532 14.62 14.62 0 012.365 7.958zm-1.482 9.299v-.485h.2v-.097h-.512v.097h.201v.485h.11zm.997 0v-.584h-.158l-.182.402-.181-.402h-.156v.584h.11v-.44l.17.38h.116l.17-.382v.442h.11z" fill="#26C7BC"/></svg>