<svg width="65" height="41" fill="none" xmlns="http://www.w3.org/2000/svg"><path d="M13.171.553h15.961c2.228 0 3.614 1.816 3.094 4.051l-7.43 31.904c-.525 2.227-2.756 4.045-4.985 4.045H3.85c-2.224 0-3.613-1.818-3.094-4.045L8.191 4.604c.52-2.235 2.75-4.051 4.98-4.051z" fill="#26C7BC"/><path d="M27.803.553h18.355c2.227 0 1.223 1.816.699 4.051l-7.43 31.904c-.521 2.227-.359 4.045-2.59 4.045H18.481c-2.233 0-3.614-1.818-3.09-4.045l7.43-31.904C23.349 2.37 25.574.553 27.803.553z" fill="#26C7BC"/><path d="M45.431.553h15.961c2.231 0 3.617 1.816 3.093 4.051l-7.43 31.904c-.524 2.227-2.757 4.045-4.987 4.045H36.115c-2.233 0-3.617-1.818-3.095-4.045l7.431-31.904C40.971 2.37 43.2.553 45.431.553z" fill="#26C7BC"/><path d="M17.34 10.777c-1.64.017-2.125 0-2.28-.036-.06.282-1.167 5.391-1.17 5.396-.239 1.033-.412 1.77-1.002 2.246a1.78 1.78 0 01-1.178.41c-.728 0-1.152-.361-1.223-1.047l-.014-.235s.222-1.385.222-1.393c0 0 1.163-4.655 1.37-5.27a.448.448 0 00.018-.071c-2.263.02-2.664 0-2.692-.036a8.62 8.62 0 00-.07.338l-1.188 5.248-.102.445-.197 1.456c0 .431.085.784.254 1.082.54.945 2.083 1.087 2.956 1.087 1.124 0 2.178-.24 2.891-.675 1.237-.731 1.56-1.874 1.85-2.89l.133-.52s1.198-4.836 1.401-5.465c.008-.035.011-.053.022-.07zm4.075 3.901c-.289 0-.816.07-1.29.302-.172.089-.335.19-.506.292l.155-.559-.085-.094c-1.005.203-1.23.23-2.158.361l-.078.052c-.108.894-.203 1.566-.603 3.322-.152.647-.31 1.3-.468 1.947l.042.082c.952-.05 1.24-.05 2.067-.037l.067-.073c.105-.538.119-.664.351-1.753.11-.517.337-1.652.45-2.056.206-.096.41-.19.605-.19.463 0 .407.404.389.565-.02.27-.189 1.154-.362 1.912l-.116.49c-.08.36-.168.712-.249 1.07l.035.072c.938-.05 1.224-.05 2.024-.037l.094-.073c.145-.84.188-1.065.444-2.288l.13-.562c.25-1.1.376-1.658.187-2.113-.201-.51-.683-.632-1.125-.632zm4.551 1.152c-.498.096-.816.16-1.132.2-.313.05-.618.096-1.1.163l-.038.035-.035.027c-.05.36-.085.67-.152 1.034-.056.377-.143.805-.284 1.42-.11.472-.166.636-.228.802-.06.165-.128.326-.25.79l.028.042.024.04c.45-.022.745-.037 1.047-.04.303-.01.616 0 1.1.003l.043-.035.046-.038c.07-.418.08-.53.123-.734.042-.218.115-.521.295-1.33.085-.38.179-.758.267-1.145.091-.386.187-.766.278-1.146l-.014-.046-.018-.042zm.01-1.553c-.452-.268-1.247-.183-1.782.187-.533.361-.594.875-.142 1.146.445.26 1.242.182 1.773-.19.532-.37.598-.879.152-1.143zm2.74 6.19c.916 0 1.855-.253 2.562-1.002.543-.608.793-1.512.88-1.884.28-1.234.061-1.81-.214-2.161-.418-.535-1.156-.707-1.922-.707-.46 0-1.557.046-2.414.836-.616.57-.9 1.343-1.072 2.085-.173.755-.372 2.115.878 2.621.386.166.943.211 1.301.211zm-.072-2.777c.211-.934.46-1.719 1.097-1.719.499 0 .535.584.313 1.521-.04.208-.222.982-.468 1.312-.172.243-.375.39-.6.39-.067 0-.465 0-.471-.59-.003-.292.056-.59.129-.914zm5.803 2.656l.072-.073c.102-.538.118-.664.343-1.753.112-.517.345-1.652.454-2.056.207-.096.408-.19.608-.19.46 0 .405.404.386.565-.016.27-.185 1.153-.361 1.912l-.11.489c-.083.362-.174.713-.255 1.071l.035.072c.94-.05 1.216-.05 2.021-.037l.097-.073c.142-.84.18-1.065.444-2.288l.126-.563c.252-1.1.38-1.657.193-2.112-.206-.509-.691-.632-1.127-.632-.29 0-.82.07-1.29.302a8.54 8.54 0 00-.504.292l.145-.559-.078-.094c-1.004.203-1.234.23-2.16.361l-.072.052c-.112.894-.204 1.565-.603 3.322-.152.647-.31 1.301-.468 1.947l.042.082c.953-.05 1.237-.05 2.062-.037zm6.912.037c.059-.289.41-2 .413-2 0 0 .3-1.255.318-1.3 0 0 .094-.132.188-.183h.138c1.307 0 2.783 0 3.94-.851.786-.584 1.324-1.445 1.564-2.493.063-.256.109-.562.109-.867 0-.401-.081-.798-.314-1.108-.59-.825-1.764-.84-3.12-.847l-.668.007c-1.735.02-2.431.015-2.717-.02-.024.126-.07.351-.07.351s-.622 2.881-.622 2.886l-1.557 6.414c1.515-.018 2.136-.018 2.398.01zm1.152-5.118l.657-2.865.022-.147.01-.113.263.027 1.395.12c.538.209.76.745.605 1.446-.14.64-.556 1.178-1.09 1.437-.439.22-.977.239-1.531.239h-.359l.028-.144zm4.115 2.478c-.175.745-.375 2.105.869 2.59a2.43 2.43 0 001.114.2c.381-.02.735-.212 1.063-.487l-.09.34.057.073a33.156 33.156 0 012.143-.03l.088-.068c.142-.832.275-1.64.643-3.233.18-.763.358-1.519.542-2.278l-.028-.084a40.23 40.23 0 01-2.233.362l-.073.06-.029.225a1.375 1.375 0 00-.702-.577c-.428-.168-1.434.049-2.299.836-.608.562-.9 1.332-1.065 2.071zm2.103.046c.214-.918.46-1.695 1.099-1.695.403 0 .615.373.572 1.008-.034.158-.07.325-.115.514-.064.272-.133.543-.2.813a1.98 1.98 0 01-.236.477c-.164.232-.555.377-.78.377-.063 0-.457 0-.47-.58-.004-.29.056-.587.13-.914zm10.983-3.03l-.078-.089c-.99.2-1.17.233-2.08.356l-.067.067c-.004.01-.006.027-.01.043l-.004-.016c-.678 1.564-.658 1.226-1.21 2.457l-.006-.15-.138-2.668-.087-.089c-1.037.2-1.062.233-2.02.356l-.075.067c-.01.032-.01.067-.017.105l.006.013c.12.613.091.476.212 1.443.056.474.13.95.186 1.419.095.784.148 1.17.263 2.366-.647 1.068-.8 1.473-1.424 2.41l.005.01-.44.693c-.05.074-.095.124-.159.145-.07.035-.16.041-.287.041h-.243l-.362 1.202 1.24.022c.728-.003 1.185-.344 1.432-.801l.78-1.336h-.013l.082-.095c.524-1.128 4.514-7.972 4.514-7.972zM46.626 30.546H46.1l1.947-6.438h.645l.205-.664.02.738c-.024.456.335.86 1.277.793h1.09l.375-1.24h-.41c-.236 0-.345-.06-.332-.187l-.02-.75H48.88v.004c-.653.013-2.601.062-2.996.167-.477.123-.98.485-.98.485l.198-.664h-1.888l-.393 1.318-1.973 6.537h-.383l-.375 1.23h3.76l-.127.411h1.853l.123-.41h.52l.407-1.33zm-1.543-5.13c-.302.083-.864.337-.864.337l.5-1.645h1.5l-.362 1.198s-.464.028-.774.11zm.03 2.35s-.472.06-.782.13c-.305.092-.878.384-.878.384l.517-1.712h1.507l-.365 1.199zm-.841 2.796h-1.505l.437-1.446h1.5l-.432 1.445zm3.623-3.994h2.168l-.312 1.009h-2.197l-.33 1.103h1.923l-1.456 2.05a.6.6 0 01-.295.246.865.865 0 01-.39.113h-.534l-.366 1.208h1.395c.725 0 1.154-.33 1.47-.763l.998-1.366.214 1.387c.046.26.233.412.36.471.139.07.283.19.487.208.218.01.377.017.481.017h.686l.412-1.352h-.27c-.156 0-.423-.026-.469-.075-.045-.06-.045-.15-.07-.289l-.217-1.39h-.89l.39-.465h2.193l.337-1.103h-2.03l.316-1.01h2.024l.375-1.244h-6.034l-.37 1.245zM29.58 30.842l.506-1.683h2.08l.38-1.252h-2.082l.318-1.037h2.035l.377-1.213h-5.091l-.37 1.213h1.157l-.308 1.037h-1.16l-.384 1.273h1.156l-.675 2.228c-.09.295.043.407.128.544a.557.557 0 00.372.272c.204.045.344.073.534.073h2.345l.417-1.388-1.04.143c-.2 0-.756-.024-.695-.21zm.239-8.06l-.528.953c-.113.208-.214.337-.305.397-.08.05-.24.071-.471.071h-.276l-.367 1.219h.913c.44 0 .777-.161.938-.242.173-.092.218-.04.352-.169l.309-.267h2.852l.379-1.269h-2.088l.364-.693H29.82zm4.21 8.085c-.048-.07-.013-.193.061-.45l.78-2.58h2.773c.404-.006.696-.011.886-.025.204-.021.426-.094.667-.225.25-.136.377-.28.485-.447.12-.165.313-.527.479-1.085l.98-3.265-2.878.017s-.886.13-1.277.275c-.393.16-.956.61-.956.61l.26-.895h-1.778l-2.489 8.255c-.088.32-.147.553-.16.693-.006.15.189.3.315.412.149.112.37.094.58.112.223.017.538.028.974.028h1.367l.42-1.416-1.224.115a.321.321 0 01-.264-.13zm1.344-4.774h2.913l-.185.581c-.026.014-.089-.029-.385.006h-2.523l.18-.587zm.583-1.946h2.938l-.211.699s-1.385-.014-1.607.027c-.975.169-1.545.69-1.545.69l.425-1.416zm2.21 4.47a.31.31 0 01-.116.18c-.059.038-.154.052-.297.052h-.415l.024-.707h-1.726l-.07 3.456c-.003.249.021.393.203.509.183.144.745.163 1.502.163h1.082l.39-1.294-.942.052-.313.018a.361.361 0 01-.129-.08c-.04-.04-.107-.016-.096-.265l.008-.886.987-.04c.534 0 .762-.174.956-.34.186-.158.247-.34.317-.586l.165-.785H38.34l-.173.554z" fill="#131D24"/></svg>