<svg width="112" height="31" fill="none" xmlns="http://www.w3.org/2000/svg"><path d="M52.077 8.254c-.785 2.189-2.947 1.93-2.947 1.93l-2.953.002 1.166-4.338s1.868.01 3.103.01c1.511 0 2.06 1.2 1.63 2.396zm6.2-2.028c.48-3.796-2.413-5.38-6.025-5.38h-9.49L37.16 21.264h6.03l1.696-6.295 4.805.03c0-.002 7.44.314 8.587-8.773zm-34.45.203h5.5l-2.265 8.716s-.564 1.943 1.254 2.093c1.435.119 2.504-1.595 2.855-2.756.46-1.525 2.248-8.054 2.248-8.054h5.666l-4.312 14.835h-4.948l.609-2.12s-2.525 3.078-6.275 2.71c-3.333-.328-3.62-2.745-3.043-5.763.283-1.48 2.711-9.661 2.711-9.661z" fill="#26C7BC"/><path d="M63.349 18.241c-.942.24-2.085.37-2.312-.487-.622-2.346 4.87-3.033 4.87-3.033.038 2.138-1.835 3.336-2.558 3.52zm8.309-4.293c.725-2.468 1.64-4.805.903-6.1-1.129-1.982-3.17-2.156-6.156-2.156-3.297 0-7.37.627-8.697 5.012H63.2s.5-1.652 2.561-1.547c1.825.092 1.725 1.347 1.053 2.04-1.18 1.217-4.436.542-8.042 1.794-3.15 1.093-4.254 5.237-3.57 6.89.663 1.604 1.9 1.808 3.566 1.972 2.678.263 4.73-1.23 5.685-2.105 0 .973.025 1.516.025 1.516h5.779l-.015-.544s-.514-.136-.457-.86c.042-.53 1.04-3.078 1.873-5.912zm-55.596-5.74c-.78 1.806-3.197 1.6-3.197 1.6l-2.815-.013 1.027-3.826s2.519.01 3.754.01c1.322 0 1.735 1.062 1.231 2.228zM22.46 5.6C22.939 1.804 19.6.846 15.987.846h-9.49L.895 21.264h6.03l1.883-6.933 3.383.027s1.396-.08 1.423 1.23c.03 1.399-1.036 3.967-.967 5.675h6.195l-.014-.544s-.514-.137-.457-.86c.024-.3.356-1.253.791-2.538.262-.566.658-1.91.622-3.004-.046-1.365-.903-2-2.139-2.443C21.497 10.973 22.46 5.6 22.46 5.6zm51.815.829h5.602v8.9l4.846-8.9h5.142L79.499 24.424s-.962 1.51-2.157 2.308c-.98.657-2.186.627-2.554.653-2.047-.018-4.518-.023-4.518-.023l1.192-4.289 1.928-.003s.882-.09 1.223-.526c.325-.415.49-.829.49-1.437 0-.912-.83-14.678-.828-14.678z" fill="#26C7BC"/><path d="M104.333.553l-8.624 30 16.143-15-7.519-15z" fill="#2FE3D7"/><path d="M98.805.553l-8.624 30 16.143-15-7.52-15z" fill="#26C7BC"/></svg>