<svg width="105" height="31" fill="none" xmlns="http://www.w3.org/2000/svg"><path fill-rule="evenodd" clip-rule="evenodd" d="M93.934.553H74.006c1.071 6.643 7.5 12.857 14.571 12.857h15.857c.215-.643.215-1.5.215-2.143 0-6-4.715-10.714-10.715-10.714zM75.72 14.481v16.072h9.643V21.98h8.571c4.714 0 8.786-3.214 10.071-7.5H75.72zM41.434.553v30h8.571s2.143 0 3.215-2.143l7.5-15h1.071v17.143h9.643v-30h-8.571s-2.143.214-3.215 2.143l-7.5 15h-1.071V.553h-9.643zm-40.714 30v-30h9.643s2.785 0 4.285 4.285c3.857 11.358 4.286 12.858 4.286 12.858s.857-2.786 4.286-12.858C24.72.553 27.505.553 27.505.553h9.643v30h-9.643V14.48h-1.071l-5.357 16.072H16.79L11.434 14.48h-1.071v16.072H.72z" fill="#26C7BC"/></svg>