<svg width="98" height="31" fill="none" xmlns="http://www.w3.org/2000/svg"><path d="M39.02 1.053l-4.952 29.063h7.92l4.958-29.063h-7.927zm-11.594.032L19.67 20.906l-.828-2.992c-1.529-3.606-5.874-8.786-10.972-12.05l7.093 24.24 8.381-.016L35.819 1.079l-8.393.006z" fill="#26C7BC"/><path d="M15.833 3.167C15.374 1.395 14.04.868 12.383.805H.1l-.1.579c9.556 2.318 15.879 7.905 18.505 14.622l-2.672-12.84zM63 6.625c2.032-.045 4.05.334 5.927 1.112l.715.337 1.072-6.298c-1.567-.59-4.026-1.223-7.095-1.223-7.827 0-13.345 3.944-13.387 9.592-.052 4.175 3.93 6.506 6.936 7.898 3.088 1.425 4.122 2.33 4.108 3.605-.024 1.945-2.46 2.838-4.738 2.838-3.172 0-4.856-.438-7.456-1.521l-1.023-.465-1.114 6.505c1.854.814 5.274 1.511 8.826 1.548 8.326 0 13.74-3.895 13.795-9.93.034-3.303-2.078-5.823-6.656-7.893-2.77-1.347-4.465-2.243-4.45-3.605 0-1.208 1.439-2.5 4.54-2.5zm28.043-5.54h-6.12c-1.901 0-3.315.519-4.15 2.414L69.012 30.134h8.317s1.357-3.58 1.665-4.366l10.144.011c.235 1.015.965 4.355.965 4.355h7.35l-6.41-29.048zm-9.77 18.735c.652-1.669 3.157-8.123 3.157-8.123-.044.08.646-1.682 1.055-2.775l.535 2.505 1.834 8.393h-6.58z" fill="#26C7BC"/></svg>