<svg width="54" height="41" fill="none" xmlns="http://www.w3.org/2000/svg"><path d="M40.744 24.839h3.846c.11 0 .367-.037.476-.037.733-.146 1.356-.806 1.356-1.721 0-.88-.623-1.539-1.355-1.722-.11-.037-.33-.037-.477-.037h-3.846v3.517z" fill="#26C7BC"/><path d="M44.15.553a6.667 6.667 0 00-6.666 6.666v6.923h9.414c.22 0 .476 0 .66.037 2.124.11 3.699 1.209 3.699 3.114 0 1.502-1.063 2.784-3.04 3.04v.073c2.16.147 3.809 1.356 3.809 3.224 0 2.014-1.832 3.333-4.25 3.333H37.448v13.553h9.78a6.667 6.667 0 006.667-6.667V.553h-9.743z" fill="#26C7BC"/><path d="M45.946 17.732c0-.88-.623-1.465-1.356-1.575-.073 0-.256-.037-.366-.037h-3.48v3.224h3.48c.11 0 .33 0 .366-.037.733-.11 1.356-.696 1.356-1.575zM7.299.553A6.667 6.667 0 00.632 7.219v16.447c1.868.916 3.81 1.502 5.751 1.502 2.308 0 3.553-1.392 3.553-3.297v-7.765h5.715v7.729c0 3.003-1.868 5.458-8.205 5.458-3.847 0-6.85-.843-6.85-.843v14.03h9.78a6.667 6.667 0 006.667-6.667V.553H7.299zm18.424 0a6.667 6.667 0 00-6.666 6.666v8.718c1.685-1.428 4.615-2.344 9.34-2.124 2.528.11 5.238.806 5.238.806v2.82c-1.355-.696-2.967-1.319-5.054-1.465-3.59-.256-5.752 1.502-5.752 4.579 0 3.113 2.162 4.871 5.752 4.578 2.087-.146 3.7-.805 5.054-1.465v2.82s-2.674.697-5.238.807c-4.725.22-7.655-.696-9.34-2.125v15.385h9.78a6.667 6.667 0 006.667-6.667V.553h-9.78z" fill="#26C7BC"/></svg>