<svg width="184" height="30" fill="none" xmlns="http://www.w3.org/2000/svg"><path fill-rule="evenodd" clip-rule="evenodd" d="M147.761 17.612c0-.597 0-1.045.149-1.642.149-.448.298-1.045.448-1.492.149-.448.448-.896.746-1.344.299-.447.597-.895.896-1.194.298-.298.746-.746 1.194-1.044.447-.299.895-.598 1.343-.747.448-.149 1.045-.298 1.642-.448.597-.149 1.194-.149 1.791-.149s1.044 0 1.642.15c.298 0 .447.149.746.149.298 0 .448.149.746.298.149.15.448.15.597.299.149.149.448.298.597.298l.149.15.15-1.045h3.88v15.373h-4.03l-.149-1.045-.149.15c-.149.149-.448.298-.597.298-.149.15-.448.15-.597.298-.149.15-.448.15-.746.299-.299.15-.448.15-.747.15-.298 0-.597.148-.746.148h-.896c-.597 0-1.194 0-1.641-.149-.597-.15-1.045-.298-1.642-.448-.448-.149-.896-.447-1.343-.746-.448-.298-.896-.597-1.194-1.045-.299-.298-.747-.746-.896-1.194-.298-.448-.448-.895-.746-1.343-.15-.448-.299-1.045-.448-1.492-.149-.448-.149-1.045-.149-1.493zm-84.926 0c0-.597 0-1.045.15-1.642.149-.448.298-1.045.447-1.492.15-.448.448-.896.746-1.344.3-.447.598-.895 1.045-1.194.448-.298.747-.746 1.194-1.044.448-.299.896-.598 1.344-.747.447-.149 1.044-.298 1.641-.448.597-.149 1.195-.149 1.791-.149.597 0 1.195 0 1.791.15.598.149 1.045.298 1.642.447a6.99 6.99 0 011.493.747c.448.298.895.596 1.194 1.044.448.299.746.747 1.045 1.194.298.448.597.896.746 1.344.15.447.299 1.044.448 1.492.149.597.149 1.045.149 1.642v.597l-.15.896h-11.94c.15.298.15.447.299.596.15.15.298.448.448.598l.447.447c.15.15.299.299.597.448.15.15.448.15.597.299.15.149.448.149.598.149h.746c.298 0 .746 0 1.044-.15.299-.149.597-.149.896-.298.299-.15.448-.299.746-.597.15-.15.299-.448.448-.597l3.433 2.537c-.15.299-.448.448-.597.597-.299.299-.597.597-.896.747-.298.298-.746.447-1.044.597-.448.149-.747.298-1.194.447-.448.15-.896.299-1.344.299-.447 0-.895.15-1.492.15s-1.194 0-1.791-.15-1.045-.299-1.642-.448a6.963 6.963 0 01-1.493-.746c-.447-.299-.895-.597-1.194-1.045-.298-.298-.746-.746-1.044-1.194-.299-.448-.598-.896-.747-1.343-.149-.448-.298-1.045-.448-1.493-.149-.298-.149-.895-.149-1.343zm2.687-11.194l.597-.896h-5.373l-4.776 7.91-4.776-7.91H45.82l7.761 12.24v7.462h4.627V17.76l7.314-11.343zM99.104 22.09l6.866-8.21h-6.567V9.85h13.134v2.986l-6.866 8.209h7.164v4.03h-13.88v-2.836l.149-.15zm31.045-11.344L121.791 30h-4.926l2.836-5.97L113.582 10h4.925l3.582 8.508L125.671 10h4.926l-.448.746zm-48.956 6.717c0-.597 0-1.045.15-1.642.149-.448.298-1.045.447-1.493.15-.447.448-.895.747-1.343.298-.448.597-.896 1.045-1.194.447-.299.746-.746 1.194-1.045.447-.298.895-.597 1.343-.746.448-.15 1.045-.299 1.642-.448.597-.149 1.194-.149 1.79-.149.598 0 1.195 0 1.792.15.597.148 1.044.298 1.642.447.447.15 1.044.448 1.492.746.448.299.896.597 1.194 1.045.448.298.746.746 1.045 1.194.298.448.597.896.746 1.343.15.448.299 1.045.448 1.493.15.597.15 1.045.15 1.642v.597l-.15.895H85.97c.149.299.149.448.298.597.15.15.299.448.448.597l.448.448c.149.15.298.298.597.448.149.149.447.149.597.298.149.15.447.15.597.15h.597c.298 0 .746 0 1.044-.15.299-.149.597-.149.896-.298.298-.15.448-.299.746-.597.15-.15.299-.448.448-.597l3.433 2.537c-.15.299-.448.448-.597.597-.299.299-.597.597-.896.746-.298.299-.746.448-1.044.597-.299.15-.747.299-1.194.448-.448.15-.896.299-1.344.299-.447 0-.895.149-1.492.149s-1.194 0-1.791-.15c-.597-.149-1.045-.298-1.642-.447a6.975 6.975 0 01-1.493-.746c-.447-.299-.895-.597-1.194-1.045-.298-.299-.746-.746-1.044-1.194-.299-.448-.598-.896-.747-1.343-.149-.448-.298-1.045-.448-1.493v-1.343zm8.359-4.18c-.448 0-.896 0-1.344.15-.149.15-.447.15-.597.298-.149.15-.298.15-.447.299l-.448.448-.448.447c-.15.15-.15.299-.298.448h7.015c0-.15-.15-.298-.299-.448-.15-.149-.299-.298-.299-.447l-.447-.448c-.15-.15-.299-.299-.448-.299-.15-.149-.299-.149-.597-.298-.448 0-.895-.15-1.343-.15zm-18.359 0c-.447 0-.895 0-1.343.15-.15 0-.448.15-.597.298-.15.15-.298.15-.448.299l-.447.448-.448.447c-.15.15-.15.299-.299.448h7.015c0-.15-.149-.298-.298-.448-.15-.149-.299-.298-.299-.447l-.447-.448c-.15-.15-.299-.299-.448-.299-.15-.149-.299-.149-.597-.298-.448 0-.896-.15-1.344-.15zm111.493-2.537L174.328 30h-4.925l2.835-5.97L166.119 10h4.925l3.582 8.508L178.209 10h4.925l-.448.746zm-46.119 8.359v6.119h-4.627V5.374h8.507c.448 0 1.045 0 1.493.148.448.15.895.15 1.343.448.448.15.896.448 1.194.597.448.299.746.448 1.045.746.298.299.597.597.895 1.045.299.299.448.746.597 1.194l.448 1.344c.149.447.149.895.149 1.343 0 .448 0 .895-.149 1.492-.149.448-.149.896-.448 1.344-.149.447-.447.746-.597 1.194-.298.298-.597.746-.895 1.044-.299.299-.597.597-1.045.747-.448.298-.746.448-1.194.597l-1.343.448c-.448.149-.896.149-1.493.149h-3.88v-.15zm3.731-4.18c.299 0 .746 0 1.045-.149.149 0 .298-.15.448-.298.149-.15.298-.15.298-.299.149-.15.149-.298.299-.448.149-.149.149-.298.298-.447 0-.15.149-.299.149-.448v-1.194c0-.15-.149-.299-.149-.597 0-.15-.149-.299-.298-.448-.15-.15-.15-.298-.299-.448-.149-.149-.298-.298-.448-.298-.149-.15-.298-.15-.447-.299-.15 0-.299-.149-.448-.149h-4.179v5.522h3.731zm11.94 2.538c0 .298 0 .597.15.895 0 .299.149.597.298.747.149.298.299.447.299.746.149.149.298.448.447.597.15.149.299.298.597.447.15.15.448.299.747.299.298.15.447.15.746.15h1.492c.299 0 .448-.15.747-.15.298-.15.448-.15.597-.299.149-.149.448-.298.597-.447a2.08 2.08 0 00.448-.597 1.14 1.14 0 00.298-.746c.149-.299.149-.448.299-.747 0-.298.149-.597.149-.895 0-.299 0-.597-.149-.896 0-.298-.15-.597-.299-.746-.149-.299-.149-.448-.298-.746-.15-.15-.299-.448-.448-.597-.149-.15-.448-.299-.597-.448a1.14 1.14 0 00-.746-.299c-.299-.149-.448-.149-.747-.149h-1.492c-.299 0-.448.15-.747.15-.298.149-.447.149-.597.298-.149.15-.447.298-.597.448-.149.149-.298.447-.447.597-.15.149-.299.447-.299.746-.149.298-.149.448-.298.746-.15.448-.15.597-.15.896z" fill="#fff"/><path fill-rule="evenodd" clip-rule="evenodd" d="M33.882 1.343C32.986.896 32.09.597 31.046.3c-.747-.15-1.791-.15-2.687-.299H12.687l3.881 5.373h9.852c2.09 0 4.477 0 6.12 1.493.447.447.895 1.044 1.044 1.641a4.13 4.13 0 01.448 1.94 4.13 4.13 0 01-.448 1.941c-.298.597-.597 1.194-1.045 1.642-.597.597-1.343 1.045-2.238 1.194a12.432 12.432 0 01-3.284.448l-2.836 5.223c1.94.15 4.03.15 6.269-.298 2.238-.448 4.328-1.194 5.97-2.836.895-.895 1.79-2.09 2.239-3.433.447-1.194.746-2.537.746-4.03 0-1.343-.299-2.686-.746-4.03-.597-1.343-1.344-2.387-2.24-3.432-.895-.448-1.64-1.045-2.536-1.493z" fill="#26C7BC"/><path fill-rule="evenodd" clip-rule="evenodd" d="M6.567 0l10.896 15.672-3.135 5.074L0 0h6.567zm23.581 7.164L19.7 25.374h-6.268l10.447-18.21 6.12.15.15-.15z" fill="#fff"/></svg>