<svg width="78" height="50" fill="none" xmlns="http://www.w3.org/2000/svg"><mask id="a" style="mask-type:alpha" maskUnits="userSpaceOnUse" x="25" y="0" width="53" height="42"><path fill-rule="evenodd" clip-rule="evenodd" d="M67 2.647c-1.766-.882-3.53-1.47-5.59-2.059C59.94.294 57.882.294 56.118 0H25.234l7.648 10.588h19.411c4.118 0 8.824 0 12.059 2.941.882.883 1.765 2.06 2.059 3.236.588 1.176.882 2.353.882 3.823 0 1.47-.294 2.647-.882 3.824-.588 1.176-1.177 2.353-2.059 3.235-1.176 1.177-2.647 2.059-4.412 2.353-2.059.588-4.411.882-6.47.882l-5.59 10.294c3.824.295 7.942.295 12.353-.588C64.646 39.706 68.764 38.235 72 35c1.765-1.765 3.53-4.118 4.412-6.765.882-2.353 1.47-5 1.47-7.94 0-2.648-.588-5.295-1.47-7.942C75.235 9.706 73.765 7.647 72 5.588c-1.765-.882-3.235-2.059-5-2.941z" fill="#252F41"/></mask><g mask="url(#a)"><path fill-rule="evenodd" clip-rule="evenodd" d="M67 2.647c-1.766-.882-3.53-1.47-5.59-2.059C59.94.294 57.882.294 56.118 0H25.234l7.648 10.588h19.411c4.118 0 8.824 0 12.059 2.941.882.883 1.765 2.06 2.059 3.236.588 1.176.882 2.353.882 3.823 0 1.47-.294 2.647-.882 3.824-.588 1.176-1.177 2.353-2.059 3.235-1.176 1.177-2.647 2.059-4.412 2.353-2.059.588-4.411.882-6.47.882l-5.59 10.294c3.824.295 7.942.295 12.353-.588C64.646 39.706 68.764 38.235 72 35c1.765-1.765 3.53-4.118 4.412-6.765.882-2.353 1.47-5 1.47-7.94 0-2.648-.588-5.295-1.47-7.942C75.235 9.706 73.765 7.647 72 5.588c-1.765-.882-3.235-2.059-5-2.941z" fill="#252F41"/><path fill="#26C7BC" d="M24.939-1.633h55.483V59.41H24.939z"/></g><mask id="b" style="mask-type:alpha" maskUnits="userSpaceOnUse" x="0" y="0" width="60" height="50"><path fill-rule="evenodd" clip-rule="evenodd" d="M13.175 0l21.471 30.882-6.176 10L.234 0h12.941zm46.471 14.118L39.057 50H26.704l20.589-35.882 12.059.294.294-.294z" fill="#252F41"/></mask><g mask="url(#b)"><path fill-rule="evenodd" clip-rule="evenodd" d="M13.175 0l21.471 30.882-6.176 10L.234 0h12.941zm46.471 14.118L39.057 50H26.704l20.589-35.882 12.059.294.294-.294z" fill="#252F41"/><path fill="#fff" d="M.234-1.633h59.411V59.41H.234z"/></g></svg>